<?xml version="1.0" encoding="UTF-8" standalone="no"?>
<svg
   version="1.1"
   x="0"
   y="0"
   width="2100"
   height="400"
   viewBox="0 0 2100 400"
   id="svg9"
   sodipodi:docname="logo-lockup_rancher-by-suse-ondat_hor_dark.svg"
   inkscape:version="1.2.1 (9c6d41e410, 2022-07-14)"
   xml:space="preserve"
   xmlns:inkscape="http://www.inkscape.org/namespaces/inkscape"
   xmlns:sodipodi="http://sodipodi.sourceforge.net/DTD/sodipodi-0.dtd"
   xmlns="http://www.w3.org/2000/svg"
   xmlns:svg="http://www.w3.org/2000/svg"><defs
     id="defs13"><style
       id="style1584">
      .f04ca906-1e69-4f27-8621-a7ab0851ca11 {
        fill: #55565b;
      }

      .e330b834-161b-487c-bb13-8bca561e66de {
        fill: #00abc7;
      }
    </style><style
       id="style122">.cls-1{fill:#1239b8;}.cls-2{fill:#017efa;}.cls-3{fill:#0bbbef;}</style></defs><sodipodi:namedview
     id="namedview11"
     pagecolor="#ffffff"
     bordercolor="#666666"
     borderopacity="1.0"
     inkscape:pageshadow="2"
     inkscape:pageopacity="0.0"
     inkscape:pagecheckerboard="0"
     showgrid="true"
     scale-x="1"
     viewbox-width="1280"
     viewbox-height="600"
     width="2100px"
     height="400px"
     inkscape:zoom="0.71"
     inkscape:cx="1050"
     inkscape:cy="418.30986"
     inkscape:window-width="1920"
     inkscape:window-height="1051"
     inkscape:window-x="2015"
     inkscape:window-y="0"
     inkscape:window-maximized="1"
     inkscape:current-layer="svg9"
     inkscape:showpageshadow="2"
     inkscape:deskcolor="#d1d1d1"><inkscape:grid
       type="xygrid"
       id="grid38" /></sodipodi:namedview><path
     style="fill:none;stroke:#c0c0c0;stroke-width:6.10784;stroke-linecap:butt;stroke-linejoin:miter;stroke-miterlimit:4;stroke-dasharray:none;stroke-opacity:1"
     d="M 1039.3125,264.91436 V 115.69137"
     id="path73" /><g
     id="Layer_2-2"
     data-name="Layer 2"
     transform="matrix(2.5269502,0,0,2.5269502,1164.9785,124.5356)"><path
       class="cls-1"
       d="M 115.41,31.22 V 25 c 0,-10.07 5.4,-15.54 16.55,-15.54 11.44,0 16.4,5.18 16.4,15.54 v 6.19 c 0,10 -5.39,15.54 -16.4,15.54 -11.51,0.03 -16.55,-5.15 -16.55,-15.51 z M 141,25 c 0,-6 -2,-8.63 -9,-8.63 -7,0 -9.18,2.63 -9.18,8.63 v 6.19 c 0,6 2,8.56 9.14,8.56 7.14,0 9,-2.52 9,-8.56 z"
       id="path126" /><path
       class="cls-1"
       d="m 162.82,42.73 c 0,2.59 -0.65,3.23 -3.24,3.23 h -0.93 c -2.59,0 -3.24,-0.64 -3.24,-3.23 V 23.45 c 0,-9.29 5.25,-14 15.68,-14 10.94,0 15.61,4.67 15.61,14 v 19.28 c 0,2.59 -0.64,3.23 -3.23,3.23 h -0.94 c -2.59,0 -3.24,-0.64 -3.24,-3.23 V 23.45 c 0,-4.9 -1.79,-7 -8.2,-7 -6.41,0 -8.27,2.15 -8.27,7.05 z"
       id="path128" /><path
       class="cls-2"
       d="m 224.83,31.86 c 0,9.86 -5.11,14.75 -15.25,14.75 -10.72,0 -15.18,-5.18 -15.18,-14.75 v -7 c 0,-9.56 4.17,-14.82 14.82,-14.82 6,0 9.93,1.95 11.73,5.76 V 3.09 c 0,-1.37 0.36,-1.73 1.72,-1.73 h 0.44 c 1.36,0 1.72,0.36 1.72,1.73 z m -26.62,0 c 0,7.7 2.74,11.15 11.37,11.15 8.63,0 11.42,-3.45 11.42,-11.15 v -7 c 0,-7.69 -2.74,-11.15 -11.37,-11.15 -8.63,0 -11.37,3.46 -11.37,11.15 z"
       id="path130" /><path
       class="cls-2"
       d="m 263,44.89 c 0,1.36 -0.36,1.72 -1.73,1.72 h -0.43 c -1.37,0 -1.73,-0.36 -1.73,-1.72 v -4 c -1.79,3.81 -5.75,5.75 -11.72,5.75 -10.65,0 -14.82,-5.25 -14.82,-14.82 v -7 c 0,-9.57 4.31,-14.68 15.18,-14.68 C 257.85,10.06 263,15 263,24.74 Z m -26.62,-13 c 0,7.7 2.74,11.15 11.37,11.15 8.63,0 11.36,-3.45 11.36,-11.15 v -7 c 0,-7.69 -2.73,-11.15 -11.36,-11.15 -8.63,0 -11.37,3.46 -11.37,11.15 z"
       id="path132" /><path
       class="cls-2"
       d="m 269,12.65 c 0,-0.93 0.22,-1.22 1.3,-1.43 l 4.6,-0.51 0.72,-8.06 c 0.21,-1.07 0.5,-1.29 1.44,-1.29 h 0.36 c 1.08,0 1.29,0.36 1.29,1.29 v 8.06 h 12.88 c 1.37,0 1.66,0.43 1.66,1.66 v 0.28 c 0,1.23 -0.29,1.66 -1.66,1.66 h -12.88 v 19.86 c 0,6.4 2.59,8.77 7.41,8.77 a 24.39,24.39 0 0 0 6.77,-0.86 c 1.08,-0.36 1.65,0.14 1.65,1.37 v 0.28 c 0,1.23 -0.43,1.66 -1.65,2 a 24.58,24.58 0 0 1 -6.69,0.86 c -7.56,0 -11.3,-4.17 -11.3,-12.44 V 14.31 h -4.6 c -0.94,0 -1.3,-0.36 -1.3,-1.3 z"
       id="path134" /><path
       class="cls-2"
       d="m 309,11.3 c 0,0.44 -0.1,0.54 -0.54,0.54 h -1.59 v 5 c 0,0.49 -0.12,0.61 -0.61,0.61 h -0.19 c -0.49,0 -0.61,-0.12 -0.61,-0.61 v -5 h -1.59 c -0.44,0 -0.55,-0.1 -0.55,-0.54 v -0.19 c 0,-0.44 0.11,-0.54 0.55,-0.54 h 4.59 c 0.44,0 0.54,0.1 0.54,0.54 z m 8.51,5.52 c 0,0.49 -0.12,0.61 -0.61,0.61 h -0.2 c -0.48,0 -0.61,-0.12 -0.61,-0.61 v -5.05 l -1.36,4.89 a 0.76,0.76 0 0 1 -0.86,0.67 0.83,0.83 0 0 1 -0.85,-0.67 l -1.42,-4.89 v 5.05 c 0,0.49 -0.12,0.61 -0.61,0.61 h -0.19 c -0.49,0 -0.61,-0.12 -0.61,-0.61 v -5.33 c 0,-0.64 0.26,-0.92 0.91,-0.92 h 0.56 c 0.61,0 1,0.38 1.2,1.13 l 1,3.92 1.1,-4.14 c 0.14,-0.72 0.51,-0.91 1.35,-0.91 h 0.26 a 0.81,0.81 0 0 1 0.91,0.92 z"
       id="path136" /><polygon
       class="cls-2"
       points="24.01,28.35 0,18.52 0,38.17 "
       id="polygon138" /><polygon
       class="cls-1"
       points="45.23,19.66 45.23,0 0,18.52 24.01,28.35 "
       id="polygon140" /><polygon
       class="cls-3"
       points="45.23,56.69 45.23,37.03 24.01,28.35 0,38.17 "
       id="polygon142" /><polygon
       class="cls-2"
       points="94.87,18.52 70.86,28.35 94.87,38.17 "
       id="polygon144" /><polygon
       class="cls-3"
       points="49.64,0 49.64,19.66 70.86,28.35 94.87,18.52 "
       id="polygon146" /><polygon
       class="cls-1"
       points="49.64,56.69 94.87,38.17 70.86,28.35 49.64,37.03 "
       id="polygon148" /></g><style
     type="text/css"
     id="style1003">
	.st0{display:none;}
	.st1{display:inline;}
	.st2{fill:#2453FF;}
</style><g
     id="g1084"
     transform="matrix(3.5798398,0,0,3.5798397,76.521235,30.614426)"><g
       id="padding"
       class="st0">
	<path
   class="st1"
   d="m 118.37,-0.13 h 9.41 c 4.47,0 7.48,2.17 7.48,6.36 0,3.42 -2.33,5.48 -4.6,6.19 0.68,0.58 1.18,1.35 1.59,2.17 0.95,1.93 1.59,4.06 3.59,4.06 0.51,0 0.91,-0.17 0.91,-0.17 l -0.44,4.03 c 0,0 -1.22,0.3 -2.27,0.3 -2.71,0 -4.26,-1.05 -5.85,-4.67 -0.68,-1.62 -1.62,-4.47 -2.88,-4.47 h -1.29 v 9.03 h -5.65 V -0.13 m 5.65,4.09 v 5.62 h 2.03 c 1.62,0 3.52,-0.51 3.52,-2.94 0,-2 -1.29,-2.67 -2.84,-2.67 h -2.71 z"
   id="path1005" />
	<g
   class="st1"
   id="g1011">
		<path
   d="m 0,54.39 v -9.41 c 0,-4.47 2.17,-7.48 6.36,-7.48 3.42,0 5.48,2.33 6.19,4.6 0.58,-0.68 1.35,-1.18 2.17,-1.59 1.93,-0.95 4.06,-1.59 4.06,-3.59 0,-0.51 -0.17,-0.91 -0.17,-0.91 l 4.03,0.44 c 0,0 0.3,1.22 0.3,2.27 0,2.71 -1.05,4.26 -4.67,5.85 -1.62,0.68 -4.47,1.62 -4.47,2.88 v 1.29 h 9.03 v 5.65 H 0 m 4.09,-5.65 h 5.62 v -2.03 c 0,-1.62 -0.51,-3.52 -2.94,-3.52 -2,0 -2.67,1.29 -2.67,2.84 v 2.71 z"
   id="path1007" />
		<path
   d="m 232.18,54.39 v -9.41 c 0,-4.47 2.17,-7.48 6.36,-7.48 3.42,0 5.48,2.33 6.19,4.6 0.58,-0.68 1.35,-1.18 2.17,-1.59 1.93,-0.95 4.06,-1.59 4.06,-3.59 0,-0.51 -0.17,-0.91 -0.17,-0.91 l 4.03,0.44 c 0,0 0.3,1.22 0.3,2.27 0,2.71 -1.05,4.26 -4.67,5.85 -1.62,0.68 -4.47,1.62 -4.47,2.88 v 1.29 h 9.03 v 5.65 h -22.83 m 4.09,-5.65 h 5.62 v -2.03 c 0,-1.62 -0.51,-3.52 -2.94,-3.52 -2,0 -2.67,1.29 -2.67,2.84 v 2.71 z"
   id="path1009" />
	</g>
	<path
   class="st1"
   d="m 118.37,67.7 h 9.41 c 4.47,0 7.48,2.17 7.48,6.36 0,3.42 -2.33,5.48 -4.6,6.19 0.68,0.58 1.18,1.35 1.59,2.17 0.95,1.93 1.59,4.06 3.59,4.06 0.51,0 0.91,-0.17 0.91,-0.17 l -0.44,4.03 c 0,0 -1.22,0.3 -2.27,0.3 -2.71,0 -4.26,-1.05 -5.85,-4.67 -0.68,-1.62 -1.62,-4.47 -2.88,-4.47 h -1.29 v 9.03 h -5.65 V 67.7 m 5.65,4.09 v 5.62 h 2.03 c 1.62,0 3.52,-0.51 3.52,-2.94 0,-2 -1.29,-2.67 -2.84,-2.67 h -2.71 z"
   id="path1013" />
</g><g
       id="logo">
	<g
   id="g1020">
		<path
   class="st2"
   d="M 88.78,29.59 88.07,25.3 c -0.23,-1.38 -0.77,-2.5 -1.19,-2.5 -0.43,0 -0.77,1.14 -0.77,2.54 v 1.12 c 0,1.39 -1.14,2.54 -2.54,2.54 h -1.12 c -0.08,0 -0.16,0 -0.24,0.01 v 3.08 c 0.08,0 0.16,0.01 0.24,0.01 h 4.22 c 1.39,-0.01 2.34,-1.13 2.11,-2.51"
   id="path1016" />
		<path
   class="st2"
   d="m 78.67,25.96 h -6.84 c -0.06,0 -0.11,0 -0.17,0.01 h -7.02 c -0.08,0 -0.16,0.01 -0.24,0.02 v -0.65 c 0,-1.39 -0.35,-2.54 -0.77,-2.54 -0.43,0 -0.96,1.13 -1.19,2.5 l -0.71,4.29 c -0.23,1.38 0.72,2.5 2.12,2.5 h 4.22 c 0.43,0 0.84,-0.07 1.2,-0.19 -0.13,0.72 -0.76,1.26 -1.52,1.26 h -5.91 c -0.96,0 -1.68,-0.86 -1.53,-1.8 l 0.6,-3.59 c 0.16,-0.94 -0.57,-1.8 -1.53,-1.8 H 29.95 c -0.63,0 -1.17,0.37 -1.41,0.91 L 23,35.31 c -0.09,0.14 -0.08,0.33 0.03,0.46 l 1.08,1.27 c 0.13,0.16 0.37,0.18 0.53,0.05 l 3.77,-2.97 v 18.04 c 0,0.86 0.69,1.55 1.55,1.55 h 8.35 c 0.86,0 1.55,-0.69 1.55,-1.55 v -6.27 c 0,-0.85 0.69,-1.55 1.55,-1.55 h 20.85 c 0.86,0 1.55,0.69 1.55,1.55 v 6.27 c 0,0.86 0.69,1.55 1.55,1.55 h 8.35 c 0.85,0 1.55,-0.69 1.55,-1.55 v -6.75 h -4.44 c -1.39,0 -2.54,-1.14 -2.54,-2.54 v -4.34 c 0,-0.83 0.4,-1.56 1.02,-2.02 v 5.18 c 0,1.39 1.14,2.54 2.54,2.54 h 6.84 c 1.39,0 2.54,-1.14 2.54,-2.54 V 28.5 c -0.01,-1.39 -1.15,-2.54 -2.55,-2.54"
   id="path1018" />
	</g>
	<g
   id="g1033">
		<g
   id="Layer_1_00000116952799159011174390000017168342625225811855_">
			<g
   id="g1024">
				<path
   d="m 223.38,67.58 c -0.96,0 -1.74,-0.78 -1.74,-1.74 v -5.17 c 0,-0.96 0.78,-1.74 1.74,-1.74 h 3.97 c 0.31,0 0.56,0.25 0.56,0.56 0,0.31 -0.25,0.56 -0.56,0.56 h -3.97 c -0.34,0 -0.62,0.28 -0.62,0.62 v 2.03 h 3.89 c 0.29,0 0.53,0.24 0.53,0.53 0,0.29 -0.24,0.53 -0.53,0.53 h -3.89 v 2.07 c 0,0.34 0.28,0.62 0.62,0.62 h 3.97 c 0.31,0 0.56,0.25 0.56,0.56 0,0.31 -0.25,0.56 -0.56,0.56 h -3.97 z m -17.78,0.11 c -1.14,0 -2.02,-0.29 -2.62,-0.86 -0.59,-0.57 -0.89,-1.43 -0.89,-2.56 v -4.81 c 0,-0.36 0.29,-0.65 0.65,-0.65 0.36,0 0.65,0.29 0.65,0.65 v 4.63 c 0,0.84 0.18,1.47 0.54,1.87 0.36,0.4 0.92,0.61 1.67,0.61 0.75,0 1.31,-0.21 1.67,-0.61 0.36,-0.4 0.54,-1.03 0.54,-1.87 v -4.63 c 0,-0.36 0.29,-0.65 0.65,-0.65 0.36,0 0.65,0.29 0.65,0.65 v 4.81 c 0,1.12 -0.3,1.98 -0.89,2.56 -0.6,0.57 -1.48,0.86 -2.62,0.86 m 9.81,0 c -1.47,0 -2.59,-0.42 -3.33,-1.24 -0.21,-0.24 -0.2,-0.61 0.03,-0.84 v 0 0 c 0.12,-0.12 0.27,-0.18 0.44,-0.18 0.18,0 0.34,0.07 0.45,0.21 0.21,0.24 0.44,0.43 0.7,0.58 0.45,0.25 1.02,0.38 1.69,0.38 0.64,0 1.14,-0.11 1.51,-0.33 0.38,-0.23 0.57,-0.55 0.57,-0.97 0,-0.34 -0.17,-0.62 -0.51,-0.82 -0.33,-0.2 -0.89,-0.37 -1.71,-0.52 -0.8,-0.15 -1.44,-0.33 -1.91,-0.55 -0.46,-0.21 -0.8,-0.48 -1.01,-0.8 -0.21,-0.31 -0.31,-0.7 -0.31,-1.16 0,-0.48 0.13,-0.92 0.4,-1.32 0.27,-0.39 0.66,-0.71 1.16,-0.94 0.51,-0.23 1.11,-0.35 1.78,-0.35 0.79,0 1.47,0.14 2.03,0.43 0.37,0.19 0.71,0.46 1.01,0.78 0.23,0.25 0.2,0.64 -0.05,0.87 -0.11,0.1 -0.26,0.16 -0.41,0.16 -0.19,0 -0.37,-0.09 -0.49,-0.24 -0.17,-0.22 -0.36,-0.39 -0.56,-0.53 -0.38,-0.24 -0.89,-0.37 -1.52,-0.37 -0.62,0 -1.11,0.13 -1.45,0.38 -0.35,0.25 -0.53,0.58 -0.53,0.98 0,0.37 0.17,0.67 0.52,0.89 0.33,0.21 0.91,0.39 1.77,0.55 0.78,0.14 1.4,0.32 1.86,0.53 0.45,0.21 0.78,0.47 0.99,0.79 0.2,0.31 0.31,0.7 0.31,1.16 0,0.5 -0.14,0.94 -0.42,1.31 -0.28,0.38 -0.69,0.67 -1.2,0.87 -0.53,0.19 -1.13,0.29 -1.81,0.29 m -19.55,0.01 c -1.47,0 -2.59,-0.42 -3.33,-1.24 -0.21,-0.24 -0.2,-0.61 0.03,-0.84 v 0 c 0.12,-0.12 0.27,-0.18 0.44,-0.18 0.18,0 0.34,0.07 0.45,0.21 0.21,0.24 0.44,0.43 0.7,0.58 0.45,0.25 1.02,0.38 1.69,0.38 0.64,0 1.14,-0.11 1.51,-0.33 0.38,-0.23 0.57,-0.55 0.57,-0.97 0,-0.34 -0.17,-0.62 -0.51,-0.82 -0.33,-0.2 -0.89,-0.37 -1.71,-0.52 -0.79,-0.15 -1.44,-0.33 -1.91,-0.55 -0.46,-0.22 -0.81,-0.48 -1.01,-0.8 -0.21,-0.31 -0.31,-0.7 -0.31,-1.16 0,-0.48 0.13,-0.92 0.4,-1.32 0.27,-0.39 0.66,-0.71 1.16,-0.94 0.51,-0.23 1.1,-0.35 1.78,-0.35 0.79,0 1.47,0.14 2.03,0.43 0.38,0.19 0.71,0.46 1.01,0.78 0.23,0.25 0.2,0.64 -0.05,0.87 -0.11,0.1 -0.26,0.16 -0.41,0.16 -0.19,0 -0.37,-0.09 -0.49,-0.24 -0.17,-0.22 -0.36,-0.39 -0.56,-0.53 -0.38,-0.24 -0.89,-0.37 -1.52,-0.37 -0.62,0 -1.11,0.13 -1.45,0.38 -0.35,0.25 -0.53,0.59 -0.53,0.98 0,0.37 0.17,0.67 0.52,0.89 0.33,0.21 0.91,0.39 1.77,0.55 0.78,0.14 1.4,0.32 1.86,0.53 0.45,0.21 0.78,0.48 0.99,0.79 0.2,0.31 0.31,0.7 0.31,1.16 0,0.5 -0.14,0.94 -0.42,1.31 -0.28,0.38 -0.69,0.67 -1.2,0.87 -0.53,0.18 -1.13,0.29 -1.81,0.29"
   id="path1022" />
			</g>
		</g>
		<g
   id="g1031">
			<path
   d="m 175.81,67.69 h -3.31 v -8.88 h 3.18 c 1.87,0 2.81,1.02 2.81,2.25 0,1.12 -0.7,1.77 -1.55,2.05 0.97,0.17 1.76,1.1 1.76,2.19 0,1.35 -1.05,2.39 -2.89,2.39 z m -0.23,-7.92 h -1.92 v 2.88 h 1.95 c 1.08,0 1.71,-0.53 1.71,-1.44 0,-0.88 -0.6,-1.44 -1.74,-1.44 z m 0.09,3.83 h -2.01 v 3.13 h 2.05 c 1.15,0 1.83,-0.57 1.83,-1.54 0,-0.97 -0.73,-1.59 -1.87,-1.59 z"
   id="path1027" />
			<path
   d="m 180.21,58.81 h 1.29 l 2.19,4.5 2.19,-4.5 h 1.29 l -2.89,5.53 v 3.35 h -1.16 v -3.35 z"
   id="path1029" />
		</g>
	</g>
	<path
   d="m 94.4,26.84 h 9.41 c 4.47,0 7.48,2.17 7.48,6.36 0,3.42 -2.33,5.48 -4.6,6.19 0.68,0.58 1.18,1.35 1.59,2.17 0.95,1.93 1.59,4.06 3.59,4.06 0.51,0 0.91,-0.17 0.91,-0.17 l -0.44,4.03 c 0,0 -1.22,0.3 -2.27,0.3 -2.71,0 -4.26,-1.05 -5.85,-4.67 -0.68,-1.62 -1.62,-4.47 -2.88,-4.47 h -1.29 v 9.03 H 94.4 V 26.84 m 5.65,4.09 v 5.62 h 2.03 c 1.62,0 3.52,-0.51 3.52,-2.94 0,-2 -1.29,-2.67 -2.84,-2.67 h -2.71 z"
   id="path1035" />
	<path
   d="m 118.92,26.84 h 5.72 l 7.71,22.84 h -5.72 l -1.42,-4.33 h -7.65 l -1.39,4.33 h -4.94 l 7.69,-22.84 m 0,14.31 h 4.91 l -1.56,-4.8 c -0.54,-1.62 -0.78,-3.92 -0.78,-3.92 h -0.14 c 0,0 -0.34,2.33 -0.85,3.89 z"
   id="path1037" />
	<path
   d="m 132.59,26.84 h 6.06 l 5.99,11.33 c 0.51,0.98 1.18,2.71 1.73,4.06 h 0.14 c -0.07,-1.29 -0.24,-3.11 -0.24,-4.43 V 26.84 h 4.63 v 22.84 h -5.92 l -6.22,-11.3 c -0.58,-1.02 -1.18,-2.5 -1.66,-3.72 h -0.14 c 0.1,1.29 0.27,2.81 0.27,4.06 v 10.96 h -4.64 V 26.84"
   id="path1039" />
	<path
   d="m 152.1,38.1 c 0,-8.25 4.09,-11.67 10.42,-11.67 6.66,0 9.34,3.65 8.59,8.59 l -5.28,0.47 c 0.58,-3.62 -0.85,-5.07 -3.42,-5.07 -2.47,0 -4.47,1.83 -4.47,7.71 0,6.23 2.17,7.82 4.63,7.82 2.33,0 4.23,-1.46 3.82,-4.43 l 4.94,0.51 c 0.37,4.63 -2.98,8.05 -9.07,8.05 -6.16,0 -10.16,-3.65 -10.16,-11.98"
   id="path1041" />
	<polyline
   points="172.5,26.84 178.15,26.84 178.15,35.47 185.09,35.47 185.09,26.84 190.74,26.84 190.74,49.68 185.09,49.68    185.09,40 178.15,40 178.15,49.68 172.5,49.68 172.5,26.84  "
   id="polyline1043" />
	<polyline
   points="193,26.84 208.12,26.84 208.12,31.03 198.65,31.03 198.65,35.94 206.6,35.94 206.6,40.13 198.65,40.13    198.65,45.48 208.46,45.48 208.46,49.68 193,49.68 193,26.84  "
   id="polyline1045" />
	<path
   d="m 209.54,26.84 h 9.41 c 4.47,0 7.48,2.17 7.48,6.36 0,3.42 -2.33,5.48 -4.6,6.19 0.68,0.58 1.18,1.35 1.59,2.17 0.95,1.93 1.59,4.06 3.59,4.06 0.51,0 0.91,-0.17 0.91,-0.17 l -0.44,4.03 c 0,0 -1.22,0.3 -2.27,0.3 -2.71,0 -4.26,-1.05 -5.85,-4.67 -0.68,-1.62 -1.62,-4.47 -2.88,-4.47 h -1.29 v 9.03 h -5.65 V 26.84 m 5.65,4.09 v 5.62 h 2.03 c 1.62,0 3.52,-0.51 3.52,-2.94 0,-2 -1.29,-2.67 -2.84,-2.67 h -2.71 z"
   id="path1047" />
	<path
   d="m 228.5,28.28 c 0,-1.29 0.96,-1.85 1.84,-1.85 0.89,0 1.84,0.55 1.84,1.85 0,1.26 -0.96,1.82 -1.84,1.82 -0.89,0 -1.84,-0.55 -1.84,-1.82 m 3.24,-0.01 c 0,-1.01 -0.66,-1.45 -1.4,-1.45 -0.74,0 -1.42,0.44 -1.42,1.45 0,1 0.68,1.44 1.42,1.44 0.74,0 1.4,-0.43 1.4,-1.44 z m -2.01,-0.91 h 0.65 c 0.33,0 0.66,0.09 0.66,0.56 0,0.28 -0.18,0.43 -0.43,0.48 l 0.43,0.74 h -0.4 l -0.4,-0.72 h -0.16 v 0.72 h -0.36 v -1.78 z m 0.68,0.81 c 0.15,0 0.28,-0.09 0.28,-0.26 0,-0.19 -0.15,-0.24 -0.28,-0.24 h -0.32 v 0.5 z"
   id="path1049" />
</g></g></svg>
