<?xml version="1.0" encoding="UTF-8" standalone="no"?>
<svg
   viewBox="0 0 126.94601 37.889004"
   version="1.1"
   id="svg18"
   width="126.94601"
   height="37.889004"
   xmlns="http://www.w3.org/2000/svg"
   xmlns:svg="http://www.w3.org/2000/svg">
  <defs
     id="defs8">
    <clipPath
       id="a"
       clipPathUnits="userSpaceOnUse">
      <path
         d="m 56.2195,173.0494 h 914 v -190 h -914 z"
         transform="translate(-912.427,-74.8036)"
         id="path2" />
    </clipPath>
    <clipPath
       id="b"
       clipPathUnits="userSpaceOnUse">
      <path
         d="m 56.2195,173.0494 h 914 v -190 h -914 z"
         transform="translate(-938.2348,-48.6792)"
         id="path5" />
    </clipPath>
  </defs>
  <g
     id="g1761"
     transform="translate(-0.23485842,2.885e-5)">
    <g
       clip-path="url(#a)"
       transform="matrix(0.26619,0,0,-0.26619,85.3,19.8085)"
       id="g12">
      <path
         fill="#252f3e"
         d="m 0,0 c -4.117,0 -8.233,0.475 -12.191,1.425 -3.959,0.95 -7.046,1.979 -9.104,3.167 -1.267,0.712 -2.138,1.504 -2.455,2.216 -0.316,0.713 -0.474,1.504 -0.474,2.217 v 4.037 c 0,1.663 0.633,2.454 1.82,2.454 0.475,0 0.95,-0.079 1.425,-0.237 0.475,-0.159 1.188,-0.475 1.979,-0.792 2.692,-1.187 5.621,-2.137 8.709,-2.771 3.166,-0.633 6.254,-0.95 9.42,-0.95 4.988,0 8.867,0.871 11.558,2.613 2.692,1.741 4.117,4.275 4.117,7.521 0,2.216 -0.713,4.037 -2.138,5.541 -1.425,1.504 -4.116,2.85 -7.995,4.117 L -6.808,34.12 c -5.779,1.821 -10.054,4.512 -12.667,8.075 -2.612,3.483 -3.958,7.362 -3.958,11.479 0,3.325 0.713,6.254 2.138,8.787 1.425,2.533 3.325,4.75 5.699,6.492 2.375,1.82 5.067,3.166 8.234,4.116 3.166,0.95 6.491,1.346 9.974,1.346 1.742,0 3.563,-0.079 5.304,-0.317 1.821,-0.237 3.484,-0.554 5.146,-0.87 1.584,-0.396 3.088,-0.792 4.513,-1.267 1.425,-0.475 2.533,-0.95 3.325,-1.425 1.108,-0.633 1.9,-1.267 2.375,-1.979 0.475,-0.633 0.712,-1.504 0.712,-2.613 v -3.72 c 0,-1.663 -0.633,-2.534 -1.821,-2.534 -0.633,0 -1.662,0.317 -3.008,0.95 -4.512,2.059 -9.579,3.088 -15.2,3.088 -4.512,0 -8.075,-0.713 -10.529,-2.217 -2.454,-1.504 -3.72,-3.8 -3.72,-7.046 0,-2.216 0.791,-4.116 2.375,-5.62 1.583,-1.504 4.512,-3.008 8.708,-4.354 l 11.241,-3.563 c 5.7,-1.821 9.817,-4.354 12.271,-7.6 2.454,-3.245 3.641,-6.966 3.641,-11.083 0,-3.404 -0.712,-6.491 -2.058,-9.183 C 24.462,10.371 22.562,7.996 20.108,6.096 17.654,4.117 14.725,2.692 11.321,1.662 7.758,0.554 4.037,0 0,0 m -101.727,2.137 c -1.425,0 -2.375,0.238 -3.008,0.792 -0.634,0.475 -1.188,1.583 -1.663,3.088 l -18.603,61.194 c -0.475,1.583 -0.713,2.612 -0.713,3.167 0,1.266 0.633,1.979 1.9,1.979 h 7.758 c 1.504,0 2.533,-0.238 3.088,-0.792 0.633,-0.475 1.108,-1.583 1.583,-3.087 l 13.3,-52.408 12.349,52.408 c 0.396,1.583 0.871,2.612 1.504,3.087 0.634,0.475 1.742,0.792 3.167,0.792 h 6.333 c 1.504,0 2.534,-0.238 3.167,-0.792 0.633,-0.475 1.187,-1.583 1.504,-3.087 l 12.508,-53.041 13.696,53.041 c 0.475,1.583 1.029,2.612 1.583,3.087 0.633,0.475 1.662,0.792 3.087,0.792 h 7.363 c 1.266,0 1.979,-0.634 1.979,-1.979 0,-0.396 -0.079,-0.792 -0.159,-1.267 -0.079,-0.475 -0.237,-1.108 -0.554,-1.979 L -49.636,5.937 c -0.475,-1.583 -1.03,-2.612 -1.663,-3.087 -0.633,-0.475 -1.662,-0.792 -3.008,-0.792 h -6.808 c -1.505,0 -2.534,0.238 -3.167,0.792 -0.633,0.554 -1.187,1.583 -1.504,3.167 L -78.057,57.078 -90.248,6.096 c -0.396,-1.584 -0.871,-2.613 -1.504,-3.167 -0.633,-0.554 -1.742,-0.792 -3.167,-0.792 z m -63.569,8.55 c 2.612,0 5.304,0.475 8.154,1.425 2.85,0.95 5.383,2.692 7.52,5.067 1.267,1.504 2.217,3.166 2.692,5.066 0.475,1.9 0.792,4.196 0.792,6.888 v 3.325 c -2.296,0.554 -4.75,1.029 -7.284,1.345 -2.533,0.317 -4.987,0.475 -7.441,0.475 -5.304,0 -9.183,-1.029 -11.796,-3.166 -2.612,-2.138 -3.879,-5.146 -3.879,-9.104 0,-3.721 0.95,-6.492 2.929,-8.392 1.9,-1.979 4.671,-2.929 8.313,-2.929 m 32.141,12.033 c 0,-2.929 0.316,-5.304 0.87,-7.045 0.634,-1.742 1.425,-3.642 2.534,-5.7 0.395,-0.634 0.554,-1.267 0.554,-1.821 0,-0.792 -0.475,-1.583 -1.504,-2.375 l -4.988,-3.325 c -0.712,-0.475 -1.425,-0.712 -2.058,-0.712 -0.792,0 -1.583,0.395 -2.375,1.108 -1.108,1.187 -2.058,2.454 -2.85,3.721 -0.792,1.345 -1.583,2.85 -2.454,4.67 -6.175,-7.283 -13.933,-10.924 -23.275,-10.924 -6.649,0 -11.953,1.9 -15.833,5.7 -3.879,3.799 -5.858,8.866 -5.858,15.199 0,6.729 2.375,12.192 7.204,16.308 4.829,4.117 11.242,6.175 19.396,6.175 2.691,0 5.462,-0.237 8.391,-0.633 2.929,-0.396 5.938,-1.029 9.104,-1.742 v 5.779 c 0,6.017 -1.266,10.212 -3.721,12.667 -2.533,2.454 -6.808,3.641 -12.903,3.641 -2.771,0 -5.621,-0.317 -8.55,-1.029 -2.929,-0.713 -5.779,-1.583 -8.55,-2.692 -1.267,-0.554 -2.217,-0.87 -2.771,-1.029 -0.554,-0.158 -0.95,-0.237 -1.267,-0.237 -1.108,0 -1.662,0.791 -1.662,2.454 v 3.879 c 0,1.267 0.158,2.217 0.554,2.771 0.396,0.554 1.108,1.108 2.217,1.662 2.771,1.425 6.096,2.613 9.975,3.563 3.879,1.029 7.995,1.504 12.349,1.504 9.421,0 16.308,-2.138 20.742,-6.413 4.354,-4.275 6.57,-10.766 6.57,-19.474 V 22.72 Z"
         id="path10" />
    </g>
    <g
       clip-path="url(#b)"
       transform="matrix(0.26619,0,0,-0.26619,92.1699,26.7625)"
       id="g16">
      <path
         fill="#ff9900"
         d="m 0,0 c -3.325,4.275 -22.008,2.058 -30.479,1.029 -2.533,-0.317 -2.929,1.9 -0.633,3.563 14.883,10.449 39.345,7.441 42.195,3.958 2.85,-3.563 -0.792,-28.025 -14.725,-39.741 -2.137,-1.821 -4.195,-0.871 -3.245,1.504 C -3.721,-21.85 3.325,-4.196 0,0 m -10.846,-12.35 c -26.045,-19.237 -63.886,-29.449 -96.422,-29.449 -45.599,0 -86.686,16.862 -117.719,44.886 -2.454,2.217 -0.237,5.225 2.692,3.484 33.566,-19.475 74.969,-31.27 117.797,-31.27 28.895,0 60.641,6.016 89.852,18.366 4.355,1.979 8.075,-2.85 3.8,-6.017"
         id="path14" />
    </g>
    <rect
       style="fill:none;fill-opacity:0"
       id="rect969"
       width="31.443916"
       height="7.029572"
       x="0.23485842"
       y="21.669147" />
    <rect
       style="fill:none;fill-opacity:0"
       id="rect971"
       width="31.518417"
       height="4.3473964"
       x="95.662445"
       y="23.263222" />
  </g>
</svg>
