<?xml version="1.0" encoding="UTF-8" standalone="no"?>
<svg
   version="1.1"
   x="0"
   y="0"
   width="802.33191"
   height="143.25282"
   viewBox="0 0 802.33191 143.25282"
   id="svg9"
   sodipodi:docname="logo-lockup_rancher-by-suse-ondat_hor_dark.svg"
   inkscape:version="1.2.1 (9c6d41e410, 2022-07-14)"
   xml:space="preserve"
   xmlns:inkscape="http://www.inkscape.org/namespaces/inkscape"
   xmlns:sodipodi="http://sodipodi.sourceforge.net/DTD/sodipodi-0.dtd"
   xmlns="http://www.w3.org/2000/svg"
   xmlns:svg="http://www.w3.org/2000/svg"><defs
     id="defs13"><style
       id="style1584">
      .f04ca906-1e69-4f27-8621-a7ab0851ca11 {
        fill: #55565b;
      }

      .e330b834-161b-487c-bb13-8bca561e66de {
        fill: #00abc7;
      }
    </style><style
       id="style122">.cls-1{fill:#1239b8;}.cls-2{fill:#017efa;}.cls-3{fill:#0bbbef;}</style></defs><sodipodi:namedview
     id="namedview11"
     pagecolor="#ffffff"
     bordercolor="#666666"
     borderopacity="1.0"
     inkscape:pageshadow="2"
     inkscape:pageopacity="0.0"
     inkscape:pagecheckerboard="0"
     showgrid="true"
     scale-x="1"
     viewbox-width="1280"
     viewbox-height="600"
     width="2100px"
     height="400px"
     inkscape:zoom="0.71"
     inkscape:cx="1050"
     inkscape:cy="418.30986"
     inkscape:window-width="1920"
     inkscape:window-height="1051"
     inkscape:window-x="2015"
     inkscape:window-y="0"
     inkscape:window-maximized="1"
     inkscape:current-layer="svg9"
     inkscape:showpageshadow="2"
     inkscape:deskcolor="#d1d1d1"><inkscape:grid
       type="xygrid"
       id="grid38" /></sodipodi:namedview><g
     id="Layer_2-2"
     data-name="Layer 2"
     transform="matrix(2.5269502,0,0,2.5269502,-1.5625e-5,1.2451172e-6)"><path
       class="cls-1"
       d="M 115.41,31.22 V 25 c 0,-10.07 5.4,-15.54 16.55,-15.54 11.44,0 16.4,5.18 16.4,15.54 v 6.19 c 0,10 -5.39,15.54 -16.4,15.54 -11.51,0.03 -16.55,-5.15 -16.55,-15.51 z M 141,25 c 0,-6 -2,-8.63 -9,-8.63 -7,0 -9.18,2.63 -9.18,8.63 v 6.19 c 0,6 2,8.56 9.14,8.56 7.14,0 9,-2.52 9,-8.56 z"
       id="path126" /><path
       class="cls-1"
       d="m 162.82,42.73 c 0,2.59 -0.65,3.23 -3.24,3.23 h -0.93 c -2.59,0 -3.24,-0.64 -3.24,-3.23 V 23.45 c 0,-9.29 5.25,-14 15.68,-14 10.94,0 15.61,4.67 15.61,14 v 19.28 c 0,2.59 -0.64,3.23 -3.23,3.23 h -0.94 c -2.59,0 -3.24,-0.64 -3.24,-3.23 V 23.45 c 0,-4.9 -1.79,-7 -8.2,-7 -6.41,0 -8.27,2.15 -8.27,7.05 z"
       id="path128" /><path
       class="cls-2"
       d="m 224.83,31.86 c 0,9.86 -5.11,14.75 -15.25,14.75 -10.72,0 -15.18,-5.18 -15.18,-14.75 v -7 c 0,-9.56 4.17,-14.82 14.82,-14.82 6,0 9.93,1.95 11.73,5.76 V 3.09 c 0,-1.37 0.36,-1.73 1.72,-1.73 h 0.44 c 1.36,0 1.72,0.36 1.72,1.73 z m -26.62,0 c 0,7.7 2.74,11.15 11.37,11.15 8.63,0 11.42,-3.45 11.42,-11.15 v -7 c 0,-7.69 -2.74,-11.15 -11.37,-11.15 -8.63,0 -11.37,3.46 -11.37,11.15 z"
       id="path130" /><path
       class="cls-2"
       d="m 263,44.89 c 0,1.36 -0.36,1.72 -1.73,1.72 h -0.43 c -1.37,0 -1.73,-0.36 -1.73,-1.72 v -4 c -1.79,3.81 -5.75,5.75 -11.72,5.75 -10.65,0 -14.82,-5.25 -14.82,-14.82 v -7 c 0,-9.57 4.31,-14.68 15.18,-14.68 C 257.85,10.06 263,15 263,24.74 Z m -26.62,-13 c 0,7.7 2.74,11.15 11.37,11.15 8.63,0 11.36,-3.45 11.36,-11.15 v -7 c 0,-7.69 -2.73,-11.15 -11.36,-11.15 -8.63,0 -11.37,3.46 -11.37,11.15 z"
       id="path132" /><path
       class="cls-2"
       d="m 269,12.65 c 0,-0.93 0.22,-1.22 1.3,-1.43 l 4.6,-0.51 0.72,-8.06 c 0.21,-1.07 0.5,-1.29 1.44,-1.29 h 0.36 c 1.08,0 1.29,0.36 1.29,1.29 v 8.06 h 12.88 c 1.37,0 1.66,0.43 1.66,1.66 v 0.28 c 0,1.23 -0.29,1.66 -1.66,1.66 h -12.88 v 19.86 c 0,6.4 2.59,8.77 7.41,8.77 a 24.39,24.39 0 0 0 6.77,-0.86 c 1.08,-0.36 1.65,0.14 1.65,1.37 v 0.28 c 0,1.23 -0.43,1.66 -1.65,2 a 24.58,24.58 0 0 1 -6.69,0.86 c -7.56,0 -11.3,-4.17 -11.3,-12.44 V 14.31 h -4.6 c -0.94,0 -1.3,-0.36 -1.3,-1.3 z"
       id="path134" /><path
       class="cls-2"
       d="m 309,11.3 c 0,0.44 -0.1,0.54 -0.54,0.54 h -1.59 v 5 c 0,0.49 -0.12,0.61 -0.61,0.61 h -0.19 c -0.49,0 -0.61,-0.12 -0.61,-0.61 v -5 h -1.59 c -0.44,0 -0.55,-0.1 -0.55,-0.54 v -0.19 c 0,-0.44 0.11,-0.54 0.55,-0.54 h 4.59 c 0.44,0 0.54,0.1 0.54,0.54 z m 8.51,5.52 c 0,0.49 -0.12,0.61 -0.61,0.61 h -0.2 c -0.48,0 -0.61,-0.12 -0.61,-0.61 v -5.05 l -1.36,4.89 a 0.76,0.76 0 0 1 -0.86,0.67 0.83,0.83 0 0 1 -0.85,-0.67 l -1.42,-4.89 v 5.05 c 0,0.49 -0.12,0.61 -0.61,0.61 h -0.19 c -0.49,0 -0.61,-0.12 -0.61,-0.61 v -5.33 c 0,-0.64 0.26,-0.92 0.91,-0.92 h 0.56 c 0.61,0 1,0.38 1.2,1.13 l 1,3.92 1.1,-4.14 c 0.14,-0.72 0.51,-0.91 1.35,-0.91 h 0.26 a 0.81,0.81 0 0 1 0.91,0.92 z"
       id="path136" /><polygon
       class="cls-2"
       points="0,18.52 0,38.17 24.01,28.35 "
       id="polygon138" /><polygon
       class="cls-1"
       points="45.23,19.66 45.23,0 0,18.52 24.01,28.35 "
       id="polygon140" /><polygon
       class="cls-3"
       points="45.23,56.69 45.23,37.03 24.01,28.35 0,38.17 "
       id="polygon142" /><polygon
       class="cls-2"
       points="70.86,28.35 94.87,38.17 94.87,18.52 "
       id="polygon144" /><polygon
       class="cls-3"
       points="49.64,0 49.64,19.66 70.86,28.35 94.87,18.52 "
       id="polygon146" /><polygon
       class="cls-1"
       points="49.64,56.69 94.87,38.17 70.86,28.35 49.64,37.03 "
       id="polygon148" /></g><style
     type="text/css"
     id="style1003">
	.st0{display:none;}
	.st1{display:inline;}
	.st2{fill:#2453FF;}
</style></svg>
