<?xml version="1.0" encoding="UTF-8" standalone="no"?>
<svg
   viewBox="0 0 1568.19 615.9"
   version="1.1"
   id="svg551"
   sodipodi:docname="minio-suse_architecture_003_branded.svg"
   inkscape:version="1.2.1 (9c6d41e410, 2022-07-14)"
   xml:space="preserve"
   xmlns:inkscape="http://www.inkscape.org/namespaces/inkscape"
   xmlns:sodipodi="http://sodipodi.sourceforge.net/DTD/sodipodi-0.dtd"
   xmlns:xlink="http://www.w3.org/1999/xlink"
   xmlns="http://www.w3.org/2000/svg"
   xmlns:svg="http://www.w3.org/2000/svg"><sodipodi:namedview
     id="namedview553"
     pagecolor="#ffffff"
     bordercolor="#666666"
     borderopacity="1.0"
     inkscape:pageshadow="2"
     inkscape:pageopacity="0.0"
     inkscape:pagecheckerboard="0"
     showgrid="false"
     inkscape:zoom="0.77732931"
     inkscape:cx="859.35265"
     inkscape:cy="337.05149"
     inkscape:window-width="1920"
     inkscape:window-height="1051"
     inkscape:window-x="1920"
     inkscape:window-y="0"
     inkscape:window-maximized="1"
     inkscape:current-layer="svg551"
     inkscape:showpageshadow="2"
     inkscape:deskcolor="#d1d1d1" /><style
     id="style2"><![CDATA[.J,.L,.j,.D,.H{isolation:isolate}.o{stroke-miterlimit:10}.p{fill:none}.q{stroke-width:1.18}.r{stroke:#adadad}.s{fill:#adadad}.t{stroke:#c22e4a}.u{fill:#fff}.v{stroke-width:2.7}.w{stroke-dasharray:5.01 2}.x{stroke-width:2.43}.y{stroke-width:1.35}.z{stroke-width:1.08}.AA{stroke:#000}.AB{stroke-dasharray:4.96 1.98}.AC{fill:#c22e4a}.AD{clip-path:url(#A)}.AE{clip-path:url(#B)}.AF{clip-path:url(#C)}.AG{clip-path:url(#D)}.AH{stroke-dasharray:4.94 1.98}]]></style><defs
     id="defs35"><linearGradient
       inkscape:collect="always"
       id="linearGradient823"><stop
         style="stop-color:#333333;stop-opacity:1;"
         offset="0"
         id="stop819" /><stop
         style="stop-color:#333333;stop-opacity:0;"
         offset="1"
         id="stop821" /></linearGradient><clipPath
       id="A"
       transform="translate(-22.9 -42.2)"><path
         d="M880.1 269.7h299.1v113.4H880.1z"
         class="p"
         id="path4" /></clipPath><clipPath
       id="B"
       transform="translate(-22.9 -42.2)"><path
         d="M869.4 280.1h299.1v113.4H869.4z"
         class="p"
         id="path7" /></clipPath><clipPath
       id="C"
       transform="translate(-22.9 -42.2)"><path
         d="M859 290.6h299.1v113.5H859z"
         class="p"
         id="path10" /></clipPath><clipPath
       id="D"
       transform="translate(-22.9 -42.2)"><path
         d="M848.6 301h299.1v113.5H848.6z"
         class="p"
         id="path13" /></clipPath><path
       id="E"
       d="M1078.2 398.9v-3.6a.37.37 0 0 0-.1-.3c0-.1-.1-.2-.2-.3s-.2-.1-.3-.2-.2-.1-.3-.1h-5.7a.37.37 0 0 0-.3.1c-.1 0-.2.1-.3.2s-.1.2-.2.3-.1.2-.1.3v3.6h-2.1v-3.6a.37.37 0 0 0-.1-.3c0-.1-.1-.2-.2-.3s-.2-.1-.3-.2-.2-.1-.3-.1h-1.4a.37.37 0 0 0-.3.1c-.1 0-.2.1-.3.2s-.1.2-.2.3-.1.2-.1.3v3.6h-.4a.37.37 0 0 0-.3.1c-.1 0-.2.1-.3.2s-.1.2-.2.3-.1.2-.1.3v30.5a.79.79 0 0 0 .8.8h5.5a.47.47 0 0 0 .5-.5v-.5a.6.6 0 0 1 .1-.4c.1-.1.1-.2.2-.3s.2-.2.3-.2a.85.85 0 0 1 .8 0c.1.1.2.1.3.2s.2.2.2.3a.6.6 0 0 1 .1.4v.5a.47.47 0 0 0 .5.5h5.5a.37.37 0 0 0 .3-.1c.1 0 .2-.1.3-.2s.1-.2.2-.3a.37.37 0 0 0 .1-.3v-30.4a.37.37 0 0 0-.1-.3c0-.1-.1-.2-.2-.3s-.2-.1-.3-.2-.2-.1-.3-.1z" /><path
       id="F"
       d="M531.1 57.1v-4.2h.9v4.2m-.9 6.3v-4.2h.9v4.2m-.9 6.2v-4.2h.9v4.2m-.9 6.3v-4.2h.9v4.2m-.9 6.3V78h.9v4.2m-.9 6.3v-4.2h.9v4.2m-.9 6.3v-4.2h.9v4.2m-.9 6.3v-4.2h.9v4.2m-.9 6.3v-4.2h.9v4.2m-.9 6.3v-4.2h.9v4.2m-.9 6.3v-4.2h.9v4.2m-.9 6.3v-4.2h.9v4.2m-.9 6.3v-4.2h.9v4.2m-.9 6.3v-4.2h.9v4.2m-.9 6.2v-4.2h.9v4.2m-.9 6.3v-4.2h.9v4.2m-.9 6.3v-4.2h.9v4.2m-.9 6.3v-4.2h.9v4.2m-.9 6.3v-4.2h.9v4.2" /><path
       id="G"
       d="M697.7 166.1v4.2h-.9v-4.2m.9-6.3v4.2h-.9v-4.2m.9-6.3v4.2h-.9v-4.2m.9-6.3v4.2h-.9v-4.2m.9-6.2v4.2h-.9V141m.9-6.3v4.2h-.9v-4.2m.9-6.3v4.2h-.9v-4.2m.9-6.3v4.2h-.9v-4.2m.9-6.3v4.2h-.9v-4.2m.9-6.3v4.2h-.9v-4.2m.9-6.3v4.2h-.9v-4.2m.9-6.3v4.2h-.9v-4.2m.9-6.3v4.2h-.9v-4.2m.9-6.3v4.2h-.9v-4.2m.9-6.3v4.2h-.9V78m.9-6.3v4.2h-.9v-4.2m.9-6.2v4.2h-.9v-4.2m.9-6.3v4.2h-.9v-4.2m.9-6.3v4.2h-.9v-4.2" /><path
       id="H"
       d="M1244.7 311.3h-4.2v-.9h4.2m6.3.9h-4.2v-.9h4.2m6.4.9h-4.2v-.9h4.2m6.3.9h-4.2v-.9h4.2m6.3.9h-4.2v-.9h4.2m6.4.9h-4.2v-.9h4.2m6.3.9h-4.2v-.9h4.2m6.3.9h-4.2v-.9h4.2m6.4.9h-4.2v-.9h4.2m6.3.9h-4.2v-.9h4.2m6.3.9h-4.2v-.9h4.2m6.4.9h-4.2v-.9h4.2m6.3.9h-4.2v-.9h4.2m6.3.9h-4.2v-.9h4.2m6.4.9h-4.2v-.9h4.2m6.3.9h-4.2v-.9h4.2m6.3.9h-4.2v-.9h4.2m6.4.9h-4.2v-.9h4.2m6.3.9h-4.2v-.9h4.2m6.3.9h-4.2v-.9h4.2m6.4.9h-4.2v-.9h4.2m6.3.9h-4.2v-.9h4.2m6.3.9h-4.2v-.9h4.2m6.4.9h-4.2v-.9h4.2m6.3.9h-4.2v-.9h4.2" /><path
       id="I"
       d="M1392.5 184.5h4.2v.9h-4.2m-6.4-.9h4.2v.9h-4.2m-6.3-.9h4.2v.9h-4.2m-6.3-.9h4.2v.9h-4.2m-6.4-.9h4.2v.9h-4.2m-6.3-.9h4.2v.9h-4.2m-6.3-.9h4.2v.9h-4.2m-6.4-.9h4.2v.9h-4.2m-6.3-.9h4.2v.9h-4.2m-6.3-.9h4.2v.9h-4.2m-6.4-.9h4.2v.9h-4.2m-6.3-.9h4.2v.9h-4.2m-6.3-.9h4.2v.9h-4.2m-6.4-.9h4.2v.9h-4.2m-6.3-.9h4.2v.9h-4.2m-6.3-.9h4.2v.9h-4.2m-6.4-.9h4.2v.9h-4.2m-6.3-.9h4.2v.9h-4.2m-6.3-.9h4.2v.9h-4.2m-6.4-.9h4.2v.9h-4.2m-6.3-.9h4.2v.9h-4.2m-6.3-.9h4.2v.9h-4.2m-6.4-.9h4.2v.9h-4.2m-6.3-.9h4.2v.9h-4.2m-6.3-.9h4.2v.9h-4.2" /><path
       id="J"
       d="M788.1 90.5a.37.37 0 0 1-.1.3c0 .1-.1.2-.2.3s-.2.1-.3.2-.2.1-.3.1a.37.37 0 0 1-.3-.1c-.1 0-.2-.1-.3-.2s-.1-.2-.2-.3-.1-.2-.1-.3a.37.37 0 0 1 .1-.3c0-.1.1-.2.2-.3s.2-.1.3-.2.2-.1.3-.1a.37.37 0 0 1 .3.1c.1 0 .2.1.3.2s.1.2.2.3.1.1.1.3z" /><path
       id="K"
       d="M1454.3 553.6v-2a5.7 5.7 0 0 0-.1-1.3 6.47 6.47 0 0 0-.4-1.3l-.6-1.2a3.92 3.92 0 0 0-.8-1 7 7 0 0 0-1-.8 6.72 6.72 0 0 0-1.2-.6 5 5 0 0 0-1.3-.4 8.5 8.5 0 0 0-2.6 0 6.47 6.47 0 0 0-1.3.4l-1.2.6a3.92 3.92 0 0 0-1 .8 7 7 0 0 0-.8 1 6.72 6.72 0 0 0-.6 1.2 5 5 0 0 0-.4 1.3 5.7 5.7 0 0 0-.1 1.3v2z" /><path
       id="L"
       d="M1081.9 507.8h-20.8a2.2 2.2 0 0 1-.8-.1c-.3-.1-.5-.1-.8-.2a1.61 1.61 0 0 1-.7-.4c-.2-.2-.4-.3-.6-.5a2.65 2.65 0 0 1-.5-.6 2.51 2.51 0 0 1-.4-.7 1.88 1.88 0 0 1-.2-.8c0-.3-.1-.5-.1-.8v-28.3a2.2 2.2 0 0 1 .1-.8c.1-.3.1-.5.2-.8a1.61 1.61 0 0 1 .4-.7c.2-.2.3-.4.5-.6a2.65 2.65 0 0 1 .6-.5 2.51 2.51 0 0 1 .7-.4 2.35 2.35 0 0 1 .8-.2 2.2 2.2 0 0 1 .8-.1h20.8a2.2 2.2 0 0 1 .8.1c.3.1.5.1.8.2a1.61 1.61 0 0 1 .7.4c.2.2.4.3.6.5a2.65 2.65 0 0 1 .5.6c.1.2.3.5.4.7a2.35 2.35 0 0 1 .2.8 2.2 2.2 0 0 1 .1.8v28.3a2.2 2.2 0 0 1-.1.8c-.1.3-.1.5-.2.8a1.61 1.61 0 0 1-.4.7c-.2.2-.3.4-.5.6a2.65 2.65 0 0 1-.6.5 2.51 2.51 0 0 1-.7.4 2.35 2.35 0 0 1-.8.2 2 2 0 0 1-.8.1z" /><path
       id="M"
       d="M1084.3 474a.6.6 0 0 1-.1.4c-.1.1-.1.2-.2.3s-.2.2-.3.2a.85.85 0 0 1-.8 0c-.1-.1-.2-.1-.3-.2s-.2-.2-.2-.3a.85.85 0 0 1 0-.8c.1-.1.1-.2.2-.3s.2-.2.3-.2a.85.85 0 0 1 .8 0c.1.1.2.1.3.2s.2.2.2.3.1.2.1.4z" /><path
       id="N"
       d="M1084.3 504.9a.6.6 0 0 1-.1.4c-.1.1-.1.2-.2.3s-.2.2-.3.2-.3.1-.4.1a.6.6 0 0 1-.4-.1c-.1-.1-.2-.1-.3-.2s-.2-.2-.2-.3a.85.85 0 0 1 0-.8c.1-.1.1-.2.2-.3s.2-.2.3-.2a.85.85 0 0 1 .8 0c.1.1.2.1.3.2s.2.2.2.3.1.2.1.4z" /><path
       id="O"
       d="M1073.4 500.9a1.7 1.7 0 0 1-.1.7 1.84 1.84 0 0 1-1 1 2.5 2.5 0 0 1-1.4 0 1.84 1.84 0 0 1-1-1 1.7 1.7 0 0 1-.1-.7v-6.6l1.9-1.7 1.9 1.7v6.6z" /><path
       id="P"
       d="M588.7 503.69a3.28 3.28 0 0 0-3.3 3v1.6a2.9 2.9 0 0 0 2.9 2.9h4.8a.62.62 0 0 1 .7.7v1c0 .1 0 1.1-.7 1.1h-6.6a1 1 0 0 0-1.1 1.1v.3a1.11 1.11 0 0 0 1.1 1.1h6.9a2.94 2.94 0 0 0 3-3.2v-1.7a2.54 2.54 0 0 0-2.6-2.7h-4.7a.92.92 0 0 1-1-.9v-.9c0-.6.4-.9 1.1-.9h5.3a1.11 1.11 0 0 0 1.1-1.1v-.29a1.13 1.13 0 0 0-1.2-1.1z" /><path
       id="Q"
       d="M241.42 494.21a4.81 4.81 0 0 1 0 .7h-5.49a1.87 1.87 0 0 0 2 1.61 3.15 3.15 0 0 0 2-.74l1.22 1.34a4.67 4.67 0 0 1-3.3 1.17 4.08 4.08 0 0 1-.1-8.15 3.73 3.73 0 0 1 3.67 4.07zm-5.52-.72h3.43a1.72 1.72 0 0 0-3.43 0z" /><path
       id="R"
       d="M265.19 494.8a3.33 3.33 0 0 1-3.66 3.5c-1.94 0-3.67-1-3.67-3.5v-4.44h2.09v4.26c0 1.24.68 1.74 1.58 1.74s1.58-.5 1.58-1.74v-4.26h2.08z" /><path
       id="S"
       d="M275.43 494.22a3.83 3.83 0 0 1-3.75 4.07 2.85 2.85 0 0 1-2.32-1v.85h-2v-11.56h2.08v4.57a2.82 2.82 0 0 1 2.27-1 3.84 3.84 0 0 1 3.72 4.07zm-6.13 0a2 2 0 0 0 3.995-.183 2 2 0 0 0-3.461-1.322 2 2 0 0 0-.534 1.506z" /><path
       id="T"
       d="M309.43 494.21a4.81 4.81 0 0 1 0 .7h-5.53a1.87 1.87 0 0 0 2 1.61 3.15 3.15 0 0 0 2-.74l1.22 1.34a4.69 4.69 0 0 1-3.3 1.17 4.08 4.08 0 0 1-.1-8.15c2.18 0 3.7 1.66 3.71 4.07zm-5.52-.72h3.43a1.72 1.72 0 0 0-3.43 0z" /><path
       id="U"
       d="M268.18 503.8a1.33 1.33 0 0 1-2.66-.007 1.33 1.33 0 0 1 1.32-1.333 1.31 1.31 0 0 1 1.34 1.34zm-.28 10.28h-2.09v-7.74h2.09z" /><path
       id="V"
       d="M97.84 507.6l-1.5 1.26a2.14 2.14 0 0 0-1.66-.78 2.15 2.15 0 0 0 0 4.27 2.25 2.25 0 0 0 1.69-.78l1.49 1.27a3.84 3.84 0 0 1-3.11 1.45 4.08 4.08 0 0 1-3.701-6.173 4.08 4.08 0 0 1 3.701-1.977 3.8 3.8 0 0 1 3.09 1.46z" /><path
       id="W"
       d="M92.43 431.8l-5.9-1.82-5.83 1.82 5.83 1.56 5.9-1.56" /><rect
       x="32.189732"
       y="176.45845"
       width="226.24052"
       height="104.75513"
       id="rect843" /><linearGradient
       inkscape:collect="always"
       xlink:href="#linearGradient823"
       id="linearGradient825"
       x1="403.94751"
       y1="239.28389"
       x2="305.96924"
       y2="317.52002"
       gradientUnits="userSpaceOnUse" /></defs><path
     d="M1225.8 528.9v2.1h-2.1"
     class="o p q r"
     id="path37" /><path
     d="M540 531.5h-4.2v-.9h4.2m6.3.9h-4.2v-.9h4.2m6.3.9h-4.2v-.9h4.2m6.3.9h-4.2v-.9h4.2m6.3.9H561v-.9h4.2m6.3.9h-4.2v-.9h4.2m6.4.9h-4.2v-.9h4.2m6.3.9H580v-.9h4.2m6.3.9h-4.2v-.9h4.2m6.3.9h-4.2v-.9h4.2m6.3.9h-4.2v-.9h4.2m6.3.9h-4.2v-.9h4.2m6.3.9h-4.2v-.9h4.2m6.3.9h-4.2v-.9h4.2m6.3.9h-4.2v-.9h4.2m6.4.9h-4.2v-.9h4.2m6.3.9h-4.2v-.9h4.2m6.3.9h-4.2v-.9h4.2m6.3.9h-4.2v-.9h4.2m6.3.9h-4.2v-.9h4.2m6.3.9H662v-.9h4.2m6.3.9h-4.2v-.9h4.2m6.3.9h-4.2v-.9h4.2m6.3.9h-4.2v-.9h4.2m6.4.9h-4.2v-.9h4.2m6.3.9h-4.2v-.9h4.2m6.3.9h-4.2v-.9h4.2m6.3.9h-4.2v-.9h4.2m6.3.9h-4.2v-.9h4.2m6.3.9h-4.2v-.9h4.2m6.3.9h-4.2v-.9h4.2m6.3.9h-4.2v-.9h4.2m6.3.9h-4.2v-.9h4.2m6.4.9h-4.2v-.9h4.2m6.3.9h-4.2v-.9h4.2m6.3.9h-4.2v-.9h4.2m6.3.9H763v-.9h4.2m6.3.9h-4.2v-.9h4.2m6.3.9h-4.2v-.9h4.2m6.3.9h-4.2v-.9h4.2m6.3.9h-4.2v-.9h4.2m6.3.9h-4.2v-.9h4.2m6.3.9h-4.2v-.9h4.2m6.4.9h-4.2v-.9h4.2m6.3.9h-4.2v-.9h4.2m6.3.9h-4.2v-.9h4.2m6.3.9h-4.2v-.9h4.2m6.3.9h-4.2v-.9h4.2m6.3.9h-4.2v-.9h4.2m6.3.9H845v-.9h4.2m6.3.9h-4.2v-.9h4.2m6.3.9h-4.2v-.9h4.2m6.4.9H864v-.9h4.2m6.3.9h-4.2v-.9h4.2m6.3.9h-4.2v-.9h4.2m6.3.9h-4.2v-.9h4.2m6.3.9h-4.2v-.9h4.2m6.3.9h-4.2v-.9h4.2m6.3.9h-4.2v-.9h4.2m6.3.9h-4.2v-.9h4.2m6.3.9h-4.2v-.9h4.2m6.4.9h-4.2v-.9h4.2m6.3.9h-4.2v-.9h4.2m6.3.9h-4.2v-.9h4.2m6.3.9h-4.2v-.9h4.2m6.3.9H946v-.9h4.2m6.3.9h-4.2v-.9h4.2m6.3.9h-4.2v-.9h4.2m6.3.9h-4.2v-.9h4.2m6.3.9h-4.2v-.9h4.2m6.4.9h-4.2v-.9h4.2m6.3.9h-4.2v-.9h4.2m6.3.9h-4.2v-.9h4.2m6.3.9h-4.2v-.9h4.2m6.3.9h-4.2v-.9h4.2m6.3.9h-4.2v-.9h4.2m6.3.9h-4.2v-.9h4.2m6.3.9h-4.2v-.9h4.2m6.3.9h-4.2v-.9h4.2m6.4.9h-4.2v-.9h4.2m6.3.9h-4.2v-.9h4.2m6.3.9h-4.2v-.9h4.2m6.3.9h-4.2v-.9h4.2m6.3.9h-4.2v-.9h4.2m6.3.9h-4.2v-.9h4.2m6.3.9h-4.2v-.9h4.2m6.3.9h-4.2v-.9h4.2m6.3.9h-4.2v-.9h4.2m6.4.9h-4.2v-.9h4.2m6.3.9h-4.2v-.9h4.2m6.3.9h-4.2v-.9h4.2m6.3.9h-4.2v-.9h4.2m6.3.9h-4.2v-.9h4.2m6.3.9h-4.2v-.9h4.2m6.3.9h-4.2v-.9h4.2m6.3.9h-4.2v-.9h4.2m6.3.9h-4.2v-.9h4.2m6.4.9h-4.2v-.9h4.2m6.3.9h-4.2v-.9h4.2m6.3.9h-4.2v-.9h4.2m6.3.9h-4.2v-.9h4.2m6.3.9h-4.2v-.9h4.2m6.3.9h-4.2v-.9h4.2m6.3.9h-4.2v-.9h4.2m6.3.9h-4.2v-.9h4.2m6.3.9h-4.2v-.9h4.2m6.3.9h-4.2v-.9h4.2m6.4.9h-4.2v-.9h4.2m6.3.9h-4.2v-.9h4.2"
     class="s"
     id="path39" /><path
     d="M533.7 531h-2.1v-2.1"
     class="o p q r"
     id="path41" /><path
     d="M531.1 193.4v-4.2h.9v4.2m-.9 6.3v-4.2h.9v4.2m-.9 6.3v-4.2h.9v4.2m-.9 6.3v-4.2h.9v4.2m-.9 6.3v-4.2h.9v4.2m-.9 6.2v-4.2h.9v4.2m-.9 6.3v-4.2h.9v4.2m-.9 6.3v-4.2h.9v4.2m-.9 6.3v-4.2h.9v4.2m-.9 6.3v-4.2h.9v4.2m-.9 6.3v-4.2h.9v4.2m-.9 6.3v-4.2h.9v4.2m-.9 6.3v-4.2h.9v4.2m-.9 6.3V271h.9v4.2m-.9 6.3v-4.2h.9v4.2m-.9 6.3v-4.2h.9v4.2m-.9 6.3v-4.2h.9v4.2m-.9 6.2v-4.2h.9v4.2m-.9 6.3v-4.2h.9v4.2m-.9 6.3v-4.2h.9v4.2m-.9 6.3V315h.9v4.2m-.9 6.3v-4.2h.9v4.2m-.9 6.3v-4.2h.9v4.2m-.9 6.3v-4.2h.9v4.2m-.9 6.3v-4.2h.9v4.2m-.9 6.3v-4.2h.9v4.2m-.9 6.3v-4.2h.9v4.2m-.9 6.3v-4.2h.9v4.2m-.9 6.3v-4.2h.9v4.2m-.9 6.2v-4.2h.9v4.2m-.9 6.3v-4.2h.9v4.2m-.9 6.3v-4.2h.9v4.2m-.9 6.3v-4.2h.9v4.2m-.9 6.3v-4.2h.9v4.2m-.9 6.3v-4.2h.9v4.2m-.9 6.3v-4.2h.9v4.2m-.9 6.3v-4.2h.9v4.2m-.9 6.3V422h.9v4.2m-.9 6.3v-4.2h.9v4.2m-.9 6.3v-4.2h.9v4.2m-.9 6.3v-4.2h.9v4.2m-.9 6.2v-4.2h.9v4.2m-.9 6.3v-4.2h.9v4.2m-.9 6.3v-4.2h.9v4.2m-.9 6.3V466h.9v4.2m-.9 6.3v-4.2h.9v4.2m-.9 6.3v-4.2h.9v4.2m-.9 6.3v-4.2h.9v4.2m-.9 6.3v-4.2h.9v4.2m-.9 6.3v-4.2h.9v4.2m-.9 6.3v-4.2h.9v4.2m-.9 6.3v-4.2h.9v4.2m-.9 6.3v-4.2h.9v4.2m-.9 6.2v-4.2h.9v4.2"
     class="s"
     id="path43" /><path
     d="M531.6 187.1V185h2.1"
     class="o p q r"
     id="path45" /><path
     d="M1217.4 184.5h4.2v.9h-4.2m-6.3-.9h4.2v.9h-4.2m-6.4-.9h4.2v.9h-4.2m-6.3-.9h4.2v.9h-4.2m-6.3-.9h4.2v.9h-4.2m-6.3-.9h4.2v.9h-4.2m-6.3-.9h4.2v.9h-4.2m-6.3-.9h4.2v.9h-4.2m-6.3-.9h4.2v.9h-4.2m-6.3-.9h4.2v.9h-4.2m-6.3-.9h4.2v.9h-4.2m-6.4-.9h4.2v.9h-4.2m-6.3-.9h4.2v.9h-4.2m-6.3-.9h4.2v.9h-4.2m-6.3-.9h4.2v.9h-4.2m-6.3-.9h4.2v.9h-4.2m-6.3-.9h4.2v.9h-4.2m-6.3-.9h4.2v.9h-4.2m-6.3-.9h4.2v.9h-4.2m-6.3-.9h4.2v.9h-4.2m-6.4-.9h4.2v.9h-4.2m-6.3-.9h4.2v.9h-4.2m-6.3-.9h4.2v.9h-4.2m-6.3-.9h4.2v.9h-4.2m-6.3-.9h4.2v.9h-4.2m-6.3-.9h4.2v.9h-4.2m-6.3-.9h4.2v.9h-4.2m-6.3-.9h4.2v.9h-4.2m-6.3-.9h4.2v.9h-4.2m-6.4-.9h4.2v.9h-4.2m-6.3-.9h4.2v.9h-4.2m-6.3-.9h4.2v.9h-4.2m-6.3-.9h4.2v.9h-4.2m-6.3-.9h4.2v.9h-4.2m-6.3-.9h4.2v.9h-4.2m-6.3-.9h4.2v.9h-4.2m-6.3-.9h4.2v.9h-4.2m-6.3-.9h4.2v.9h-4.2m-6.4-.9h4.2v.9h-4.2m-6.3-.9h4.2v.9h-4.2m-6.3-.9h4.2v.9h-4.2m-6.3-.9h4.2v.9h-4.2m-6.3-.9h4.2v.9h-4.2m-6.3-.9h4.2v.9H946m-6.3-.9h4.2v.9h-4.2m-6.3-.9h4.2v.9h-4.2m-6.3-.9h4.2v.9h-4.2m-6.3-.9h4.2v.9h-4.2m-6.4-.9h4.2v.9h-4.2m-6.3-.9h4.2v.9h-4.2m-6.3-.9h4.2v.9h-4.2m-6.3-.9h4.2v.9h-4.2m-6.3-.9h4.2v.9h-4.2m-6.3-.9h4.2v.9h-4.2m-6.3-.9h4.2v.9h-4.2m-6.3-.9h4.2v.9h-4.2m-6.3-.9h4.2v.9H864m-6.4-.9h4.2v.9h-4.2m-6.3-.9h4.2v.9h-4.2m-6.3-.9h4.2v.9H845m-6.3-.9h4.2v.9h-4.2m-6.3-.9h4.2v.9h-4.2m-6.3-.9h4.2v.9h-4.2m-6.3-.9h4.2v.9h-4.2m-6.3-.9h4.2v.9h-4.2m-6.3-.9h4.2v.9h-4.2m-6.4-.9h4.2v.9h-4.2m-6.3-.9h4.2v.9h-4.2m-6.3-.9h4.2v.9h-4.2m-6.3-.9h4.2v.9h-4.2m-6.3-.9h4.2v.9h-4.2m-6.3-.9h4.2v.9h-4.2m-6.3-.9h4.2v.9H763m-6.3-.9h4.2v.9h-4.2m-6.3-.9h4.2v.9h-4.2m-6.4-.9h4.2v.9H744m-6.3-.9h4.2v.9h-4.2m-6.3-.9h4.2v.9h-4.2m-6.3-.9h4.2v.9h-4.2m-6.3-.9h4.2v.9h-4.2m-6.3-.9h4.2v.9h-4.2m-6.3-.9h4.2v.9h-4.2m-6.3-.9h4.2v.9h-4.2m-6.3-.9h4.2v.9h-4.2m-6.4-.9h4.2v.9h-4.2m-6.3-.9h4.2v.9h-4.2m-6.3-.9h4.2v.9h-4.2m-6.3-.9h4.2v.9h-4.2m-6.3-.9h4.2v.9H662m-6.3-.9h4.2v.9h-4.2m-6.3-.9h4.2v.9h-4.2m-6.3-.9h4.2v.9h-4.2m-6.3-.9h4.2v.9h-4.2m-6.4-.9h4.2v.9h-4.2m-6.3-.9h4.2v.9h-4.2m-6.3-.9h4.2v.9h-4.2m-6.3-.9h4.2v.9h-4.2m-6.3-.9h4.2v.9h-4.2m-6.3-.9h4.2v.9h-4.2m-6.3-.9h4.2v.9h-4.2m-6.3-.9h4.2v.9h-4.2m-6.3-.9h4.2v.9H580m-6.4-.9h4.2v.9h-4.2m-6.3-.9h4.2v.9h-4.2m-6.3-.9h4.2v.9H561m-6.3-.9h4.2v.9h-4.2m-6.3-.9h4.2v.9h-4.2m-6.3-.9h4.2v.9h-4.2m-6.3-.9h4.2v.9h-4.2"
     class="s"
     id="path47" /><path
     d="M1223.7 185h2.1v2.1"
     class="o p q r"
     id="path49" /><path
     d="M1226.2 522.7v4.2h-.9v-4.2m.9-6.3v4.2h-.9v-4.2m.9-6.3v4.2h-.9v-4.2m.9-6.3v4.2h-.9v-4.2m.9-6.3v4.2h-.9v-4.2m.9-6.3v4.2h-.9v-4.2m.9-6.3v4.2h-.9v-4.2m.9-6.3v4.2h-.9v-4.2m.9-6.3v4.2h-.9v-4.2m.9-6.3v4.2h-.9V466m.9-6.3v4.2h-.9v-4.2m.9-6.3v4.2h-.9v-4.2m.9-6.2v4.2h-.9v-4.2m.9-6.3v4.2h-.9v-4.2m.9-6.3v4.2h-.9v-4.2m.9-6.3v4.2h-.9v-4.2m.9-6.3v4.2h-.9V422m.9-6.3v4.2h-.9v-4.2m.9-6.3v4.2h-.9v-4.2m.9-6.3v4.2h-.9v-4.2m.9-6.3v4.2h-.9v-4.2m.9-6.3v4.2h-.9v-4.2m.9-6.3v4.2h-.9v-4.2m.9-6.3v4.2h-.9v-4.2m.9-6.2v4.2h-.9v-4.2m.9-6.3v4.2h-.9v-4.2m.9-6.3v4.2h-.9v-4.2m.9-6.3v4.2h-.9v-4.2m.9-6.3v4.2h-.9v-4.2m.9-6.3v4.2h-.9v-4.2m.9-6.3v4.2h-.9v-4.2m.9-6.3v4.2h-.9v-4.2m.9-6.3v4.2h-.9v-4.2m.9-6.3v4.2h-.9V315m.9-6.3v4.2h-.9v-4.2m.9-6.3v4.2h-.9v-4.2m.9-6.3v4.2h-.9v-4.2m.9-6.2v4.2h-.9v-4.2m.9-6.3v4.2h-.9v-4.2m.9-6.3v4.2h-.9v-4.2m.9-6.3v4.2h-.9V271m.9-6.3v4.2h-.9v-4.2m.9-6.3v4.2h-.9v-4.2m.9-6.3v4.2h-.9v-4.2m.9-6.3v4.2h-.9v-4.2m.9-6.3v4.2h-.9v-4.2m.9-6.3v4.2h-.9v-4.2m.9-6.3v4.2h-.9v-4.2m.9-6.3v4.2h-.9v-4.2m.9-6.2v4.2h-.9v-4.2m.9-6.3v4.2h-.9v-4.2m.9-6.3v4.2h-.9v-4.2m.9-6.3v4.2h-.9v-4.2m.9-6.3v4.2h-.9v-4.2"
     class="s"
     id="path51" /><g
     class="D"
     opacity=".05"
     id="g61"><g
       class="AD u"
       clip-path="url(#A)"
       id="g55"><path
         d="M867.3 237.1h278.8v93.6H867.3z"
         id="path53" /></g><g
       class="AD o p t x"
       clip-path="url(#A)"
       id="g59"><path
         d="M867.3 237.1h278.8v93.6H867.3z"
         id="path57" /></g></g><g
     class="H"
     opacity=".2"
     id="g71"><g
       class="AE u"
       clip-path="url(#B)"
       id="g65"><path
         d="M856.8 247.6h278.8v93.6H856.8z"
         id="path63" /></g><g
       class="AE o p t x"
       clip-path="url(#B)"
       id="g69"><path
         d="M856.8 247.6h278.8v93.6H856.8z"
         id="path67" /></g></g><g
     class="J"
     opacity=".4"
     id="g81"><g
       class="AF u"
       clip-path="url(#C)"
       id="g75"><path
         d="M846.3 258.1h278.8v93.6H846.3z"
         id="path73" /></g><g
       class="AF o p t x"
       clip-path="url(#C)"
       id="g79"><path
         d="M846.3 258.1h278.8v93.6H846.3z"
         id="path77" /></g></g><g
     class="L"
     opacity=".6"
     id="g91"><g
       class="AG u"
       clip-path="url(#D)"
       id="g85"><path
         d="M835.8 268.6h278.8v93.6H835.8z"
         id="path83" /></g><g
       class="AG o p t x"
       clip-path="url(#D)"
       id="g89"><path
         d="M835.8 268.6h278.8v93.6H835.8z"
         id="path87" /></g></g><path
     d="M828.3 279.9H1105v93.6H828.3z"
     class="u"
     id="path93" /><path
     d="M828.3 279.9H1105v93.6H828.3z"
     class="o p t x"
     id="path95" /><path
     d="M598.7 279.9h216.9v93.6H598.7z"
     class="u"
     id="path97" /><path
     d="M598.7 279.9h216.9v93.6H598.7z"
     stroke="#122742"
     class="o p v"
     id="path99" /><path
     d="M681.5 312.6c-2.4 0-4.3 1.1-4.3 3s1.9 3 4.3 3 4.3-1 4.3-3-1.9-3-4.3-3zm0 7c-3.3 0-5.6-1.6-5.6-4s2.3-4 5.6-4 5.6 1.6 5.6 4-2.3 4-5.6 4zm-8.3-.1v-7.7h1.2v7.7zm-2.1-7.8h-2.7v3.5c0 .2-.2.3-.4.2l-6.9-3.7a.37.37 0 0 0-.3-.1h0a.68.68 0 0 0-.7.7v7h2.7v-3.5c0-.2.2-.3.4-.2l7 3.7c.1.1.2.1.4.1a.76.76 0 0 0 .4-.1l.3-.3c.1-.1.1-.2.1-.4l-.3-6.9zm-19.1.1l-5.4 3.3c-.1.1-.2.1-.2 0l-5.3-3.3c-.1-.1-.2-.1-.4-.1h0a.68.68 0 0 0-.7.7v7h2.6v-3.3c0-.2.2-.3.4-.2l3 1.8a.9.9 0 0 0 1 0l3.2-1.9a.19.19 0 0 1 .3 0c.1.1.1.1.1.2v3.3h2.6v-7a.68.68 0 0 0-.7-.7h0c-.2.1-.3.1-.5.2zm3.2-.1h2.6v7.7h-2.6zm109.3 14.6v5.8h4.6c2.5 0 3.8-1 3.8-3s-1.3-2.9-3.8-2.9h-4.6zm4.7-2c3.9 0 6.1 1.8 6.1 4.9s-2.3 4.9-6 4.9h-.2l6.1 7.5h-2.7l-5.9-7.5h-2v7.5h-2.2v-17.3zm-26.4 8.6a6.7 6.7 0 0 0 13.399-.133 6.7 6.7 0 0 0-6.699-6.667 6.49 6.49 0 0 0-6.7 6.8zm15.6 0a9 9 0 0 1-15.328 6.499A9 9 0 0 1 749.4 324a8.64 8.64 0 0 1 9 8.9zm-19.4-6.6h-5.9v15.2h-2.2v-15.2H725v-2.1h14v2.1zm-25.4 8.5h6.7l-3.4-8.4-3.3 8.4zm11.8 6.8h-2.3l-1.9-4.7h-8.4l-1.9 4.7h-2.3l7-17.3h2.7l7.1 17.3zm-29.3-15.3v5.8h4.6c2.5 0 3.8-1 3.8-3s-1.3-2.9-3.8-2.9h-4.6zm4.7-2c3.9 0 6.1 1.8 6.1 4.9s-2.3 4.9-6 4.9h-.1l6.1 7.5h-2.8l-5.9-7.5h-2v7.5H694v-17.3zm-11.3 17.3h-12.3v-17.3h12.2v2h-10v5.5h9.7v2.1h-9.7v5.6h10.1zM663 326.3v6.3h4.3c2.6 0 3.9-1 3.9-3.1s-1.3-3.1-3.9-3.1H663zm0 8.4v6.9h-2.2v-17.3h6.6c3.9 0 6.1 2 6.1 5.2s-2.2 5.2-6.1 5.2zm-21.8-1.8a6.7 6.7 0 0 0 13.399-.133 6.7 6.7 0 0 0-6.699-6.667 6.49 6.49 0 0 0-6.7 6.8zm15.7 0a9 9 0 0 1-15.328 6.499A9 9 0 0 1 647.9 324a8.64 8.64 0 0 1 9 8.9z"
     fill="#122742"
     id="path101" /><path
     d="M890.4 293h3l-1.5-3.7zm5 2.8h-.9l-.8-2h-3.6l-.8 2h-.9l3-7.3h1l3 7.3zm-9.9-6.5h-2.6v6.5h-.8v-6.5h-2.6v-.8h5.9v.8zm-7.2 6.5h-.8l-4.6-5.9v5.9h-.8v-7.3h.8l4.5 5.9v-5.9h.8v7.3zm-12.4-2.8h3l-1.5-3.7zm5 2.8h-.9l-.8-2h-3.6l-.8 2h-.9l3-7.3h1l3 7.3zm-8.3 0h-.8l-4.5-5.9v5.9h-.8v-7.3h.8l4.6 5.9v-5.9h.8v7.3zm-8.1 0h-5.2v-7.3h5.1v.8h-4.3v2.5h4.1v.8h-4.1v2.5h4.3v.7zm-6.4-6.5h-2.6v6.5h-.8v-6.5h-2.6v-.8h5.9v.8z"
     id="path103" /><g
     class="o p y"
     id="g111"><path
       d="M828.3 384.8H1105v62.1H828.3z"
       stroke="#df9d9b"
       id="path105" /><path
       d="M828.3 458.2H1105v62.1H828.3z"
       stroke="#9bdfbf"
       id="path107" /><path
       d="M828.3 542.1H1105v62.1H828.3z"
       stroke="#9bbbdf"
       id="path109" /></g><use
     xlink:href="#E"
     class="u"
     id="use115" /><g
     class="o p"
     id="g125"><g
       stroke="#c46c6c"
       id="g121"><use
         xlink:href="#E"
         class="x"
         id="use117" /><path
         d="M1075.9 406.7h-3.3a.6.6 0 0 1-.4-.1c-.1-.1-.2-.1-.3-.2s-.2-.2-.2-.3a.6.6 0 0 1-.1-.4v-1.1a.6.6 0 0 1 .1-.4c.1-.1.1-.2.2-.3s.2-.2.3-.2.3-.1.4-.1h3.3a.6.6 0 0 1 .4.1c.1.1.2.1.3.2s.2.2.2.3a.6.6 0 0 1 .1.4v1.1a.6.6 0 0 1-.1.4c-.1.1-.1.2-.2.3s-.2.2-.3.2a.6.6 0 0 1-.4.1zm0 19h-7.4a.6.6 0 0 1-.4-.1c-.1-.1-.2-.1-.3-.2s-.2-.2-.2-.3a.6.6 0 0 1-.1-.4v-15.2a.6.6 0 0 1 .1-.4c.1-.1.1-.2.2-.3s.2-.2.3-.2a.6.6 0 0 1 .4-.1h7.4a.6.6 0 0 1 .4.1c.1.1.2.1.3.2s.2.2.2.3.1.3.1.4v15.2a.6.6 0 0 1-.1.4c-.1.1-.1.2-.2.3s-.2.2-.3.2-.3.1-.4.1zm-1.4-26a1.11 1.11 0 0 1-1.1-1.1v-1.5a.6.6 0 0 1 .1-.4c.1-.1.1-.3.2-.4a.52.52 0 0 1 .4-.2.85.85 0 0 1 .8 0c.1.1.3.1.4.2a.52.52 0 0 1 .2.4c0 .2.1.3.1.4v1.5a1.11 1.11 0 0 1-1.1 1.1z"
         class="z"
         id="path119" /></g><path
       d="M697.3 172.4v2.1h-2.1"
       class="q r"
       id="path123" /></g><path
     d="M540.1 175h-4.2v-.9h4.2m6.3.9h-4.2v-.9h4.2m6.4.9h-4.2v-.9h4.2m6.4.9H555v-.9h4.2m6.4.9h-4.2v-.9h4.2m6.3.9h-4.2v-.9h4.2m6.4.9h-4.2v-.9h4.2m6.4.9h-4.2v-.9h4.2m6.4.9h-4.2v-.9h4.2m6.3.9h-4.2v-.9h4.2m6.4.9h-4.2v-.9h4.2m6.4.9H606v-.9h4.2m6.3.9h-4.2v-.9h4.2m6.4.9h-4.2v-.9h4.2m6.4.9h-4.2v-.9h4.2m6.4.9h-4.2v-.9h4.2m6.3.9h-4.2v-.9h4.2m6.4.9h-4.2v-.9h4.2m6.4.9h-4.2v-.9h4.2m6.4.9H657v-.9h4.2m6.3.9h-4.2v-.9h4.2m6.4.9h-4.2v-.9h4.2m6.4.9h-4.2v-.9h4.2m6.4.9h-4.2v-.9h4.2m6.3.9h-4.2v-.9h4.2"
     class="s"
     id="path127" /><path
     d="M533.7 174.5h-2.1v-2.1"
     class="o p q r"
     id="path129" /><use
     xlink:href="#F"
     class="s"
     id="use131" /><path
     d="M531.6 50.8v-2.1h2.1"
     class="o p q r"
     id="path133" /><path
     d="M688.8 48.2h4.2v.9h-4.2m-6.4-.9h4.2v.9h-4.2m-6.4-.9h4.2v.9H676m-6.3-.9h4.2v.9h-4.2m-6.4-.9h4.2v.9h-4.2m-6.4-.9h4.2v.9h-4.2m-6.4-.9h4.2v.9h-4.2m-6.3-.9h4.2v.9h-4.2m-6.4-.9h4.2v.9h-4.2m-6.4-.9h4.2v.9h-4.2m-6.4-.9h4.2v.9H625m-6.3-.9h4.2v.9h-4.2m-6.4-.9h4.2v.9h-4.2m-6.4-.9h4.2v.9h-4.2m-6.3-.9h4.2v.9h-4.2m-6.4-.9h4.2v.9h-4.2m-6.4-.9h4.2v.9h-4.2m-6.4-.9h4.2v.9h-4.2m-6.3-.9h4.2v.9h-4.2m-6.4-.9h4.2v.9h-4.2m-6.4-.9h4.2v.9h-4.2m-6.4-.9h4.2v.9h-4.2m-6.3-.9h4.2v.9h-4.2m-6.4-.9h4.2v.9h-4.2m-6.4-.9h4.2v.9h-4.2"
     class="s"
     id="path135" /><path
     d="M695.2 48.7h2.1v2.1"
     class="o p q r"
     id="path137" /><use
     xlink:href="#G"
     class="s"
     id="use139" /><path
     d="M682.4 30.5v3.6h2.8q2.4 0 2.4-1.8 0-1.8-2.4-1.8zm2.8-1.1c2.3 0 3.6 1 3.6 2.9s-1.4 2.9-3.6 2.9h-.1l3.7 4.5h-1.5l-3.6-4.5h-1.3v4.5h-1.2V29.4zm-6.7 10.3h-7.2V29.4h7.2v1.1h-6v3.4h5.8V35h-5.8v3.5h6.1l-.1 1.2zm-17.8-9.2v8.1h2.7c2.8 0 4.2-1.6 4.2-4s-1.5-4-4.2-4h-2.7zm2.7-1.1c3.4 0 5.5 2 5.5 5.1s-2.1 5.1-5.5 5.1h-3.9V29.4zm-6.8 10.3h-1.2V29.4h1.2v10.3zm-7.1 0h-1.4L644 29.4h1.3l3.6 9.1 3.6-9.1h1.2l-4.2 10.3zm-15.9-5.2a3.94 3.94 0 0 0 4.1 4.1 4 4 0 0 0 4.1-4.1 3.94 3.94 0 0 0-4.1-4.1 4 4 0 0 0-4.1 4.1zm9.4 0a5.3 5.3 0 1 1-10.6 0 5.15 5.15 0 0 1 5.3-5.3 5.21 5.21 0 0 1 5.3 5.3zm-18.8-4v3.6h2.8q2.4 0 2.4-1.8 0-1.8-2.4-1.8zm2.9-1.1c2.3 0 3.6 1 3.6 2.9s-1.4 2.9-3.6 2.9h-.2l3.7 4.5h-1.5l-3.6-4.5h-1.3v4.5h-1.1V29.4zm-12.6 1.1v3.9h2.7c1.6 0 2.4-.7 2.4-2s-.9-2-2.4-2l-2.7.1zm0 5v4.1h-1.2V29.4h3.9c2.3 0 3.6 1.2 3.6 3.1s-1.3 3.1-3.6 3.1l-2.7-.1zm-10.4-.1v4.3h-1.2v-4.3l-4.1-6h1.4l3.3 4.9 3.3-4.9h1.4l-4.1 6zm-5.9-4.9h-3.6v9.2h-1.2v-9.2h-3.6v-1.1h8.3v1.1zm-10.1 9.2h-1.2V29.4h1.2v10.3zm-2.9-9.2h-3.6v9.2h-1.2v-9.2h-3.6v-1.1h8.3v1.1zm-10.1 9.2H574l-6.4-8.3v8.3h-1.2V29.4h1.1l6.4 8.3v-8.3h1.2v10.3zm-11.3 0h-7.2V29.4h7.2v1.1h-6v3.4h5.8V35h-5.8v3.5h6.1v1.2zM546 30.5v8.1h2.7c2.8 0 4.2-1.6 4.2-4s-1.5-4-4.2-4H546zm2.7-1.1c3.4 0 5.5 2 5.5 5.1s-2.1 5.1-5.5 5.1h-3.9V29.4zm-6.8 10.3h-1.2V29.4h1.2v10.3zM645 142.6h.8l2.5-2.9h2.1l-3.2 3.6 3.2 4h-2.1l-2.5-3.2h-.8v3.2h-1.7V136h1.7zm-10.3.9a2.29 2.29 0 0 0 2.3 2.4 2.4 2.4 0 0 0 1.833-4.058 2.4 2.4 0 0 0-4.133 1.658zm6.1 3.8h-1.7v-.9a2.78 2.78 0 0 1-2.4 1.1 4 4 0 1 1 0-8 2.9 2.9 0 0 1 2.4 1.1v-.9h1.6v7.6zm-15.7-3.8a2.31 2.31 0 0 0 2.4 2.4 2.37 2.37 0 0 0 2.4-2.4 2.4 2.4 0 0 0-3.6-2.078 2.4 2.4 0 0 0-1.2 2.078zm6.4 0a3.91 3.91 0 0 1-4.1 4 4 4 0 0 1-4.1-4 4.1 4.1 0 1 1 8.2 0zm-10.2 3.8h-1.7V136h1.7zm-3.7-8.9l-1.5 1a3.7 3.7 0 0 0-3.1-1.6 3.75 3.75 0 0 0-3.9 4 3.81 3.81 0 0 0 3.9 4 3.7 3.7 0 0 0 3.1-1.6l1.4 1.1a5.24 5.24 0 0 1-4.5 2.2 5.7 5.7 0 1 1 0-11.4 4.94 4.94 0 0 1 4.6 2.3zm-17.3 12.1h-1.8l2.7-4.7-3.3-6h1.8l2.4 4.3 2.3-4.3h1.8l-5.9 10.7zm-8.7-7.6h3.9c-.2-1.2-.9-1.9-1.9-1.9-1.2 0-1.8.7-2 1.9zm5.6.6v.6h-5.6a2.07 2.07 0 0 0 2.2 1.9 3.49 3.49 0 0 0 2.2-.8l.8 1.2a4.55 4.55 0 0 1-3.1 1.1 3.75 3.75 0 0 1-3.9-4 3.68 3.68 0 0 1 3.8-4c2.2 0 3.6 1.6 3.6 4zm-14.4-.9h-1.1v4.7h-1.8v-11h1.8v4.6h1.1l4.1-4.6h2.3l-5 5.4 5.3 5.6h-2.4l-4.3-4.7z"
     id="path141" /><path
     d="M873.4 172.4v2.1h-2.1"
     class="o p q r"
     id="path143" /><path
     d="M716.2 175H712v-.9h4.2m6.4.9h-4.2v-.9h4.2m6.4.9h-4.2v-.9h4.2m6.3.9h-4.2v-.9h4.2m6.4.9h-4.2v-.9h4.2m6.4.9h-4.2v-.9h4.2m6.4.9h-4.2v-.9h4.2m6.3.9h-4.2v-.9h4.2m6.4.9H763v-.9h4.2m6.4.9h-4.2v-.9h4.2m6.4.9h-4.2v-.9h4.2m6.3.9h-4.2v-.9h4.2m6.4.9h-4.2v-.9h4.2m6.4.9h-4.2v-.9h4.2m6.4.9h-4.2v-.9h4.2m6.3.9h-4.2v-.9h4.2m6.4.9H814v-.9h4.2m6.4.9h-4.2v-.9h4.2m6.4.9h-4.2v-.9h4.2m6.3.9h-4.2v-.9h4.2m6.4.9h-4.2v-.9h4.2m6.4.9h-4.2v-.9h4.2m6.4.9h-4.2v-.9h4.2m6.3.9h-4.2v-.9h4.2m6.4.9H865v-.9h4.2"
     class="s"
     id="path145" /><path
     d="M709.8 174.5h-2v-2.1"
     class="o p q r"
     id="path147" /><use
     xlink:href="#F"
     x="176.2"
     class="s"
     id="use149" /><path
     d="M707.8 50.8v-2.1h2"
     class="o p q r"
     id="path151" /><path
     d="M865 48.2h4.2v.9H865m-6.4-.9h4.2v.9h-4.2m-6.4-.9h4.2v.9h-4.2m-6.4-.9h4.2v.9h-4.2m-6.3-.9h4.2v.9h-4.2m-6.4-.9h4.2v.9h-4.2m-6.4-.9h4.2v.9h-4.2m-6.4-.9h4.2v.9h-4.2m-6.3-.9h4.2v.9H814m-6.4-.9h4.2v.9h-4.2m-6.4-.9h4.2v.9h-4.2m-6.4-.9h4.2v.9h-4.2m-6.3-.9h4.2v.9h-4.2m-6.4-.9h4.2v.9h-4.2m-6.4-.9h4.2v.9h-4.2m-6.4-.9h4.2v.9h-4.2m-6.3-.9h4.2v.9H763m-6.4-.9h4.2v.9h-4.2m-6.4-.9h4.2v.9h-4.2m-6.4-.9h4.2v.9h-4.2m-6.3-.9h4.2v.9h-4.2m-6.4-.9h4.2v.9h-4.2m-6.4-.9h4.2v.9h-4.2m-6.4-.9h4.2v.9h-4.2m-6.3-.9h4.2v.9H712"
     class="s"
     id="path153" /><path
     d="M871.3 48.7h2.1v2.1"
     class="o p q r"
     id="path155" /><use
     xlink:href="#G"
     x="176.2"
     class="s"
     id="use157" /><path
     d="M838.5 39.7h-1.1l-6.4-8.3v8.3h-1.2V29.4h1.1l6.4 8.3v-8.3h1.2v10.3zm-20.4-5.2a3.94 3.94 0 0 0 4.1 4.1 4.1 4.1 0 0 0 0-8.2 4.1 4.1 0 0 0-4.1 4.1zm9.4 0a5.3 5.3 0 1 1-10.6 0 5.15 5.15 0 0 1 5.3-5.3 5.27 5.27 0 0 1 5.3 5.3zm-13 5.2h-1.2V29.4h1.2v10.3zm-3-9.2h-3.6v9.2h-1.2v-9.2h-3.6v-1.1h8.3l.1 1.1zm-15.6 0v3.9h2.7c1.6 0 2.4-.7 2.4-2s-.9-2-2.4-2h-2.7zm0 5v4.1h-1.2V29.4h3.9c2.3 0 3.6 1.2 3.6 3.1s-1.3 3.1-3.6 3.1l-2.7-.1zm-6.8-.1v4.3h-1.2v-4.3l-4.1-6h1.4l3.3 4.9 3.3-4.9h1.4l-4.1 6zm-12.5-4.9v3.6h2.8q2.4 0 2.4-1.8 0-1.8-2.4-1.8zm2.9-1.1c2.3 0 3.6 1 3.6 2.9s-1.4 2.9-3.6 2.9h-.2l3.7 4.5h-1.5l-3.6-4.5h-1.3v4.5h-1.2V29.4zm-6.4 2l-1 .7a4.06 4.06 0 0 0-7.205 3.335A4.06 4.06 0 0 0 768.9 38.6a3.76 3.76 0 0 0 3.2-1.6l1 .7a5 5 0 0 1-4.2 2.1 5.09 5.09 0 0 1-5.3-5.3 5.23 5.23 0 0 1 9.5-3.1zm-11.9 8.3h-1.1l-6.4-8.3v8.3h-1.2V29.4h1.1l6.4 8.3v-8.3h1.2v10.3zm-11.2 0h-7.2V29.4h7.2v1.1h-6v3.4h5.8V35H744v3.5h6.1v1.2zm103.3 101.5h-2.9v3.3c0 1 .5 1.4 1.2 1.4a2.69 2.69 0 0 0 1.5-.5l.7 1.3a4.18 4.18 0 0 1-2.3.7c-1.7 0-2.7-.9-2.7-2.9v-3.3h-1.5v-1.5h1.5v-2.3h1.7v2.3h2.9v1.5zm-7.7 6.1h-1.7V136h1.7zm-4.2-3.2a3.5 3.5 0 1 1-7 0v-4.3h1.7v4.2c0 1.5.8 2 1.8 2s1.8-.5 1.8-2v-4.2h1.7v4.3zm-15.5-.6a2.29 2.29 0 0 0 2.3 2.4 2.4 2.4 0 0 0 1.833-4.058 2.4 2.4 0 0 0-4.133 1.658zm6.1 3.8h-1.6v-.9a2.78 2.78 0 0 1-2.4 1.1 4 4 0 1 1 0-8 2.78 2.78 0 0 1 2.4 1.1v-.9h1.6zm-12.1 0h-2.2l-4.2-11h1.9l3.4 9.2 3.5-9.2h1.8zm-17.7-3.8a2.23 2.23 0 0 0 2.3 2.4 2.4 2.4 0 0 0 1.833-4.058 2.4 2.4 0 0 0-4.133 1.658zm6.3 0a3.85 3.85 0 0 1-3.8 4 2.9 2.9 0 0 1-2.4-1.1v4h-1.6v-10.7h1.6v.9a2.78 2.78 0 0 1 2.4-1.1 3.85 3.85 0 0 1 3.8 4zm-9.5-3.8l-.4 1.6a2.77 2.77 0 0 0-1.3-.3 1.79 1.79 0 0 0-1.8 2v4.1h-1.6v-7.5h1.6v.9a2.57 2.57 0 0 1 2.2-1 3.92 3.92 0 0 1 1.3.2zm-13.5 3.8a2.4 2.4 0 0 0 4.097 1.697 2.4 2.4 0 0 0-1.697-4.097 2.31 2.31 0 0 0-2.4 2.4zm6.4 0a3.91 3.91 0 0 1-4.1 4 4 4 0 0 1-4.1-4 4.1 4.1 0 1 1 8.2 0zm-9.5-5.1l-1.5 1a3.7 3.7 0 0 0-3.1-1.6 3.75 3.75 0 0 0-3.9 4 3.81 3.81 0 0 0 3.9 4 3.7 3.7 0 0 0 3.1-1.6l1.4 1.1a5.24 5.24 0 0 1-4.5 2.2 5.7 5.7 0 1 1 0-11.4 4.94 4.94 0 0 1 4.6 2.3zm-12.5 8.9h-1.7v-7.5h1.7zm.3-10.2a1.08 1.08 0 0 1-1.2 1.1c-.2 0-.3 0-.4-.1s-.3-.1-.4-.2a.52.52 0 0 1-.2-.4.6.6 0 0 1-.1-.4 1.13 1.13 0 0 1 1.1-1.2c.2 0 .3 0 .4.1s.3.1.4.3a1.38 1.38 0 0 1 .3.4.6.6 0 0 1 .1.4zm-9.8 3.5a2.57 2.57 0 0 1 2.3-1.1 2.91 2.91 0 0 1 3.1 3v4.7h-1.7V143c0-1.3-.7-2-1.8-2a1.89 1.89 0 0 0-2 2v4.2h-1.7v-11.3h1.7v4.7zm-4.5 1a4.84 4.84 0 0 0-2.3-.6c-.9 0-1.4.4-1.4.9s.6.7 1.2.8l.8.1c1.6.2 2.6.9 2.6 2.2s-1.3 2.5-3.4 2.5a5.61 5.61 0 0 1-3.2-1l.8-1.2a3.89 3.89 0 0 0 2.5.8c1.1 0 1.7-.4 1.7-.9s-.4-.7-1.3-.8l-.8-.1c-1.7-.2-2.6-1-2.6-2.2 0-1.5 1.2-2.4 3.1-2.4a5.94 5.94 0 0 1 3.1.8l-.8 1.1zm-13.8 1.9a2.29 2.29 0 0 0 2.3 2.4 2.4 2.4 0 1 0 0-4.8 2.29 2.29 0 0 0-2.3 2.4zm6.1 3.8h-1.6v-.9a2.78 2.78 0 0 1-2.4 1.1 4 4 0 1 1 0-8 2.9 2.9 0 0 1 2.4 1.1v-.9h1.6zm-17.8-6.4h6v-4.6h1.8v11h-1.8v-4.7h-6v4.7h-1.8v-11h1.8z"
     id="path159" /><path
     d="M1049.6 172.4v2.1h-2.1"
     class="o p q r"
     id="path161" /><path
     d="M892.4 175h-4.3v-.9h4.2m6.5.9h-4.2v-.9h4.2m6.3.9h-4.2v-.9h4.2m6.4.9h-4.2v-.9h4.2m6.4.9h-4.2v-.9h4.2m6.4.9h-4.2v-.9h4.2m6.3.9h-4.2v-.9h4.2m6.4.9h-4.2v-.9h4.2m6.4.9h-4.3v-.9h4.2m6.5.9h-4.2v-.9h4.2m6.3.9h-4.2v-.9h4.2m6.4.9h-4.2v-.9h4.2m6.4.9h-4.2v-.9h4.2m6.4.9h-4.2v-.9h4.2m6.3.9h-4.2v-.9h4.2m6.4.9h-4.2v-.9h4.2m6.4.9h-4.2v-.9h4.2m6.4.9h-4.2v-.9h4.2m6.3.9h-4.2v-.9h4.2m6.4.9h-4.2v-.9h4.2m6.4.9h-4.2v-.9h4.2m6.4.9h-4.2v-.9h4.2m6.3.9h-4.2v-.9h4.2m6.4.9h-4.2v-.9h4.2m6.4.9h-4.2v-.9h4.2"
     class="s"
     id="path163" /><path
     d="M886 174.5h-2.1v-2.1"
     class="o p q r"
     id="path165" /><use
     xlink:href="#F"
     x="352.4"
     class="s"
     id="use167" /><path
     d="M883.9 50.8v-2.1h2.1"
     class="o p q r"
     id="path169" /><path
     d="M1041.1 48.2h4.2v.9h-4.2m-6.3-.9h4.2v.9h-4.2m-6.4-.9h4.2v.9h-4.2m-6.4-.9h4.2v.9h-4.2m-6.4-.9h4.2v.9h-4.2m-6.3-.9h4.2v.9h-4.2m-6.4-.9h4.2v.9h-4.2m-6.4-.9h4.2v.9h-4.2m-6.4-.9h4.2v.9h-4.2m-6.3-.9h4.2v.9h-4.2m-6.4-.9h4.2v.9h-4.2m-6.4-.9h4.2v.9H971m-6.4-.9h4.2v.9h-4.2m-6.3-.9h4.2v.9h-4.2m-6.4-.9h4.2v.9h-4.2m-6.4-.9h4.2v.9h-4.2m-6.4-.9h4.2v.9h-4.2m-6.3-.9h4.2v.9h-4.2m-6.4-.9h4.2v.9h-4.2m-6.4-.9h4.2v.9H920m-6.4-.9h4.2v.9h-4.2m-6.3-.9h4.2v.9h-4.2m-6.4-.9h4.2v.9h-4.2m-6.4-.9h4.2v.9h-4.2m-6.4-.9h4.2v.9h-4.2"
     class="s"
     id="path171" /><path
     d="M1047.5 48.7h2.1v2.1"
     class="o p q r"
     id="path173" /><use
     xlink:href="#G"
     x="352.4"
     class="s"
     id="use175" /><path
     d="M1187.5 31.3a5.71 5.71 0 0 0-3.1-1c-1.5 0-2.7.7-2.7 1.9 0 1 .8 1.5 2.4 1.7l1 .1c1.7.2 3.2.9 3.2 2.7 0 2-1.9 3.1-4.1 3.1a6.39 6.39 0 0 1-4-1.3l.6-.9a5.51 5.51 0 0 0 3.4 1.1c1.6 0 2.9-.6 2.9-1.9 0-1-.9-1.5-2.5-1.7l-1-.1c-1.8-.2-3-1-3-2.7 0-2 1.7-3 3.9-3a6.76 6.76 0 0 1 3.7 1.1zm-10.1-.3l-.9.8a3.81 3.81 0 0 0-3.1-1.4 4 4 0 0 0-4.1 4.2 3.91 3.91 0 0 0 4 4.1 3.45 3.45 0 0 0 3.7-3.4h-3.2v-1.1h4.5v.3c0 3-1.9 5.3-5 5.3a5.2 5.2 0 0 1-5.3-5.3 5.15 5.15 0 0 1 5.3-5.3 5.45 5.45 0 0 1 4.1 1.8zm-20.4 3.5a3.94 3.94 0 0 0 4.1 4.1 4 4 0 0 0 4.1-4.1 4.1 4.1 0 0 0-8.2 0zm9.4 0a5.3 5.3 0 0 1-10.6 0 5.15 5.15 0 0 1 5.3-5.3 5.27 5.27 0 0 1 5.3 5.3zm-11.3 5.2h-7.1V29.4h1.2v9.2h5.9v1.1zm-12.6-9.2h-3.6v9.2h-1.2v-9.2h-3.6v-1.1h8.3v1.1zm-10 9.2h-1.2V29.4h1.2v10.3zm-11.8-9.2v8.1h2.7c2.8 0 4.2-1.6 4.2-4s-1.5-4-4.2-4h-2.7zm2.7-1.1c3.4 0 5.5 2 5.5 5.1s-2.1 5.1-5.5 5.1h-3.9V29.4zm-6.7 6.3a4.2 4.2 0 1 1-8.4 0v-6.3h1.2v6.2a2.79 2.79 0 0 0 3.1 3.1 2.84 2.84 0 0 0 3.1-3.1v-6.2h1.2v6.3zm-16.9 0h4.2l-2.1-5.1zm7.1 4h-1.3l-1.2-2.9h-5.1l-1.2 2.9h-1.2l4.2-10.3h1.5zm78.6 102.9h.8l2.5-2.9h2.1l-3.2 3.6 3.2 4h-2.1l-2.5-3.2h-.8v3.2h-1.7V136h1.7zm-3.4-1.9l-1.1 1.1a2.5 2.5 0 0 0-1.8-.8 2.21 2.21 0 0 0-2.2 2.4 2.27 2.27 0 0 0 2.2 2.4 2.34 2.34 0 0 0 1.8-.8l1 1.1a3.63 3.63 0 0 1-2.8 1.2 4 4 0 1 1 0-8 4.7 4.7 0 0 1 2.9 1.4zm-14.9 2.8a2.29 2.29 0 0 0 2.3 2.4 2.4 2.4 0 0 0 1.833-4.058 2.4 2.4 0 0 0-4.133 1.658zm6 3.8h-1.6v-.9a2.78 2.78 0 0 1-2.4 1.1 4 4 0 1 1 0-8 2.9 2.9 0 0 1 2.4 1.1v-.9h1.6zm-9.2-6.1h-2.9v3.3c0 1 .5 1.4 1.2 1.4a2.69 2.69 0 0 0 1.5-.5l.7 1.3a4.18 4.18 0 0 1-2.3.7c-1.7 0-2.7-.9-2.7-2.9v-3.3h-1.5v-1.5h1.5v-2.3h1.7v2.3h2.9l-.1 1.5zm-8.2-2.5a5.61 5.61 0 0 0-3.1-.9c-1.5 0-2.5.6-2.5 1.6s.9 1.3 2.3 1.5l.8.1c1.8.2 3.6 1 3.6 3 0 2.2-2 3.5-4.4 3.5a6.9 6.9 0 0 1-4.4-1.5l1-1.4a5.68 5.68 0 0 0 3.5 1.2c1.4 0 2.6-.6 2.6-1.6s-.9-1.3-2.5-1.5l-.9-.1c-1.6-.2-3.3-1-3.3-3 0-2.2 2-3.4 4.3-3.4a6.55 6.55 0 0 1 4 1.2l-1 1.3zm-9.3 2l-1.1 1.1a2.5 2.5 0 0 0-1.8-.8 2.21 2.21 0 0 0-2.2 2.4 2.27 2.27 0 0 0 2.2 2.4 2.34 2.34 0 0 0 1.8-.8l1 1.1a3.63 3.63 0 0 1-2.8 1.2 4 4 0 1 1 0-8 4.7 4.7 0 0 1 2.9 1.4zm-8.8 6.6h-1.7v-7.5h1.7zm.3-10.2a1.08 1.08 0 0 1-1.2 1.1c-.2 0-.3 0-.4-.1s-.3-.1-.4-.2a.52.52 0 0 1-.2-.4.6.6 0 0 1-.1-.4 1.13 1.13 0 0 1 1.1-1.2c.2 0 .3 0 .4.1s.3.1.4.3a1.38 1.38 0 0 1 .3.4.6.6 0 0 1 .1.4zm-4 4.1h-2.9v3.3c0 1 .5 1.4 1.2 1.4a2.69 2.69 0 0 0 1.5-.5l.7 1.3a4.18 4.18 0 0 1-2.3.7c-1.7 0-2.7-.9-2.7-2.9v-3.3h-1.5v-1.5h1.5v-2.3h1.7v2.3h2.9l-.1 1.5zm-7.9.4a4.84 4.84 0 0 0-2.3-.6c-.9 0-1.4.4-1.4.9s.6.7 1.2.8l.8.1c1.6.2 2.6.9 2.6 2.2s-1.3 2.5-3.4 2.5a5.61 5.61 0 0 1-3.2-1l.8-1.2a3.89 3.89 0 0 0 2.5.8c1.1 0 1.7-.4 1.7-.9s-.4-.7-1.3-.8l-.8-.1c-1.7-.2-2.6-1-2.6-2.2 0-1.5 1.2-2.4 3.1-2.4a5.94 5.94 0 0 1 3.1.8l-.8 1.1zm-13.8 1.9a2.29 2.29 0 0 0 2.3 2.4 2.4 2.4 0 0 0 1.833-4.058 2.4 2.4 0 0 0-4.133 1.658zm6.1 3.8h-1.6v-.9a2.78 2.78 0 0 1-2.4 1.1 4 4 0 0 1 0-8 2.9 2.9 0 0 1 2.4 1.1v-.9h1.6zm-9.8 0h-1.7V136h1.7zm-4.2 0h-8v-11h7.9v1.7h-6.2v3h5.9v1.7h-5.9v3h6.3v1.6z"
     id="path177" /><path
     d="M1225.8 172.4v2.1h-2.1"
     class="o p q r"
     id="path179" /><path
     d="M1068.6 175h-4.2v-.9h4.2m6.3.9h-4.2v-.9h4.2m6.4.9h-4.2v-.9h4.2m6.4.9h-4.2v-.9h4.2m6.4.9h-4.2v-.9h4.2m6.3.9h-4.2v-.9h4.2m6.4.9h-4.2v-.9h4.2m6.4.9h-4.2v-.9h4.2m6.4.9h-4.2v-.9h4.2m6.3.9h-4.2v-.9h4.2m6.4.9h-4.2v-.9h4.2m6.4.9h-4.2v-.9h4.2m6.4.9h-4.2v-.9h4.2m6.3.9h-4.2v-.9h4.2m6.4.9h-4.2v-.9h4.2m6.4.9h-4.2v-.9h4.2m6.4.9h-4.2v-.9h4.2m6.3.9h-4.2v-.9h4.2m6.4.9h-4.2v-.9h4.2m6.4.9h-4.2v-.9h4.2m6.4.9h-4.2v-.9h4.2m6.3.9h-4.2v-.9h4.2m6.4.9h-4.2v-.9h4.2m6.4.9h-4.2v-.9h4.2m6.4.9h-4.2v-.9h4.2"
     class="s"
     id="path181" /><path
     d="M1062.2 174.5h-2.1v-2.1"
     class="o p q r"
     id="path183" /><use
     xlink:href="#F"
     x="528.5"
     class="s"
     id="use185" /><path
     d="M1060.1 50.8v-2.1h2.1"
     class="o p q r"
     id="path187" /><path
     d="M1217.3 48.2h4.2v.9h-4.2m-6.4-.9h4.2v.9h-4.2m-6.3-.9h4.2v.9h-4.2m-6.4-.9h4.2v.9h-4.2m-6.4-.9h4.2v.9h-4.2m-6.4-.9h4.2v.9h-4.2m-6.3-.9h4.2v.9h-4.2m-6.4-.9h4.2v.9h-4.2m-6.4-.9h4.2v.9h-4.2m-6.4-.9h4.2v.9h-4.2m-6.3-.9h4.2v.9h-4.2m-6.4-.9h4.2v.9h-4.2m-6.4-.9h4.2v.9h-4.2m-6.4-.9h4.2v.9h-4.2m-6.3-.9h4.2v.9h-4.2m-6.4-.9h4.2v.9h-4.2m-6.4-.9h4.2v.9h-4.2m-6.4-.9h4.2v.9h-4.2m-6.3-.9h4.2v.9h-4.2m-6.4-.9h4.2v.9h-4.2m-6.4-.9h4.2v.9h-4.2m-6.4-.9h4.2v.9h-4.2m-6.3-.9h4.2v.9h-4.2m-6.4-.9h4.2v.9h-4.2m-6.4-.9h4.2v.9h-4.2"
     class="s"
     id="path189" /><path
     d="M1223.7 48.7h2.1v2.1"
     class="o p q r"
     id="path191" /><use
     xlink:href="#G"
     x="528.5"
     class="s"
     id="use193" /><path
     d="M1015.2 31l-.9.8a3.81 3.81 0 0 0-3.1-1.4 4 4 0 0 0-4.1 4.2 3.91 3.91 0 0 0 4 4.1 3.45 3.45 0 0 0 3.7-3.4h-3.2v-1.1h4.5v.3c0 3-1.9 5.3-5 5.3a5.2 5.2 0 0 1-5.3-5.3 5.15 5.15 0 0 1 5.3-5.3 5.8 5.8 0 0 1 4.1 1.8zm-11.7 8.7h-1.1l-6.4-8.3v8.3h-1.2V29.4h1.1l6.4 8.3v-8.3h1.2v10.3zm-11.6 0h-1.2V29.4h1.2v10.3zm-9.9-9.2v3.6h2.8q2.4 0 2.4-1.8 0-1.8-2.4-1.8zm2.9-1.1c2.3 0 3.6 1 3.6 2.9s-1.4 2.9-3.6 2.9h-.2l3.7 4.5h-1.5l-3.6-4.5H982v4.5h-1.2V29.4zm-15.8 5.1a3.94 3.94 0 0 0 4.1 4.1 4 4 0 0 0 4.1-4.1 4.1 4.1 0 1 0-8.2 0zm9.4 0a5.3 5.3 0 1 1-10.6 0 5.15 5.15 0 0 1 5.3-5.3 5.27 5.27 0 0 1 5.3 5.3zm-11.6-4h-3.6v9.2h-1.2v-9.2h-3.6v-1.1h8.3l.1 1.1zm-10 9.2h-1.2V29.4h1.2v10.3zm-4.2 0h-1.1l-6.4-8.3v8.3h-1.1V29.4h1.1l6.4 8.3v-8.3h1.2v10.3zm-20.4-5.2a3.94 3.94 0 0 0 4.1 4.1 4 4 0 0 0 4.1-4.1 3.94 3.94 0 0 0-4.1-4.1 4 4 0 0 0-4.1 4.1zm9.4 0a5.3 5.3 0 0 1-10.6 0 5.15 5.15 0 0 1 5.3-5.3 5.21 5.21 0 0 1 5.3 5.3zm-13 5.2h-1.2v-9l-3.6 7.8h-1.2l-3.6-7.8v8.9h-1.2V29.4h1.8l3.6 7.8 3.6-7.8h1.8v10.3zm63 103.8a2.29 2.29 0 0 0 2.3 2.4 2.4 2.4 0 1 0 0-4.8 2.29 2.29 0 0 0-2.3 2.4zm6.1 3.8h-1.6v-.9a2.78 2.78 0 0 1-2.4 1.1 4 4 0 1 1 0-8 2.9 2.9 0 0 1 2.4 1.1v-.9h1.6zm-9.7-4.8v4.7h-1.7V143c0-1.3-.7-2-1.8-2a1.89 1.89 0 0 0-2 2v4.2h-1.7v-7.5h1.6v.9a2.57 2.57 0 0 1 2.3-1.1 3 3 0 0 1 3.3 3zm-15.7 1a2.29 2.29 0 0 0 2.3 2.4 2.4 2.4 0 1 0 0-4.8 2.29 2.29 0 0 0-2.3 2.4zm6.1 3.8h-1.6v-.9a2.78 2.78 0 0 1-2.4 1.1 4 4 0 1 1 0-8 2.9 2.9 0 0 1 2.4 1.1v-.9h1.6zm-8.8-6.1h-2.6v6h-1.7v-6h-1.5v-1.5h1.5v-1.3a2.42 2.42 0 0 1 2.5-2.7 3.7 3.7 0 0 1 2.1.6l-.6 1.4a3.26 3.26 0 0 0-1.4-.4c-.6 0-1 .4-1 1.2v1.3h2.6l.1 1.4zm-13.5 2.3a2.29 2.29 0 0 0 2.3 2.4 2.4 2.4 0 0 0 1.833-4.058 2.4 2.4 0 0 0-4.133 1.658zm6.1 3.8h-1.6v-.9a2.78 2.78 0 0 1-2.4 1.1 4 4 0 1 1 0-8 2.78 2.78 0 0 1 2.4 1.1v-.9h1.6zm-8.6-7.6l-.4 1.6a2.5 2.5 0 0 0-1.3-.3 1.79 1.79 0 0 0-1.8 2v4.1h-1.6v-7.5h1.6v.9a2.57 2.57 0 0 1 2.2-1 5.07 5.07 0 0 1 1.3.2zm-8.3-1.9l-1.3 1.3a3.84 3.84 0 0 0-3-1.3 4 4 0 0 0-.1 8 3.18 3.18 0 0 0 3.5-2.9h-2.9v-1.7h4.8v.4c0 3.2-2 5.8-5.4 5.8a5.7 5.7 0 1 1 .1-11.4 5.87 5.87 0 0 1 4.3 1.8z"
     id="path195" /><path
     d="M1400.9 308.7v2.1h-2.1"
     class="o p q r"
     id="path197" /><use
     xlink:href="#H"
     class="s"
     id="use199" /><path
     d="M1238.4 310.8h-2.1v-2.1"
     class="o p q r"
     id="path201" /><path
     d="M1235.8 193.4v-4.2h.9v4.2m-.9 6.3v-4.2h.9v4.2m-.9 6.3v-4.2h.9v4.2m-.9 6.3v-4.2h.9v4.2m-.9 6.3v-4.2h.9v4.2m-.9 6.2v-4.2h.9v4.2m-.9 6.3v-4.2h.9v4.2m-.9 6.3v-4.2h.9v4.2m-.9 6.3v-4.2h.9v4.2m-.9 6.3v-4.2h.9v4.2m-.9 6.3v-4.2h.9v4.2m-.9 6.3v-4.2h.9v4.2m-.9 6.3v-4.2h.9v4.2m-.9 6.3V271h.9v4.2m-.9 6.3v-4.2h.9v4.2m-.9 6.3v-4.2h.9v4.2m-.9 6.3v-4.2h.9v4.2m-.9 6.2v-4.2h.9v4.2m-.9 6.3v-4.2h.9v4.2"
     class="s"
     id="path203" /><path
     d="M1236.3 187.1V185h2.1"
     class="o p q r"
     id="path205" /><use
     xlink:href="#I"
     class="s"
     id="use207" /><path
     d="M1398.8 185h2.1v2.1"
     class="o p q r"
     id="path209" /><path
     d="M1401.4 302.4v4.2h-.9v-4.2m.9-6.3v4.2h-.9v-4.2m.9-6.2v4.2h-.9v-4.2m.9-6.3v4.2h-.9v-4.2m.9-6.3v4.2h-.9v-4.2m.9-6.3v4.2h-.9V271m.9-6.3v4.2h-.9v-4.2m.9-6.3v4.2h-.9v-4.2m.9-6.3v4.2h-.9v-4.2m.9-6.3v4.2h-.9v-4.2m.9-6.3v4.2h-.9v-4.2m.9-6.3v4.2h-.9v-4.2m.9-6.3v4.2h-.9v-4.2m.9-6.3v4.2h-.9v-4.2m.9-6.2v4.2h-.9v-4.2m.9-6.3v4.2h-.9v-4.2m.9-6.3v4.2h-.9v-4.2m.9-6.3v4.2h-.9v-4.2m.9-6.3v4.2h-.9v-4.2"
     class="s"
     id="path211" /><path
     d="M1370.5 167.7a5.71 5.71 0 0 0-3.1-1c-1.5 0-2.7.7-2.7 1.9 0 1 .8 1.5 2.4 1.7l1 .1c1.7.2 3.2.9 3.2 2.7 0 2-1.8 3.1-4.1 3.1a6.39 6.39 0 0 1-4-1.3l.6-.9a5.51 5.51 0 0 0 3.4 1.1c1.6 0 2.8-.6 2.8-1.9 0-1-.9-1.5-2.5-1.7l-1-.1c-1.8-.2-3-1-3-2.7 0-2 1.7-3 3.9-3a6.76 6.76 0 0 1 3.7 1.1l-.6.9zm-9.3 8.3h-7.2v-10.3h7.2v1.1h-6v3.4h5.8v1.1h-5.8v3.5h6.1l-.1 1.2zm-9.1-9.2h-3.6v9.2h-1.2v-9.2h-3.6v-1.1h8.3v1.1zM1337 172h4.2l-2.1-5.1-2.1 5.1zm7.1 4h-1.3l-1.2-2.9h-5.1l-1.2 2.9h-1.2l4.2-10.3h1.5l4.3 10.3zm-11-8.3l-1 .7a4.06 4.06 0 0 0-7.205 3.335 4.06 4.06 0 0 0 4.005 3.165 3.76 3.76 0 0 0 3.2-1.6l1 .7a5 5 0 0 1-4.2 2.1 5.09 5.09 0 0 1-5.3-5.3 5.23 5.23 0 0 1 9.5-3.1zm-11.9 8.3h-1.2v-10.3h1.2V176zm-3.8-4.6h-5.7v4.6h-1.2v-10.3h7.1v1.1h-5.9v3.4h5.7v1.2zm-9.8 4.6h-1.2v-10.3h1.2V176zm-3-9.2h-3.6v9.2h-1.2v-9.2h-3.6v-1.1h8.3v1.1zm-15.9 0v3.6h2.8q2.4 0 2.4-1.8 0-1.8-2.4-1.8zm2.9-1.1c2.3 0 3.6 1 3.6 2.9s-1.4 2.9-3.6 2.9h-.2l3.7 4.5h-1.5l-3.6-4.5h-1.3v4.5h-1.2v-10.3zm-6.7 10.3h-7.2v-10.3h7.2v1.1h-6v3.4h5.8v1.1h-5.8v3.5h6.1l-.1 1.2zm-9.6-8.3l-1 .7a4.06 4.06 0 0 0-7.205 3.335 4.06 4.06 0 0 0 4.005 3.165 3.76 3.76 0 0 0 3.2-1.6l1 .7a5 5 0 0 1-4.2 2.1 5.09 5.09 0 0 1-5.3-5.3 5.23 5.23 0 0 1 9.5-3.1zm93.5 110.9h-2.9v3.3c0 1 .5 1.4 1.2 1.4a2.69 2.69 0 0 0 1.5-.5l.7 1.3a4.18 4.18 0 0 1-2.3.7c-1.7 0-2.7-.9-2.7-2.9v-3.3h-1.5v-1.5h1.5v-2.3h1.7v2.3h2.9v1.5zm-13.4 2.3a2.23 2.23 0 0 0 2.3 2.4 2.4 2.4 0 1 0 0-4.8 2.23 2.23 0 0 0-2.3 2.4zm6.3 0a3.85 3.85 0 0 1-3.8 4 2.9 2.9 0 0 1-2.4-1.1v4h-1.6v-10.7h1.6v.9a2.78 2.78 0 0 1 2.4-1.1 3.85 3.85 0 0 1 3.8 4zm-15.1 6.9h-1.8l2.7-4.7-3.3-6h1.8l2.4 4.3 2.3-4.3h1.8zm-3.4-10.7l-.4 1.6a2.77 2.77 0 0 0-1.3-.3 1.79 1.79 0 0 0-1.8 2v4.1h-1.6V277h1.6v.9a2.57 2.57 0 0 1 2.2-1 5.07 5.07 0 0 1 1.3.2zm-6.9 1l-1.1 1.1a2.5 2.5 0 0 0-1.8-.8 2.21 2.21 0 0 0-2.2 2.4 2.27 2.27 0 0 0 2.2 2.4 2.73 2.73 0 0 0 1.9-.8l1 1.1a3.63 3.63 0 0 1-2.8 1.2 4 4 0 1 1 0-8 4.7 4.7 0 0 1 2.8 1.4zm-8.8 1.8v4.7h-1.7v-4.2c0-1.3-.7-2-1.8-2a1.89 1.89 0 0 0-2 2v4.2h-1.7v-7.5h1.6v.9a2.57 2.57 0 0 1 2.3-1.1c2.1 0 3.3 1.2 3.3 3zm-9.4 4.7h-8v-11h7.9v1.7h-6.2v3h5.9v1.7h-5.9v3h6.3v1.6zm-15.4-5.6a4.84 4.84 0 0 0-2.3-.6c-.9 0-1.4.4-1.4.9s.6.7 1.2.8l.8.1c1.6.2 2.6.9 2.6 2.2s-1.3 2.5-3.4 2.5a5.61 5.61 0 0 1-3.2-1l.8-1.2a3.89 3.89 0 0 0 2.5.8c1.1 0 1.7-.4 1.7-.9s-.4-.7-1.3-.8l-.8-.1c-1.7-.2-2.6-1-2.6-2.2 0-1.5 1.2-2.4 3.1-2.4a5.94 5.94 0 0 1 3.1.8l-.8 1.1zm-6.3-5.7l-.9 4.3h-1.4l.4-4.3zm-3.9 5.3h-2.9v3.3c0 1 .5 1.4 1.2 1.4a2.69 2.69 0 0 0 1.5-.5l.7 1.3a4.18 4.18 0 0 1-2.3.7c-1.7 0-2.7-.9-2.7-2.9v-3.3h-1.5v-1.5h1.5v-2.3h1.7v2.3h2.9v1.5zm-12.7 1.6h3.9c-.2-1.2-.9-1.9-1.9-1.9a2.06 2.06 0 0 0-2 1.9zm5.6.7v.6h-5.6a2.07 2.07 0 0 0 2.2 1.9 3.49 3.49 0 0 0 2.2-.8l.8 1.2a4.55 4.55 0 0 1-3.1 1.1 3.75 3.75 0 0 1-3.9-4 3.68 3.68 0 0 1 3.8-4c2.2 0 3.6 1.6 3.6 4zm-8.3 3.7h-7.9v-11h1.8v9.3h6.1v1.7z"
     id="path213" /><path
     d="M1400.9 455.5v2.1h-2.1"
     class="o p q r"
     id="path215" /><use
     xlink:href="#H"
     y="146.8"
     class="s"
     id="use217" /><path
     d="M1238.4 457.6h-2.1v-2.1"
     class="o p q r"
     id="path219" /><path
     d="M1235.8 340.2V336h.9v4.2m-.9 6.3v-4.2h.9v4.2m-.9 6.3v-4.2h.9v4.2m-.9 6.3v-4.2h.9v4.2m-.9 6.3v-4.2h.9v4.2m-.9 6.3v-4.2h.9v4.2m-.9 6.2v-4.2h.9v4.2m-.9 6.3V380h.9v4.2m-.9 6.3v-4.2h.9v4.2m-.9 6.3v-4.2h.9v4.2m-.9 6.3v-4.2h.9v4.2m-.9 6.3v-4.2h.9v4.2m-.9 6.3v-4.2h.9v4.2m-.9 6.3v-4.2h.9v4.2m-.9 6.3v-4.2h.9v4.2m-.9 6.3v-4.2h.9v4.2m-.9 6.3v-4.2h.9v4.2m-.9 6.3V443h.9v4.2m-.9 6.2v-4.2h.9v4.2"
     class="s"
     id="path221" /><path
     d="M1236.3 333.9v-2.1h2.1"
     class="o p q r"
     id="path223" /><use
     xlink:href="#I"
     y="146.8"
     class="s"
     id="use225" /><path
     d="M1398.8 331.8h2.1v2.1"
     class="o p q r"
     id="path227" /><path
     d="M1401.4 449.2v4.2h-.9v-4.2m.9-6.2v4.2h-.9V443m.9-6.3v4.2h-.9v-4.2m.9-6.3v4.2h-.9v-4.2m.9-6.3v4.2h-.9v-4.2m.9-6.3v4.2h-.9v-4.2m.9-6.3v4.2h-.9v-4.2m.9-6.3v4.2h-.9v-4.2m.9-6.3v4.2h-.9v-4.2m.9-6.3v4.2h-.9v-4.2m.9-6.3v4.2h-.9v-4.2m.9-6.3v4.2h-.9V380m.9-6.3v4.2h-.9v-4.2m.9-6.2v4.2h-.9v-4.2m.9-6.3v4.2h-.9v-4.2m.9-6.3v4.2h-.9v-4.2m.9-6.3v4.2h-.9v-4.2m.9-6.3v4.2h-.9v-4.2m.9-6.3v4.2h-.9V336"
     class="s"
     id="path229" /><path
     d="M1385.4 470.7l-.9.8a3.81 3.81 0 0 0-3.1-1.4 4.1 4.1 0 0 0-.1 8.2 3.45 3.45 0 0 0 3.7-3.4h-3.2v-1.1h4.5v.3c0 3-1.9 5.3-5 5.3a5.2 5.2 0 0 1-5.3-5.3 5.15 5.15 0 0 1 5.3-5.3 5.89 5.89 0 0 1 4.1 1.9zm-11.6 8.7h-1.1l-6.4-8.3v8.3h-1.2v-10.3h1.1l6.4 8.3v-8.3h1.2v10.3zm-11.6 0h-1.2v-10.3h1.2v10.3zm-3.5-8.3l-1 .7a3.84 3.84 0 0 0-3.2-1.7 4.1 4.1 0 1 0 0 8.2 3.76 3.76 0 0 0 3.2-1.6l1 .7a5 5 0 0 1-4.2 2.1 5.09 5.09 0 0 1-5.3-5.3 5.23 5.23 0 0 1 9.5-3.1zm-11.9 8.3h-1.1l-6.4-8.3v8.3h-1.2v-10.3h1.1l6.4 8.3v-8.3h1.2v10.3zm-17.4-4h4.2l-2.1-5.1-2.1 5.1zm7.1 4h-1.3l-1.2-2.9h-5.1l-1.2 2.9h-1.2l4.2-10.3h1.5l4.3 10.3zm-10.8 0h-7.1v-10.3h1.2v9.2h5.9v1.1zm-15.9-4h4.2l-2.1-5.1zm7 4h-1.3l-1.2-2.9h-5.1l-1.2 2.9h-1.2l4.2-10.3h1.5l4.3 10.3zm-17.7-4.7v3.6h2.9c1.5 0 2.6-.4 2.6-1.8s-1-1.8-2.6-1.8zm0-4.5v3.4h2.8c1.4 0 2.5-.3 2.5-1.7s-1.1-1.7-2.5-1.7zm2.8-1.1c2.2 0 3.7.8 3.7 2.7a2.24 2.24 0 0 1-1.5 2.3 2.49 2.49 0 0 1 1.8 2.4c0 2-1.5 2.9-3.7 2.9h-4.2v-10.3zm-18.4 1.1v8h2.7c2.8 0 4.2-1.6 4.2-4s-1.5-4-4.2-4zm2.6-1.1c3.4 0 5.5 2 5.5 5.1s-2.1 5.1-5.5 5.1h-3.9V469h3.9zm-12.6 6.3h4.2l-2.1-5.1-2.1 5.1zm7 4h-1.3l-1.2-2.9h-5.1l-1.2 2.9h-1.2l4.2-10.3h1.5l4.3 10.3zm-20.1-5.1a3.94 3.94 0 0 0 4.1 4.1 4 4 0 0 0 4.1-4.1 3.94 3.94 0 0 0-4.1-4.1 3.83 3.83 0 0 0-4.1 4.1zm9.4 0a5.3 5.3 0 0 1-7.95 4.59 5.3 5.3 0 0 1 0-9.18 5.3 5.3 0 0 1 7.95 4.59zm-11.3 5.1h-7.1v-10.3h1.2v9.2h5.9v1.1zm98.8-47.1l-.4 1.6a2.5 2.5 0 0 0-1.3-.3 1.79 1.79 0 0 0-1.8 2v4.1h-1.6v-7.5h1.6v.9a2.57 2.57 0 0 1 2.2-1 3.92 3.92 0 0 1 1.3.2zm-12.7 3.1h3.9c-.2-1.2-.9-1.9-1.9-1.9a2.14 2.14 0 0 0-2 1.9zm5.6.7v.6h-5.6a2.07 2.07 0 0 0 2.2 1.9 3.49 3.49 0 0 0 2.2-.8l.8 1.2a4.55 4.55 0 0 1-3.1 1.1 3.75 3.75 0 0 1-3.9-4 3.68 3.68 0 0 1 3.8-4c2.2 0 3.6 1.6 3.6 4zm-9.3 3.7h-1.7v-11.3h1.7zm-4.3 0h-1.7v-11.3h1.7zm-10.1-3.7a2.4 2.4 0 1 0 4.8 0 2.4 2.4 0 0 0-2.4-2.4 2.26 2.26 0 0 0-2.4 2.4zm6.5 0a3.91 3.91 0 0 1-4.1 4 4 4 0 0 1-4.1-4 3.91 3.91 0 0 1 4.1-4 4 4 0 0 1 4.1 4zm-9-3.8l-.4 1.6a2.5 2.5 0 0 0-1.3-.3 1.79 1.79 0 0 0-1.8 2v4.1h-1.6v-7.5h1.6v.9a2.57 2.57 0 0 1 2.2-1 3.92 3.92 0 0 1 1.3.2zm-7.1 1.5h-2.9v3.3c0 1 .5 1.4 1.2 1.4a2.69 2.69 0 0 0 1.5-.5l.7 1.3a4.18 4.18 0 0 1-2.3.7c-1.7 0-2.7-.9-2.7-2.9v-3.3h-1.5v-1.5h1.5V430h1.7v2.3h2.9v1.5zm-7.5 1.3v4.7h-1.7v-4.2c0-1.3-.7-2-1.8-2a1.89 1.89 0 0 0-2 2v4.2h-1.7v-7.5h1.6v.9a2.57 2.57 0 0 1 2.3-1.1 3 3 0 0 1 3.3 3zm-15.5 1a2.31 2.31 0 0 0 2.4 2.4 2.37 2.37 0 0 0 2.4-2.4 2.31 2.31 0 0 0-2.4-2.4 2.21 2.21 0 0 0-2.4 2.4zm6.4 0a3.91 3.91 0 0 1-4.1 4 4 4 0 0 1-4.1-4 4.1 4.1 0 1 1 8.2 0zm-9.5-5.2l-1.5 1a3.7 3.7 0 0 0-3.1-1.6 3.75 3.75 0 0 0-3.9 4 3.81 3.81 0 0 0 3.9 4 3.7 3.7 0 0 0 3.1-1.6l1.4 1.1a5.24 5.24 0 0 1-4.5 2.2 5.7 5.7 0 0 1-4.936-8.55 5.7 5.7 0 0 1 4.936-2.85 5.25 5.25 0 0 1 4.6 2.3zm78-15.6a4.84 4.84 0 0 0-2.3-.6c-.9 0-1.4.4-1.4.9s.6.7 1.2.8l.8.1c1.6.2 2.6.9 2.6 2.2s-1.3 2.5-3.4 2.5a5.61 5.61 0 0 1-3.2-1l.8-1.2a3.89 3.89 0 0 0 2.5.8c1.1 0 1.7-.4 1.7-.9s-.4-.7-1.3-.8l-.8-.1c-1.7-.2-2.6-1-2.6-2.2 0-1.5 1.2-2.4 3.1-2.4a5.94 5.94 0 0 1 3.1.8l-.8 1.1zm-7.9 0a4.84 4.84 0 0 0-2.3-.6c-.9 0-1.4.4-1.4.9s.6.7 1.2.8l.8.1c1.6.2 2.6.9 2.6 2.2s-1.3 2.5-3.4 2.5a5.61 5.61 0 0 1-3.2-1l.8-1.2a3.89 3.89 0 0 0 2.5.8c1.1 0 1.7-.4 1.7-.9s-.4-.7-1.3-.8l-.8-.1c-1.7-.2-2.6-1-2.6-2.2 0-1.5 1.2-2.4 3.1-2.4a5.94 5.94 0 0 1 3.1.8l-.8 1.1zm-12.8 1.2h3.9c-.2-1.2-.9-1.9-1.9-1.9a2.14 2.14 0 0 0-2 1.9zm5.6.7v.6h-5.6a2.07 2.07 0 0 0 2.2 1.9 3.49 3.49 0 0 0 2.2-.8l.8 1.2a4.55 4.55 0 0 1-3.1 1.1 3.75 3.75 0 0 1-3.9-4 3.68 3.68 0 0 1 3.8-4c2.2 0 3.6 1.6 3.6 4zm-8.1-3.8l-.4 1.6a2.77 2.77 0 0 0-1.3-.3 1.79 1.79 0 0 0-1.8 2v4.1h-1.6v-7.5h1.6v.9a2.57 2.57 0 0 1 2.2-1 5.07 5.07 0 0 1 1.3.2zm-13.6 3.7a2.13 2.13 0 0 0 2.2 2.3 2.3 2.3 0 0 0 0-4.6 2.13 2.13 0 0 0-2.2 2.3zm4.3-2.8v-.9h1.7v7c0 2.4-1.5 3.8-4 3.8a5.71 5.71 0 0 1-3.2-.9l.6-1.4a4.7 4.7 0 0 0 2.6.8 2.18 2.18 0 0 0 2.4-2.3v-.6a3.1 3.1 0 0 1-2.5 1.1 3.65 3.65 0 0 1-3.5-3.9 3.71 3.71 0 0 1 3.5-3.9 3.49 3.49 0 0 1 2.4 1.2zm-8 1.9v4.7h-1.7v-4.1c0-1.3-.7-2-1.8-2a1.89 1.89 0 0 0-2 2v4.2h-1.7v-7.5h1.6v.9a2.57 2.57 0 0 1 2.3-1.1 2.86 2.86 0 0 1 3.3 2.9zm-9.8 4.8h-1.8v-11h1.8zm-10.6-3.9l2.8 3.9h-2l-1.9-2.6-1.9 2.6h-1.9l2.8-3.8-2.8-3.7h2l1.8 2.5 1.8-2.5h1.9l-2.6 3.6zm-6.4-.9v4.7h-1.7v-4.1c0-1.3-.7-2-1.8-2a1.89 1.89 0 0 0-2 2v4.2h-1.7v-7.5h1.6v.9a2.57 2.57 0 0 1 2.3-1.1 2.86 2.86 0 0 1 3.3 2.9zm-9.6 4.8h-1.7v-7.5h1.7zm.4-10.2a1.08 1.08 0 0 1-1.2 1.1c-.2 0-.3 0-.4-.1s-.3-.1-.4-.2a.52.52 0 0 1-.2-.4.6.6 0 0 1-.1-.4 1.13 1.13 0 0 1 1.1-1.2c.2 0 .3 0 .4.1s.3.1.4.3a1.38 1.38 0 0 1 .3.4c0 .1.1.3.1.4zm-10.6 6.3a2.13 2.13 0 0 0 2.2 2.3 2.3 2.3 0 0 0 1.762-3.888 2.3 2.3 0 0 0-3.962 1.588zm4.4-2.8v-.9h1.7v7c0 2.4-1.5 3.8-4 3.8a5.71 5.71 0 0 1-3.2-.9l.6-1.4a4.7 4.7 0 0 0 2.6.8 2.18 2.18 0 0 0 2.4-2.3v-.6a3.1 3.1 0 0 1-2.5 1.1 3.65 3.65 0 0 1-3.5-3.9 3.36 3.36 0 0 1 5.9-2.7zm-8.3 6.7h-1.6l-6.1-8v8h-1.8v-11h1.6l6.2 8v-8h1.8v11z"
     id="path231" /><path
     d="M1567.6 591.9v2.1h-2.1"
     class="o p q r"
     id="path233" /><path
     d="M1419.7 594.4h-4.2v-.9h4.2m6.3.9h-4.2v-.9h4.2m6.2.9h-4.2v-.9h4.2m6.3.9h-4.2v-.9h4.2m6.2.9h-4.2v-.9h4.2m6.3.9h-4.2v-.9h4.2m6.2.9h-4.2v-.9h4.2m6.3.9h-4.2v-.9h4.2m6.2.9h-4.2v-.9h4.2m6.3.9h-4.2v-.9h4.2m6.2.9h-4.2v-.9h4.2m6.3.9h-4.2v-.9h4.2m6.2.9h-4.2v-.9h4.2m6.3.9h-4.2v-.9h4.2m6.2.9h-4.2v-.9h4.2m6.3.9h-4.2v-.9h4.2m6.2.9h-4.2v-.9h4.2m6.3.9h-4.2v-.9h4.2m6.2.9h-4.2v-.9h4.2m6.3.9h-4.2v-.9h4.2m6.2.9h-4.2v-.9h4.2m6.2.9h-4.2v-.9h4.2m6.3.9h-4.2v-.9h4.2m6.2.9h-4.2v-.9h4.2"
     class="s"
     id="path235" /><path
     d="M1413.5 594h-2.1v-2.1"
     class="o p q r"
     id="path237" /><path
     d="M1410.9 476.5v-4.2h.9v4.2m-.9 6.3v-4.2h.9v4.2m-.9 6.3v-4.2h.9v4.2m-.9 6.3v-4.2h.9v4.2m-.9 6.3v-4.2h.9v4.2m-.9 6.3v-4.2h.9v4.2m-.9 6.3v-4.2h.9v4.2m-.9 6.3v-4.2h.9v4.2m-.9 6.2v-4.2h.9v4.2m-.9 6.3v-4.2h.9v4.2m-.9 6.3v-4.2h.9v4.2m-.9 6.3v-4.2h.9v4.2m-.9 6.3v-4.2h.9v4.2m-.9 6.3v-4.2h.9v4.2m-.9 6.3v-4.2h.9v4.2m-.9 6.3v-4.2h.9v4.2m-.9 6.3V573h.9v4.2m-.9 6.3v-4.2h.9v4.2m-.9 6.3v-4.2h.9v4.2"
     class="s"
     id="path239" /><path
     d="M1411.4 470.2v-2.1h2.1"
     class="o p q r"
     id="path241" /><path
     d="M1559.3 467.7h4.2v.9h-4.2m-6.3-.9h4.2v.9h-4.2m-6.2-.9h4.2v.9h-4.2m-6.3-.9h4.2v.9h-4.2m-6.2-.9h4.2v.9h-4.2m-6.3-.9h4.2v.9h-4.2m-6.2-.9h4.2v.9h-4.2m-6.3-.9h4.2v.9h-4.2m-6.2-.9h4.2v.9h-4.2m-6.3-.9h4.2v.9h-4.2m-6.2-.9h4.2v.9h-4.2m-6.3-.9h4.2v.9h-4.2m-6.2-.9h4.2v.9h-4.2m-6.3-.9h4.2v.9h-4.2m-6.2-.9h4.2v.9h-4.2m-6.3-.9h4.2v.9h-4.2m-6.2-.9h4.2v.9h-4.2m-6.2-.9h4.2v.9h-4.2m-6.3-.9h4.2v.9h-4.2m-6.2-.9h4.2v.9h-4.2m-6.3-.9h4.2v.9h-4.2m-6.2-.9h4.2v.9h-4.2m-6.3-.9h4.2v.9h-4.2m-6.2-.9h4.2v.9h-4.2"
     class="s"
     id="path243" /><path
     d="M1565.5 468.1h2.1v2.1"
     class="o p q r"
     id="path245" /><path
     d="M1568.1 585.6v4.2h-.9v-4.2m.9-6.3v4.2h-.9v-4.2m.9-6.3v4.2h-.9V573m.9-6.3v4.2h-.9v-4.2m.9-6.3v4.2h-.9v-4.2m.9-6.3v4.2h-.9v-4.2m.9-6.3v4.2h-.9v-4.2m.9-6.3v4.2h-.9v-4.2m.9-6.3v4.2h-.9v-4.2m.9-6.3v4.2h-.9v-4.2m.9-6.2v4.2h-.9v-4.2m.9-6.3v4.2h-.9v-4.2m.9-6.3v4.2h-.9v-4.2m.9-6.3v4.2h-.9v-4.2m.9-6.3v4.2h-.9v-4.2m.9-6.3v4.2h-.9v-4.2m.9-6.3v4.2h-.9v-4.2m.9-6.3v4.2h-.9v-4.2m.9-6.3v4.2h-.9v-4.2"
     class="s"
     id="path247" /><path
     d="m 1520.2614,601.98117 a 5.71,5.71 0 0 0 -3.1,-1 c -1.5,0 -2.7,0.7 -2.7,1.9 0,1 0.8,1.5 2.4,1.7 l 1,0.1 c 1.7,0.2 3.2,0.9 3.2,2.7 0,2 -1.8,3.1 -4.1,3.1 a 6.39,6.39 0 0 1 -4,-1.3 l 0.6,-0.9 a 5.51,5.51 0 0 0 3.4,1.1 c 1.6,0 2.8,-0.6 2.8,-1.9 0,-1 -0.9,-1.5 -2.5,-1.7 l -1,-0.1 c -1.8,-0.2 -3,-1 -3,-2.7 0,-2 1.7,-3 3.9,-3 a 6.76,6.76 0 0 1 3.7,1.1 z m -15.5,-0.9 v 3.6 h 2.8 q 2.4,0 2.4,-1.8 0,-1.8 -2.4,-1.8 z m 2.9,-1.1 c 2.3,0 3.6,1 3.6,2.9 0,1.9 -1.4,2.9 -3.6,2.9 h -0.2 l 3.7,4.5 h -1.5 l -3.6,-4.5 h -1.3 v 4.5 h -1.2 v -10.3 z m -6.7,10.3 h -7.2 v -10.3 h 7.2 v 1.1 h -6 v 3.4 h 5.8 v 1.1 h -5.8 v 3.5 h 6.1 v 1.2 z m -10.4,-8.3 a 5.71,5.71 0 0 0 -3.1,-1 c -1.5,0 -2.7,0.7 -2.7,1.9 0,1 0.8,1.5 2.4,1.7 l 1,0.1 c 1.7,0.2 3.2,0.9 3.2,2.7 0,2 -1.9,3.1 -4.1,3.1 a 6.39,6.39 0 0 1 -4,-1.3 l 0.6,-0.9 a 5.51,5.51 0 0 0 3.4,1.1 c 1.6,0 2.9,-0.6 2.9,-1.9 0,-1 -0.9,-1.5 -2.5,-1.7 l -1,-0.1 c -1.8,-0.2 -3,-1 -3,-2.7 0,-2 1.7,-3 3.9,-3 a 6.76,6.76 0 0 1 3.7,1.1 z m -9.6,4.3 a 3.93,3.93 0 0 1 -4.2,4.2 3.89,3.89 0 0 1 -4.2,-4.2 v -6.3 h 1.2 v 6.2 a 2.79,2.79 0 0 0 3.1,3.1 2.84,2.84 0 0 0 3.1,-3.1 v -6.2 h 1.2 v 6.3 z"
     id="path249" /><path
     d="M1002.6 313.3c-4.9 0-8.6 2.1-8.6 6s3.7 6 8.6 6 8.6-2.1 8.6-6-3.7-6-8.6-6zm0 14.1c-6.5 0-11.2-3.1-11.2-8.1s4.7-8.1 11.2-8.1 11.2 3.1 11.2 8.1-4.5 8.1-11.2 8.1zm-16.6-.3v-15.5h2.5v15.5zm-4.3-15.5h-5.4v7.1a.55.55 0 0 1-.8.5l-13.9-7.4a1.45 1.45 0 0 0-.7-.2h0a1.54 1.54 0 0 0-1.5 1.5v14h5.3v-7a.55.55 0 0 1 .8-.5l13.9 7.4c.1.1.2.1.4.1h.4a.6.6 0 0 0 .4-.1c.1 0 .2-.1.3-.2s.2-.1.3-.2.2-.2.2-.3a.37.37 0 0 0 .1-.3v-.4l.2-14zm-38 .1l-10.7 6.6a.45.45 0 0 1-.5 0l-10.7-6.6a1.88 1.88 0 0 0-.8-.2h0a1.54 1.54 0 0 0-1.5 1.5v14.1h5.3v-6.7a.57.57 0 0 1 .8-.5l6 3.7a1.69 1.69 0 0 0 1 .3 1.93 1.93 0 0 0 1-.3l6.3-3.7a.45.45 0 0 1 .5 0 .55.55 0 0 1 .3.5v6.7h5.3V313a1.54 1.54 0 0 0-1.5-1.5h0a1.88 1.88 0 0 0-.8.2zm6.3-.1h5.3v15.5H950z"
     fill="#c52e48"
     id="path251" /><path
     d="M1018.3 342.5h4.8a2.39 2.39 0 0 0-2.3-2.3 2.59 2.59 0 0 0-2.5 2.3zm6 .6v.4h-6a2.53 2.53 0 0 0 2.6 2.4 4.17 4.17 0 0 0 2.4-.9l.6.8a4.21 4.21 0 0 1-3.1 1.2 3.9 3.9 0 0 1-.1-7.8 3.6 3.6 0 0 1 3.6 3.9zm-15.7-.1a2.55 2.55 0 0 0 2.6 2.7 2.7 2.7 0 0 0 2.045-4.571A2.7 2.7 0 0 0 1008.6 343zm5.2-2.5v-1.1h1.2v6.9a3.6 3.6 0 0 1-3.9 3.8 5 5 0 0 1-3.1-1l.5-.9a4.11 4.11 0 0 0 2.6.9 2.55 2.55 0 0 0 2.8-2.7v-.8a3.23 3.23 0 0 1-2.7 1.3 3.65 3.65 0 0 1-3.7-3.8 3.6 3.6 0 0 1 3.7-3.8 2.85 2.85 0 0 1 2.6 1.2zm-15 2.6a2.71 2.71 0 0 0 2.7 2.8 2.8 2.8 0 0 0 2.116-4.742 2.8 2.8 0 0 0-4.816 1.942zm6.4 3.7h-1.2v-1.1a3.23 3.23 0 0 1-2.7 1.3 3.68 3.68 0 0 1-3.7-3.9 3.74 3.74 0 0 1 3.7-3.9 3.23 3.23 0 0 1 2.7 1.3v-1.1h1.2v7.4zm-8.5-7.3l-.3 1.2a3.08 3.08 0 0 0-1.3-.3 2 2 0 0 0-2 2.3v4.2h-1.2v-7.5h1.2v1a2.51 2.51 0 0 1 2.2-1.2 2.9 2.9 0 0 1 1.4.3zm-13.6 3.6a2.7 2.7 0 0 0 5.398-.132 2.7 2.7 0 0 0-2.698-2.668 2.71 2.71 0 0 0-2.7 2.8zm6.7 0a3.9 3.9 0 0 1-6.658 2.758 3.9 3.9 0 0 1 2.758-6.658 3.84 3.84 0 0 1 3.9 3.9zm-9.3-2.7h-3.2v3.8c0 1.2.6 1.7 1.5 1.7a3 3 0 0 0 1.6-.5l.6.9a3.6 3.6 0 0 1-2.2.7c-1.6 0-2.6-.9-2.6-2.8v-3.8h-1.6v-1.1h1.6v-2.4h1.2v2.4h3.2v1.1zm-8.2-2.5a5.58 5.58 0 0 0-3.3-1c-1.7 0-2.8.7-2.8 2 0 1 .8 1.6 2.5 1.8l1 .1c1.8.2 3.4 1 3.4 2.9 0 2.2-2 3.3-4.4 3.3a7.36 7.36 0 0 1-4.3-1.4l.7-1a6.43 6.43 0 0 0 3.6 1.2c1.7 0 3.1-.7 3.1-2 0-1.1-.9-1.6-2.7-1.8l-1-.2c-1.9-.2-3.3-1.1-3.3-2.9 0-2.1 1.9-3.3 4.2-3.3a7 7 0 0 1 4 1.2l-.7 1.1zm-13.6 2.5h-3.2v3.8c0 1.2.6 1.7 1.5 1.7a3 3 0 0 0 1.6-.5l.6.9a3.6 3.6 0 0 1-2.2.7c-1.6 0-2.6-.9-2.6-2.8v-3.8h-1.6v-1.1h1.6v-2.4h1.2v2.4h3.2l-.1 1.1zm-7.2 0l-.8.8a3.08 3.08 0 0 0-2-.9 2.81 2.81 0 0 0 0 5.6 3.33 3.33 0 0 0 2.1-.9l.7.8a3.63 3.63 0 0 1-2.8 1.2 3.9 3.9 0 1 1 0-7.8 3.63 3.63 0 0 1 2.8 1.2zm-14.2 2.1h4.8a2.32 2.32 0 0 0-2.3-2.3 2.59 2.59 0 0 0-2.5 2.3zm6 .6v.4h-6a2.53 2.53 0 0 0 2.6 2.4 4.17 4.17 0 0 0 2.4-.9l.6.8a4.21 4.21 0 0 1-3.1 1.2 3.9 3.9 0 0 1-.1-7.8 3.6 3.6 0 0 1 3.6 3.9zm-9.2-6.4a.37.37 0 0 1-.1.3c0 .1-.1.2-.2.3s-.2.1-.3.2-.2.1-.3.1a.37.37 0 0 1-.3-.1c-.1 0-.2-.1-.3-.2s-.1-.2-.2-.3-.1-.2-.1-.3a.79.79 0 0 1 .8-.8c.7 0 1 .3 1 .8zm-.2 11.3a1.77 1.77 0 0 1-1.9 2 2 2 0 0 1-1.1-.3l.3-1a1.45 1.45 0 0 0 .7.2c.5 0 .8-.3.8-1v-8.6h1.2v8.7zm-9.9-4.9a2.7 2.7 0 0 0 4.05 2.338 2.7 2.7 0 0 0 1.35-2.338 2.71 2.71 0 0 0-2.7-2.8 2.65 2.65 0 0 0-2.7 2.8zm6.5 0a3.74 3.74 0 0 1-3.7 3.9 3.23 3.23 0 0 1-2.7-1.3v1.1h-1.2v-11.3h1.2v5a3.23 3.23 0 0 1 2.7-1.3 3.68 3.68 0 0 1 3.7 3.9zm-20-1.8a4.2 4.2 0 0 0 4.4 4.4 4.25 4.25 0 0 0 4.4-4.4 4.2 4.2 0 0 0-4.4-4.4 4.15 4.15 0 0 0-4.4 4.4zm10 0a5.7 5.7 0 1 1-11.4 0 5.7 5.7 0 0 1 5.7-5.7 5.52 5.52 0 0 1 5.7 5.7z"
     id="path253" /><g
     class="o p AA"
     id="g261"><path
       d="M614.4 174.5v36.7c0 5.799 4.701 10.5 10.5 10.5h507.5a12.31 12.31 0 0 0 2-.2 7.62 7.62 0 0 0 2-.6 16.18 16.18 0 0 0 1.8-1 10 10 0 0 0 2.9-2.9 16.18 16.18 0 0 0 1-1.8 6.64 6.64 0 0 0 .6-2 15 15 0 0 0 .2-2v-36.7"
       class="q"
       id="path255" /><path
       d="M790.6 174.5v36.7c0 5.799 4.701 10.5 10.5 10.5h165.7"
       stroke-width="1.16"
       id="path257" /><path
       d="M966.8 174.5v106.1"
       class="q"
       id="path259" /></g><path
     d="M1318.6 311.1v20.4"
     class="o p z AA"
     id="path265" /><path
     d="M1318.6 332.5l3.6-6.3h-7.3zm0-22.4l-3.6 6.3h7.3z"
     id="path267" /><path
     d="M1236.3 394.7h-78.2a12.31 12.31 0 0 1-2-.2 7.62 7.62 0 0 1-2-.6 16.18 16.18 0 0 1-1.8-1 10 10 0 0 1-2.9-2.9 16.18 16.18 0 0 1-1-1.8 6.64 6.64 0 0 1-.6-2 15 15 0 0 1-.2-2v-47a12.31 12.31 0 0 0-.2-2 7.62 7.62 0 0 0-.6-2 16.18 16.18 0 0 0-1-1.8 10 10 0 0 0-2.9-2.9 16.18 16.18 0 0 0-1.8-1 6.64 6.64 0 0 0-2-.6 15 15 0 0 0-2-.2H1105"
     class="o p z AA"
     id="path269" /><path
     d="M1104.2 326.7l6.3 3.6v-7.2l-6.3 3.6z"
     id="path271" /><path
     d="M1489.5 468.1v-62.9c0-5.799-4.701-10.5-10.5-10.5h-78.1"
     class="o p z AA"
     id="path273" /><path
     d="M1400.2 394.7l6.3 3.7v-7.3l-6.3 3.6z"
     id="path275" /><g
     class="p t"
     id="g303"><path
       d="M768.9 79.6h43.4l-21.7 40.9-21.7-40.9z"
       class="o v"
       id="path277" /><g
       class="y"
       id="g299"><use
         xlink:href="#J"
         id="use279" /><use
         xlink:href="#J"
         x="7.7"
         id="use281" /><use
         xlink:href="#J"
         x="3.9"
         id="use283" /><use
         xlink:href="#J"
         y="6.8"
         id="use285" /><use
         xlink:href="#J"
         x="7.7"
         y="6.8"
         id="use287" /><use
         xlink:href="#J"
         x="3.9"
         y="6.8"
         id="use289" /><use
         xlink:href="#J"
         y="3.4"
         id="use291" /><use
         xlink:href="#J"
         x="7.7"
         y="3.4"
         id="use293" /><use
         xlink:href="#J"
         x="3.9"
         y="3.4"
         id="use295" /><use
         xlink:href="#J"
         x="3.9"
         y="10.2"
         id="use297" /></g><path
       d="M1154.7 99.1h-11.6v6.9h9.5a2.35 2.35 0 0 0 .8-.2 1.79 1.79 0 0 0 .7-.5 4.23 4.23 0 0 0 .5-.7 2.35 2.35 0 0 0 .2-.8v-4.7zm-13.9 0h-11.6v4.8a2.35 2.35 0 0 0 .2.8 1.79 1.79 0 0 0 .5.7 4.23 4.23 0 0 0 .7.5 2.35 2.35 0 0 0 .8.2h9.5v-7zm-11.6-9.7h25.6v6.9h-25.6zm23.4-9.6h-21.4a2.35 2.35 0 0 0-.8.2 1.79 1.79 0 0 0-.7.5 4.23 4.23 0 0 0-.5.7 2.35 2.35 0 0 0-.2.8v4.8h25.6V82a2.35 2.35 0 0 0-.2-.8 1.79 1.79 0 0 0-.5-.7 4.23 4.23 0 0 0-.7-.5c0-.2-.3-.2-.6-.2z"
       stroke-width="2"
       class="o"
       id="path301" /></g><path
     d="M964.8 76.1v.2a11.94 11.94 0 0 0-4.4 2.1 10.27 10.27 0 0 0-7.8.3 11.27 11.27 0 0 0 2 7.6 20.69 20.69 0 0 0-1 4.3 10.13 10.13 0 0 0-4.9 5.7 11.24 11.24 0 0 0 6.8 3.9 19.92 19.92 0 0 0 2.4 3.3 8 8 0 0 0 .2 6 10 10 0 0 0 6.3-1.9 16 16 0 0 0 5.8.8 6.83 6.83 0 0 0 4.6 2.7 7.14 7.14 0 0 0 2.2-5 13.05 13.05 0 0 0 3.6-3.8 6 6 0 0 0 4-1.5 5.39 5.39 0 0 0-2.2-3.9 10 10 0 0 0-10.3-11.4 8 8 0 0 0-7 4.9c-1.4 3.3.1 7.5 3.7 8.5a4.79 4.79 0 0 0 3.7-.3c.4-.2 1.1-.5.7-1a.38.38 0 0 0-.6 0 3.92 3.92 0 0 1-1.8.4 4.21 4.21 0 0 1-3.9-4.4c.7-6.1 8.3-6.2 10.8-1.3 2.5 5.2-2.2 11.4-7.8 11.2h0c-6.017-.152-10.813-5.081-10.8-11.1.2-6.9 4.6-12.1 11.6-12.4 6.5-.5 12.5 4.4 13.9 10.6a.31.31 0 0 0 .6-.1 14.29 14.29 0 0 0-4.4-10.4 5.4 5.4 0 0 0-.7-4.1 7 7 0 0 0-4 1 18.23 18.23 0 0 0-4-1.1 3.7 3.7 0 0 0-5.771-3.541A3.7 3.7 0 0 0 964.8 76.1"
     class="AC"
     id="path305" /><g
     class="p t"
     id="g345"><g
       class="o"
       id="g315"><path
         d="M621.5 81.1H605l-8.3 14.3 8.3 14.4h16.5l8.3-14.4-8.3-14.3z"
         class="v"
         id="path307" /><path
         d="M632.1 88.1h-31.2l-4.2 7.3 4.2 7.4h31.2V88.1z"
         class="y"
         id="path309" /><path
         d="M1335.9 384v-20l-17.4-10-17.4 10v20l17.4 10zM609 88.1l-4.2 7.3 4.2 7.3m8.5.1l4.2-7.3-4.2-7.3"
         class="v"
         id="path311" /><path
         d="M1325.2 378.6l-4-3.2m3.9-6l-4 3.2m4.1 1.3h-4m4-2h4.2v4.2h-4.2zm0 6.1h4.2v4.2h-4.2zm0-12.3h4.2v4.2h-4.2zm-17.5 1.5h13.4v13.4h-13.4z"
         class="y"
         id="path313" /></g><g
       class="v"
       id="g337"><path
         d="M1451.8 537.8a2 2 0 0 1-.1.8c-.1.3-.1.5-.2.8a1.61 1.61 0 0 1-.4.7c-.2.2-.3.5-.5.7a1.79 1.79 0 0 1-.7.5 2.51 2.51 0 0 1-.7.4 2.35 2.35 0 0 1-.8.2c-.3 0-.6.1-.8.1a2 2 0 0 1-.8-.1c-.3-.1-.5-.1-.8-.2a1.61 1.61 0 0 1-.7-.4c-.2-.2-.5-.3-.7-.5a1.79 1.79 0 0 1-.5-.7 2.51 2.51 0 0 1-.4-.7 2.35 2.35 0 0 1-.2-.8 2.49 2.49 0 0 1-.1-.8 2 2 0 0 1 .1-.8c.1-.2.1-.5.2-.8a1.61 1.61 0 0 1 .4-.7c.2-.2.3-.5.5-.7a1.79 1.79 0 0 1 .7-.5 2.51 2.51 0 0 1 .7-.4 1.88 1.88 0 0 1 .8-.2c.3 0 .6-.1.8-.1a2 2 0 0 1 .8.1c.3.1.5.1.8.2a1.61 1.61 0 0 1 .7.4c.2.2.5.3.7.5a1.79 1.79 0 0 1 .5.7 4.35 4.35 0 0 0 .4.7 2.35 2.35 0 0 1 .2.8 2.2 2.2 0 0 1 .1.8z"
         id="path317" /><use
         xlink:href="#K"
         class="o"
         id="use319" /><path
         d="M1472.8 537.8a2 2 0 0 1-.1.8c-.1.3-.1.5-.2.8a1.61 1.61 0 0 1-.4.7c-.2.2-.3.5-.5.7a1.79 1.79 0 0 1-.7.5 2.51 2.51 0 0 1-.7.4 2.35 2.35 0 0 1-.8.2c-.3 0-.6.1-.8.1a2 2 0 0 1-.8-.1c-.3-.1-.5-.1-.8-.2a1.61 1.61 0 0 1-.7-.4c-.2-.2-.5-.3-.7-.5a1.79 1.79 0 0 1-.5-.7 2.51 2.51 0 0 1-.4-.7 1.88 1.88 0 0 1-.2-.8 2.49 2.49 0 0 1-.1-.8 2 2 0 0 1 .1-.8c.1-.3.1-.5.2-.8a1.61 1.61 0 0 1 .4-.7c.2-.2.3-.5.5-.7a1.79 1.79 0 0 1 .7-.5 2.51 2.51 0 0 1 .7-.4 2.35 2.35 0 0 1 .8-.2 2.49 2.49 0 0 1 .8-.1 2 2 0 0 1 .8.1c.3.1.5.1.8.2a1.61 1.61 0 0 1 .7.4c.2.2.5.3.7.5a1.79 1.79 0 0 1 .5.7 2.51 2.51 0 0 1 .4.7 1.88 1.88 0 0 1 .2.8 2.2 2.2 0 0 1 .1.8z"
         id="path321" /><path
         d="M1475.3 553.6v-2a5.7 5.7 0 0 0-.1-1.3 6.47 6.47 0 0 0-.4-1.3l-.6-1.2a3.92 3.92 0 0 0-.8-1 7 7 0 0 0-1-.8 6.72 6.72 0 0 0-1.2-.6 5 5 0 0 0-1.3-.4 8.5 8.5 0 0 0-2.6 0 6.47 6.47 0 0 0-1.3.4l-1.2.6a3.92 3.92 0 0 0-1 .8 7 7 0 0 0-.8 1 6.72 6.72 0 0 0-.6 1.2c-.1.4-.3.8-.4 1.3a6.15 6.15 0 0 0-.1 1.3v2z"
         class="o"
         id="path323" /><path
         d="M1493.8 537.8a2 2 0 0 1-.1.8c-.1.3-.1.5-.2.8a1.61 1.61 0 0 1-.4.7c-.2.2-.3.5-.5.7a1.79 1.79 0 0 1-.7.5 2.51 2.51 0 0 1-.7.4 2.35 2.35 0 0 1-.8.2 2.49 2.49 0 0 1-.8.1 2 2 0 0 1-.8-.1c-.3-.1-.5-.1-.8-.2a1.61 1.61 0 0 1-.7-.4c-.2-.2-.5-.3-.7-.5a1.79 1.79 0 0 1-.5-.7 2.51 2.51 0 0 1-.4-.7 1.88 1.88 0 0 1-.2-.8 2.49 2.49 0 0 1-.1-.8 2 2 0 0 1 .1-.8c.1-.3.1-.5.2-.8a1.61 1.61 0 0 1 .4-.7c.2-.2.3-.5.5-.7a1.79 1.79 0 0 1 .7-.5 2.51 2.51 0 0 1 .7-.4 1.88 1.88 0 0 1 .8-.2 2.49 2.49 0 0 1 .8-.1 2.2 2.2 0 0 1 .8.1c.3.1.5.1.8.2a1.61 1.61 0 0 1 .7.4c.2.2.5.3.7.5a1.79 1.79 0 0 1 .5.7 4.35 4.35 0 0 0 .4.7 2.35 2.35 0 0 1 .2.8 2.2 2.2 0 0 1 .1.8z"
         id="path325" /><use
         xlink:href="#K"
         x="42"
         class="o"
         id="use327" /><path
         d="M1514.8 537.8a2 2 0 0 1-.1.8c-.1.3-.1.5-.2.8a1.61 1.61 0 0 1-.4.7c-.2.2-.3.5-.5.7a1.79 1.79 0 0 1-.7.5 2.51 2.51 0 0 1-.7.4 2.35 2.35 0 0 1-.8.2c-.3 0-.6.1-.8.1a2 2 0 0 1-.8-.1c-.3-.1-.5-.1-.8-.2a1.61 1.61 0 0 1-.7-.4c-.2-.2-.5-.3-.7-.5a1.79 1.79 0 0 1-.5-.7 2.51 2.51 0 0 1-.4-.7 2.35 2.35 0 0 1-.2-.8 2.49 2.49 0 0 1-.1-.8 2 2 0 0 1 .1-.8c.1-.3.1-.5.2-.8a1.61 1.61 0 0 1 .4-.7c.2-.2.3-.5.5-.7a1.79 1.79 0 0 1 .7-.5 2.51 2.51 0 0 1 .7-.4 2.35 2.35 0 0 1 .8-.2 2.49 2.49 0 0 1 .8-.1 2.2 2.2 0 0 1 .8.1c.3.1.5.1.8.2a1.61 1.61 0 0 1 .7.4c.2.2.5.3.7.5a1.79 1.79 0 0 1 .5.7 2.51 2.51 0 0 1 .4.7 2.35 2.35 0 0 1 .2.8c0 .3.1.5.1.8z"
         id="path329" /><path
         d="M1517.2 553.6v-2a5.7 5.7 0 0 0-.1-1.3 6.47 6.47 0 0 0-.4-1.3l-.6-1.2a3.92 3.92 0 0 0-.8-1 7 7 0 0 0-1-.8 6.72 6.72 0 0 0-1.2-.6 5 5 0 0 0-1.3-.4 8.5 8.5 0 0 0-2.6 0 6.47 6.47 0 0 0-1.3.4l-1.2.6a3.92 3.92 0 0 0-1 .8 7 7 0 0 0-.8 1 6.72 6.72 0 0 0-.6 1.2c-.1.4-.3.8-.4 1.3a5.7 5.7 0 0 0-.1 1.3v2z"
         class="o"
         id="path331" /><path
         d="M1535.7 537.8a2 2 0 0 1-.1.8c-.1.3-.1.5-.2.8a1.61 1.61 0 0 1-.4.7c-.2.2-.3.5-.5.7a1.79 1.79 0 0 1-.7.5 2.51 2.51 0 0 1-.7.4 2.35 2.35 0 0 1-.8.2c-.3 0-.6.1-.8.1a2 2 0 0 1-.8-.1c-.3-.1-.5-.1-.8-.2a1.61 1.61 0 0 1-.7-.4c-.2-.2-.5-.3-.7-.5a1.79 1.79 0 0 1-.5-.7 2.51 2.51 0 0 1-.4-.7 2.35 2.35 0 0 1-.2-.8 2.49 2.49 0 0 1-.1-.8 2 2 0 0 1 .1-.8c.1-.3.1-.5.2-.8a1.61 1.61 0 0 1 .4-.7c.2-.2.3-.5.5-.7a1.79 1.79 0 0 1 .7-.5 2.51 2.51 0 0 1 .7-.4 1.88 1.88 0 0 1 .8-.2 2.49 2.49 0 0 1 .8-.1 2 2 0 0 1 .8.1c.3.1.5.1.8.2a1.61 1.61 0 0 1 .7.4c.2.2.5.3.7.5a1.79 1.79 0 0 1 .5.7 4.35 4.35 0 0 0 .4.7 2.35 2.35 0 0 1 .2.8 2.2 2.2 0 0 1 .1.8z"
         id="path333" /><path
         d="M1538.2 553.6v-2a5.7 5.7 0 0 0-.1-1.3 6.47 6.47 0 0 0-.4-1.3l-.6-1.2a3.92 3.92 0 0 0-.8-1 7 7 0 0 0-1-.8 4.49 4.49 0 0 0-1.2-.6 5 5 0 0 0-1.3-.4 8.5 8.5 0 0 0-2.6 0 6.47 6.47 0 0 0-1.3.4l-1.2.6a3.92 3.92 0 0 0-1 .8 7 7 0 0 0-.8 1 6.72 6.72 0 0 0-.6 1.2 5 5 0 0 0-.4 1.3 5.7 5.7 0 0 0-.1 1.3v2zm-232.1-321.4h25v18.7h-25z"
         class="o"
         id="path335" /></g><path
       d="M1320.5 240a1.45 1.45 0 0 0-.2-.7 1.84 1.84 0 0 0-1-1 1.7 1.7 0 0 0-.7-.1 1.85 1.85 0 0 0-.7.2 1.84 1.84 0 0 0-1 1 6.37 6.37 0 0 0-.2.7 2.28 2.28 0 0 0 .3 1.1 1.6 1.6 0 0 0 .9.7v2.5a.7.7 0 1 0 1.4 0v-2.6a1.78 1.78 0 0 0 .8-.7 1.5 1.5 0 0 0 .4-1.1z"
       class="o y"
       id="path339" /><path
       d="M1325.1 229.1a6.15 6.15 0 0 0-.1-1.3 5.64 5.64 0 0 0-.4-1.2 10.91 10.91 0 0 0-.6-1.1 5.8 5.8 0 0 0-1.8-1.8l-1.1-.6a5.64 5.64 0 0 0-1.2-.4 5.28 5.28 0 0 0-1.3-.1 6.15 6.15 0 0 0-1.3.1 5.64 5.64 0 0 0-1.2.4 10.91 10.91 0 0 0-1.1.6 5.8 5.8 0 0 0-1.8 1.8l-.6 1.1a5.64 5.64 0 0 0-.4 1.2 5.28 5.28 0 0 0-.1 1.3v3.1h12.9v-3.1z"
       class="o v"
       id="path341" /><path
       d="M1332.3 215.4l-5.5 5.5m-21.9-5.5l5.5 5.5m-11.2 8.2h7.8m31 0h-7.8m-11.6-19.3v7.8"
       class="o y"
       id="path343" /></g><use
     xlink:href="#L"
     class="u"
     id="use347" /><g
     stroke="#6cc398"
     class="p"
     id="g365"><use
       xlink:href="#L"
       class="o x"
       id="use349" /><g
       class="z"
       id="g363"><path
         d="M1081.1 486.6a12.25 12.25 0 0 1-.2 1.9 12.09 12.09 0 0 1-.5 1.8 7 7 0 0 1-.9 1.7 7.89 7.89 0 0 1-1.2 1.5 9.83 9.83 0 0 1-1.5 1.2c-.5.3-1.1.6-1.7.9a12.09 12.09 0 0 1-1.8.5 9.12 9.12 0 0 1-3.8 0 12.09 12.09 0 0 1-1.8-.5 7 7 0 0 1-1.7-.9 8.7 8.7 0 0 1-2.7-2.7c-.3-.5-.6-1.1-.9-1.7a6.07 6.07 0 0 1-.5-1.8 11.08 11.08 0 0 1-.2-1.9 12.25 12.25 0 0 1 .2-1.9 12.09 12.09 0 0 1 .5-1.8 7 7 0 0 1 .9-1.7 7.89 7.89 0 0 1 1.2-1.5 8.78 8.78 0 0 1 1.5-1.2c.5-.3 1.1-.6 1.7-.9a12.09 12.09 0 0 1 1.8-.5 9.12 9.12 0 0 1 3.8 0 12.09 12.09 0 0 1 1.8.5 7 7 0 0 1 1.7.9 7.89 7.89 0 0 1 1.5 1.2 8.78 8.78 0 0 1 1.2 1.5c.3.5.6 1.1.9 1.7a6.07 6.07 0 0 1 .5 1.8 12.25 12.25 0 0 1 .2 1.9z"
         id="path351" /><path
         d="M1074.2 486.6a3 3 0 0 1-.2 1 2.36 2.36 0 0 1-.6.9 2.84 2.84 0 0 1-.9.6 3.55 3.55 0 0 1-1 .2 3 3 0 0 1-1-.2 2.36 2.36 0 0 1-.9-.6 2.84 2.84 0 0 1-.6-.9 3.55 3.55 0 0 1-.2-1 3 3 0 0 1 .2-1 2.36 2.36 0 0 1 .6-.9 2.84 2.84 0 0 1 .9-.6 2 2 0 0 1 1-.2 3.55 3.55 0 0 1 1 .2 2.36 2.36 0 0 1 .9.6 2.84 2.84 0 0 1 .6.9 3 3 0 0 1 .2 1z"
         id="path353" /><use
         xlink:href="#M"
         id="use355" /><use
         xlink:href="#M"
         x="-23.5"
         id="use357" /><use
         xlink:href="#N"
         id="use359" /><use
         xlink:href="#N"
         x="-23.5"
         id="use361" /></g></g><use
     xlink:href="#O"
     class="u"
     id="use367" /><g
     class="o p"
     id="g373"><use
       xlink:href="#O"
       stroke="#6cc398"
       class="z"
       id="use369" /><path
       d="M1086.3 571.8a11 11 0 0 0 .2-1.8c-.006-5.907-4.793-10.694-10.7-10.7a10.86 10.86 0 0 0-10.1 7 5.06 5.06 0 0 0-3.3-1.1 4.1 4.1 0 0 0-1.1.1c-.4.1-.7.2-1 .3a4.67 4.67 0 0 0-1 .5 2.7 2.7 0 0 0-.8.7 5 5 0 0 0-.7.8 3.13 3.13 0 0 0-.5 1c-.1.3-.2.7-.3 1a4.1 4.1 0 0 0-.1 1.1h0l-1.5.3a5.91 5.91 0 0 0-1.4.6 3.81 3.81 0 0 0-1.3.9 5.73 5.73 0 0 0-1.1 1.1 14.63 14.63 0 0 0-.9 1.3 4.24 4.24 0 0 0-.6 1.4 8.33 8.33 0 0 0-.4 1.5 8.08 8.08 0 0 0-.1 1.6 7.72 7.72 0 0 0 .2 1.5 8.8 8.8 0 0 0 .5 1.5 5.67 5.67 0 0 0 .8 1.3 8.63 8.63 0 0 0 2.2 2.2 6.11 6.11 0 0 0 1.4.7 8.33 8.33 0 0 0 1.5.4 7.57 7.57 0 0 0 1.5.1h26.7c4.3 0 7-3.5 7-7.7 0-3.7-1.8-6.8-5.1-7.6z"
       stroke="#6c97c3"
       class="v"
       id="path371" /></g><path
     d="M715.5 474.1l1 1.1a2.2 2.2 0 0 0-.8 1.8 2.29 2.29 0 0 0 2.4 2.3 2.23 2.23 0 0 0 2.4-2.3 1.92 1.92 0 0 0-1.6-2.1v1.9h-1.2v-3.4h.4a3.58 3.58 0 0 1 3.8 3.6 3.8 3.8 0 1 1-7.6-.1 3.36 3.36 0 0 1 1.2-2.8zm6.3 7.9v1.4l-4.9 3.7h4.9v1.5h-7.3v-1.4l4.9-3.7h-4.9V482zm0 8.3v1.5h-7.3v-1.5zm-6 7.1h1.8v-1.6q0-1.2-.9-1.2-.9 0-.9 1.2v1.6zm-1.3-1.7c0-1.8.8-2.7 2.2-2.7 1.2 0 2 .8 2.2 2.3l2.9-2.3v1.8l-2.9 2.1v.4h2.9v1.5h-7.3v-3.1zm7.3 4.6v5.5h-7.3v-5.4h1.3v4h1.6v-3.8h1.3v3.8h1.7v-4h1.4zm0 7.2v1.5h-7.3v-1.5zm-6 2.5v2.3h6v1.5h-6v2.3h-1.4v-6l1.4-.1z"
     fill="#2b2b2b"
     id="path375" /><path
     d="m 601.27,253.57 v 3.93 h -1.23 v -9.81 h 3.72 c 2.22,0 3.47,1.11 3.47,2.94 0,1.83 -1.25,2.94 -3.47,2.94 z m 0,-4.72 v 3.56 h 2.47 c 1.45,0 2.21,-0.59 2.21,-1.78 0,-1.19 -0.76,-1.78 -2.21,-1.78 z m 11.95,-1.16 c 2.21,0 3.43,1 3.43,2.78 0,1.78 -1.32,2.8 -3.42,2.8 h -0.08 l 3.45,4.23 h -1.5 l -3.37,-4.23 h -1.15 v 4.23 h -1.23 v -9.81 z m -2.66,1.16 v 3.3 h 2.63 c 1.45,0 2.18,-0.58 2.18,-1.68 0,-1.1 -0.75,-1.62 -2.18,-1.62 z m 9.54,8.65 h -1.23 v -9.81 h 1.23 z m 7,0 h -1.53 l -3.89,-9.81 H 623 l 3.35,8.59 3.36,-8.59 h 1.27 z m 13.16,0 h -1.33 l -1.07,-2.7 h -4.76 l -1.07,2.68 h -1.28 l 4,-9.81 h 1.54 z m -6.69,-3.85 h 3.82 l -1.91,-4.74 z m 14.38,-4.79 h -3.34 v 8.64 h -1.23 v -8.64 h -3.35 v -1.17 h 7.92 z m 8.63,8.64 h -7 v -9.81 h 6.89 v 1.16 h -5.66 v 3.13 h 5.48 v 1.16 h -5.48 v 3.2 h 5.73 z m 7.52,0 h -1.24 v -9.81 h 1.24 z m 11,0 h -1.12 l -5.88,-7.7 v 7.7 h -1.23 v -9.82 h 1.11 l 5.94,7.71 v -7.7 h 1.18 z m 9.39,-4.36 h -5.33 v 4.36 h -1.23 v -9.81 h 6.84 v 1.17 h -5.61 v 3.12 h 5.33 z m 6.4,-5.45 c 2.22,0 3.43,1 3.43,2.78 0,1.78 -1.32,2.8 -3.42,2.8 h -0.08 l 3.46,4.23 h -1.53 l -3.37,-4.23 h -1.15 v 4.23 H 687 v -9.81 z m -2.66,1.16 v 3.3 h 2.63 c 1.45,0 2.18,-0.58 2.18,-1.68 0,-1.1 -0.75,-1.62 -2.18,-1.62 z m 16.63,8.65 h -1.32 l -1.08,-2.7 h -4.76 l -1.07,2.68 h -1.28 l 4,-9.81 h 1.54 z m -6.69,-3.85 h 3.82 l -1.89,-4.74 z m 14.66,-4.03 a 5.23,5.23 0 0 0 -2.91,-0.9 c -1.44,0 -2.46,0.64 -2.46,1.7 0,0.89 0.75,1.35 2.22,1.53 l 0.86,0.1 c 1.66,0.21 3.08,0.88 3.08,2.61 0,1.95 -1.77,3 -3.89,3 a 6.4,6.4 0 0 1 -3.87,-1.28 l 0.68,-1 a 5.21,5.21 0 0 0 3.19,1.09 c 1.46,0 2.61,-0.6 2.61,-1.71 0,-0.91 -0.82,-1.34 -2.34,-1.53 l -0.91,-0.11 c -1.62,-0.2 -2.91,-0.95 -2.91,-2.62 0,-1.89 1.68,-2.95 3.75,-2.95 a 6.09,6.09 0 0 1 3.53,1.07 z m 9.83,-0.76 h -3.34 v 8.64 h -1.22 v -8.64 h -3.35 v -1.17 h 7.92 z m 5.56,-1.17 c 2.22,0 3.44,1 3.44,2.78 0,1.78 -1.33,2.8 -3.43,2.8 h -0.08 l 3.46,4.23 h -1.51 l -3.37,-4.23 h -1.15 v 4.23 h -1.23 v -9.81 z m -2.66,1.16 v 3.3 h 2.64 c 1.44,0 2.17,-0.58 2.17,-1.68 0,-1.1 -0.75,-1.62 -2.17,-1.62 z m 16.27,4.8 a 4.07,4.07 0 0 1 -8.14,0 v -6 h 1.23 v 5.87 a 2.84,2.84 0 1 0 5.67,0 v -5.87 h 1.24 z m 11.18,-4.07 -1,0.69 a 3.51,3.51 0 0 0 -3,-1.54 3.87,3.87 0 0 0 0,7.73 3.54,3.54 0 0 0 3,-1.53 l 1,0.73 a 4.72,4.72 0 0 1 -4,2 5.05,5.05 0 1 1 0,-10.1 4.6,4.6 0 0 1 4,2.02 z m 9.09,-0.72 h -3.34 v 8.64 h -1.23 v -8.64 h -3.35 v -1.17 h 7.92 z m 9.65,4.79 a 4.07,4.07 0 0 1 -8.14,0 v -6 h 1.24 v 5.87 a 2.83,2.83 0 1 0 5.66,0 v -5.87 h 1.24 z m 6.54,-5.96 c 2.22,0 3.44,1 3.44,2.78 0,1.78 -1.33,2.8 -3.43,2.8 h -0.08 l 3.46,4.23 h -1.53 l -3.37,-4.23 h -1.15 v 4.23 h -1.23 v -9.81 z m -2.66,1.16 v 3.3 h 2.64 c 1.44,0 2.17,-0.58 2.17,-1.68 0,-1.1 -0.75,-1.62 -2.17,-1.62 z m 15.23,8.65 h -7 v -9.81 h 6.89 v 1.16 h -5.65 v 3.13 h 5.48 v 1.16 h -5.48 v 3.2 h 5.73 z"
     id="path387"
     style="isolation:isolate" /><text
     xml:space="preserve"
     style="font-style:normal;font-weight:normal;font-size:17.3333px;line-height:1.25;font-family:sans-serif;isolation:isolate;fill:#000000;fill-opacity:1;stroke:none"
     x="190.96399"
     y="106.18071"
     id="text19018"><tspan
       sodipodi:role="line"
       id="tspan19016"
       x="190.96399"
       y="106.18071"
       style="font-style:normal;font-variant:normal;font-weight:bold;font-stretch:normal;font-size:17.3333px;font-family:sans-serif;-inkscape-font-specification:'sans-serif Bold'">Management Server</tspan></text><g
     id="g6883"
     transform="matrix(0.63024941,0,0,0.63024941,138.24311,13.091565)"
     style="isolation:isolate"><path
       d="m 323.198,69.111 h -0.043 c -1.331,0 -2.412,1.079 -2.412,2.412 V 81.741 H 306.038 V 71.523 c 0,-1.331 -1.077,-2.412 -2.41,-2.412 -1.332,0 -2.412,1.079 -2.412,2.412 v 24.944 c 0,1.33 1.078,2.412 2.412,2.412 1.331,0 2.41,-1.08 2.41,-2.412 V 85.89 h 14.705 v 10.577 c 0,1.33 1.076,2.412 2.412,2.412 h 0.043 c 1.332,0 2.414,-1.08 2.414,-2.412 V 71.523 c 0,-1.331 -1.082,-2.412 -2.414,-2.412 m -30.966,24.484 c 0.779,-1.288 0.117,-2.971 -1.312,-3.449 -1.101,-0.368 -2.297,0.118 -2.85,1.138 -0.536,0.985 -1.221,1.786 -2.062,2.403 -1.305,0.964 -2.925,1.443 -4.849,1.443 -2.828,0 -5.036,-0.978 -6.63,-2.931 -1.592,-1.954 -2.389,-4.692 -2.389,-8.21 0,-3.491 0.834,-6.218 2.503,-8.188 1.671,-1.967 3.904,-2.953 6.699,-2.953 1.836,0 3.323,0.412 4.467,1.241 0.683,0.494 1.27,1.162 1.762,1.999 0.611,1.041 1.936,1.419 3.04,0.927 l 0.086,-0.036 c 1.349,-0.605 1.837,-2.287 1.008,-3.511 -0.825,-1.212 -1.866,-2.202 -3.124,-2.965 -2.03,-1.233 -4.533,-1.85 -7.509,-1.85 -2.83,0 -5.299,0.617 -7.401,1.85 -2.105,1.236 -3.728,3.008 -4.872,5.324 -1.141,2.316 -1.713,5.037 -1.713,8.165 0,3.128 0.572,5.849 1.713,8.163 1.144,2.318 2.767,4.093 4.872,5.325 2.107,1.236 4.586,1.851 7.444,1.851 2.947,0 5.511,-0.72 7.692,-2.163 1.407,-0.934 2.547,-2.122 3.425,-3.573 m -38.026,5.286 c 1.998,0 3.619,-1.619 3.619,-3.622 V 71.335 c 0,-1.228 -0.995,-2.224 -2.225,-2.224 -1.235,0 -2.232,1.005 -2.223,2.24 l 0.111,20.382 c 0,0.455 -0.6,0.623 -0.833,0.231 L 240.157,70.886 c -0.65,-1.101 -1.836,-1.775 -3.112,-1.775 -2.004,0 -3.625,1.623 -3.625,3.623 v 23.937 c 0,1.223 0.991,2.21 2.212,2.21 1.22,0 2.21,-0.987 2.21,-2.21 l -0.165,-20.406 c -0.006,-0.458 0.597,-0.623 0.831,-0.233 l 12.539,21.074 c 0.651,1.101 1.836,1.775 3.113,1.775 h 0.046 m -36.771,-11.727 -4.48,-12.645 c -0.141,-0.4 -0.705,-0.397 -0.842,0.002 l -4.371,12.643 z m 1.446,3.925 h -12.54 l -2.314,6.348 c -0.317,0.874 -1.15,1.454 -2.077,1.454 h -0.22 c -1.545,0 -2.615,-1.544 -2.069,-2.99 l 9.082,-24.08 c 0.612,-1.624 2.169,-2.7 3.907,-2.7 1.737,0 3.292,1.076 3.905,2.7 l 9.082,24.08 c 0.546,1.446 -0.523,2.99 -2.069,2.99 h -0.345 c -0.932,0 -1.765,-0.586 -2.081,-1.465 z M 371.815,82.96 h 6.945 c 1.956,0 3.413,-0.4 4.376,-1.197 0.963,-0.797 1.444,-2.022 1.444,-3.676 0,-1.653 -0.481,-2.88 -1.444,-3.675 -0.963,-0.799 -2.42,-1.195 -4.376,-1.195 h -5.048 c -1.048,0 -1.897,0.85 -1.897,1.897 z m 6.403,4.014 h -6.403 v 9.586 c 0,1.283 -1.04,2.321 -2.323,2.321 h -0.139 c -1.282,0 -2.321,-1.038 -2.321,-2.321 V 75.363 c 0,-3.452 2.8,-6.252 6.253,-6.252 h 5.882 c 3.219,0 5.759,0.789 7.623,2.367 1.865,1.578 2.796,3.765 2.796,6.561 0,2.137 -0.55,3.918 -1.643,5.346 -1.098,1.43 -2.654,2.443 -4.669,3.044 l 5.745,8.864 c 1.005,1.544 -0.105,3.586 -1.946,3.586 -0.795,0 -1.536,-0.405 -1.962,-1.076 z M 175.119,82.96 h 6.946 c 1.953,0 3.412,-0.4 4.375,-1.197 0.963,-0.797 1.443,-2.022 1.443,-3.676 0,-1.653 -0.48,-2.88 -1.443,-3.675 -0.963,-0.799 -2.422,-1.195 -4.375,-1.195 h -5.049 c -1.047,0 -1.897,0.85 -1.897,1.897 z m 6.404,4.014 h -6.404 v 9.586 c 0,1.283 -1.04,2.321 -2.323,2.321 h -0.137 c -1.284,0 -2.323,-1.038 -2.323,-2.321 V 75.363 c 0,-3.452 2.799,-6.252 6.254,-6.252 h 5.881 c 3.218,0 5.759,0.789 7.624,2.367 1.864,1.578 2.796,3.765 2.796,6.561 0,2.137 -0.551,3.918 -1.644,5.346 -1.098,1.43 -2.655,2.443 -4.671,3.044 l 5.748,8.864 c 1.002,1.544 -0.106,3.586 -1.947,3.586 -0.795,0 -1.535,-0.405 -1.961,-1.076 z m 174.583,7.75 H 342.55 c -1.045,0 -1.894,-0.852 -1.894,-1.897 v -6.848 h 13.08 c 1.125,0 2.036,-0.912 2.036,-2.034 0,-1.127 -0.911,-2.04 -2.036,-2.04 h -13.08 v -6.738 c 0,-1.048 0.849,-1.898 1.894,-1.898 h 13.556 c 1.179,0 2.137,-0.955 2.137,-2.134 0,-1.179 -0.958,-2.136 -2.137,-2.136 H 342.55 c -3.4,0 -6.169,2.766 -6.169,6.17 V 92.83 c 0,3.401 2.769,6.17 6.169,6.17 h 13.556 c 1.179,0 2.137,-0.956 2.137,-2.137 0,-1.184 -0.958,-2.139 -2.137,-2.139 M 289.462,55.725 h -13.556 c -1.044,0 -1.896,-0.849 -1.896,-1.895 v -6.848 h 13.083 c 1.124,0 2.037,-0.912 2.037,-2.037 0,-1.125 -0.913,-2.036 -2.037,-2.036 H 274.01 V 36.17 c 0,-1.047 0.852,-1.897 1.896,-1.897 h 13.556 c 1.18,0 2.138,-0.957 2.138,-2.137 0,-1.18 -0.958,-2.136 -2.138,-2.136 h -13.556 c -3.4,0 -6.168,2.766 -6.168,6.17 v 17.66 c 0,3.4 2.768,6.169 6.168,6.169 h 13.556 c 1.18,0 2.138,-0.957 2.138,-2.137 0,-1.18 -0.958,-2.137 -2.138,-2.137 M 249.601,42.964 c -2.865,-0.514 -4.858,-1.124 -5.974,-1.832 -1.116,-0.709 -1.675,-1.667 -1.675,-2.874 0,-1.297 0.573,-2.36 1.72,-3.19 1.147,-0.83 2.76,-1.245 4.844,-1.245 2.11,0 3.801,0.407 5.069,1.223 0.681,0.438 1.303,1.021 1.863,1.75 0.826,1.07 2.384,1.211 3.389,0.307 0.946,-0.854 1.029,-2.318 0.178,-3.268 -1.028,-1.148 -2.198,-2.057 -3.509,-2.727 -1.945,-0.996 -4.291,-1.494 -7.035,-1.494 -2.355,0 -4.414,0.408 -6.177,1.222 -1.765,0.815 -3.118,1.916 -4.051,3.304 -0.937,1.387 -1.404,2.926 -1.404,4.616 0,1.599 0.368,2.957 1.11,4.073 0.737,1.116 1.923,2.052 3.551,2.805 1.629,0.755 3.816,1.389 6.563,1.901 2.746,0.514 4.667,1.101 5.769,1.764 1.102,0.665 1.654,1.539 1.654,2.625 0,1.359 -0.612,2.407 -1.836,3.145 -1.219,0.741 -2.902,1.109 -5.043,1.109 -2.264,0 -4.157,-0.421 -5.681,-1.266 -0.87,-0.483 -1.649,-1.124 -2.34,-1.92 -0.868,-1.009 -2.425,-1.031 -3.364,-0.091 l -0.009,0.008 c -0.86,0.86 -0.926,2.251 -0.114,3.156 2.582,2.882 6.433,4.322 11.552,4.322 2.353,0 4.427,-0.354 6.223,-1.063 1.795,-0.708 3.189,-1.727 4.185,-3.055 0.997,-1.328 1.494,-2.867 1.494,-4.616 0,-1.629 -0.362,-2.993 -1.086,-4.095 -0.725,-1.101 -1.877,-2.021 -3.462,-2.761 -1.583,-0.739 -3.719,-1.35 -6.404,-1.833 m -66.831,0.01 c -2.865,-0.516 -4.858,-1.124 -5.974,-1.833 -1.116,-0.711 -1.674,-1.667 -1.674,-2.875 0,-1.296 0.574,-2.36 1.719,-3.191 1.147,-0.828 2.762,-1.243 4.844,-1.243 2.11,0 3.8,0.406 5.068,1.221 0.683,0.439 1.304,1.022 1.864,1.753 0.825,1.069 2.384,1.209 3.39,0.306 0.946,-0.855 1.028,-2.318 0.177,-3.269 -1.028,-1.147 -2.199,-2.057 -3.508,-2.727 -1.946,-0.996 -4.293,-1.493 -7.037,-1.493 -2.353,0 -4.412,0.407 -6.176,1.222 -1.766,0.814 -3.117,1.916 -4.052,3.303 -0.935,1.388 -1.402,2.927 -1.402,4.617 0,1.598 0.368,2.957 1.108,4.072 0.74,1.117 1.925,2.052 3.553,2.806 1.629,0.754 3.816,1.388 6.562,1.901 2.745,0.513 4.668,1.101 5.77,1.765 1.1,0.663 1.652,1.538 1.652,2.624 0,1.358 -0.612,2.407 -1.833,3.145 -1.222,0.74 -2.904,1.109 -5.045,1.109 -2.264,0 -4.157,-0.421 -5.681,-1.267 -0.87,-0.482 -1.649,-1.124 -2.338,-1.921 -0.868,-1.007 -2.427,-1.03 -3.367,-0.09 l -0.008,0.009 c -0.86,0.859 -0.925,2.251 -0.114,3.156 2.582,2.882 6.433,4.322 11.553,4.322 2.352,0 4.426,-0.355 6.221,-1.064 1.796,-0.708 3.19,-1.727 4.187,-3.054 0.996,-1.327 1.493,-2.867 1.493,-4.616 0,-1.629 -0.362,-2.993 -1.087,-4.095 -0.724,-1.102 -1.876,-2.022 -3.462,-2.761 -1.583,-0.74 -3.718,-1.351 -6.403,-1.832 m 44.573,-10.916 v 16.429 c 0,3.921 -1.042,6.885 -3.121,8.891 -2.084,2.007 -5.115,3.009 -9.097,3.009 -3.984,0 -7.016,-1.002 -9.097,-3.009 -2.081,-2.006 -3.122,-4.97 -3.122,-8.891 V 32.058 c 0,-1.349 1.094,-2.444 2.443,-2.444 1.348,0 2.445,1.095 2.445,2.444 v 15.839 c 0,2.837 0.594,4.925 1.787,6.269 1.192,1.341 3.039,2.012 5.544,2.012 2.505,0 4.351,-0.671 5.543,-2.012 1.191,-1.344 1.787,-3.432 1.787,-6.269 V 32.058 c 0,-1.349 1.095,-2.444 2.445,-2.444 1.348,0 2.443,1.095 2.443,2.444"
       fill="#0c322c"
       id="path6879" /><path
       d="m 133.999,46.482 h -26.186 c -0.161,0 -0.324,0 -0.431,0.055 v -1.236 c 0,-2.583 -0.645,-4.732 -1.45,-4.732 -0.805,0 -1.774,2.099 -2.204,4.676 l -1.345,8.012 c -0.43,2.583 1.345,4.681 3.98,4.681 h 7.851 c 0.806,0 1.56,-0.109 2.257,-0.324 -0.269,1.345 -1.397,2.367 -2.847,2.367 h -11.023 c -1.776,0 -3.121,-1.615 -2.851,-3.385 l 1.127,-6.723 c 0.269,-1.774 -1.075,-3.388 -2.847,-3.388 H 43.071 c -1.182,0 -2.15,0.701 -2.634,1.719 L 30.113,63.963 c -0.161,0.269 -0.161,0.591 0.055,0.858 l 1.989,2.366 c 0.27,0.324 0.699,0.324 1.02,0.107 l 7.047,-5.537 v 33.66 c 0,1.615 1.289,2.906 2.901,2.906 h 15.594 c 1.614,0 2.903,-1.291 2.903,-2.906 V 83.693 c 0,-1.615 1.291,-2.902 2.905,-2.902 h 38.933 c 1.613,0 2.905,1.287 2.905,2.902 v 11.724 c 0,1.615 1.288,2.906 2.9,2.906 h 15.595 c 1.614,0 2.903,-1.291 2.903,-2.906 V 82.833 h -8.281 c -2.581,0 -4.73,-2.152 -4.73,-4.731 v -8.123 c 0,-1.555 0.753,-2.901 1.882,-3.763 v 9.677 c 0,2.582 2.151,4.733 4.73,4.733 h 12.745 c 2.582,0 4.73,-2.151 4.73,-4.733 V 51.268 c -0.107,-2.688 -2.202,-4.786 -4.84,-4.786 m 18.877,6.775 c 0.428,2.529 -1.342,4.623 -3.927,4.623 h -7.903 -0.43 v -5.752 h 0.43 2.097 c 2.582,0 4.731,-2.15 4.731,-4.733 v -2.094 c 0,-2.581 0.644,-4.733 1.451,-4.733 0.75,0 1.776,2.1 2.206,4.677 l 1.345,8.012"
       fill="#30ba78"
       id="path6881" /></g><path
     d="m 391.3,124.3 v 2.5 h -2.5"
     id="path459"
     style="fill:none;stroke:#adadad;stroke-miterlimit:10" /><path
     d="M 386.8,126.8 H 152.7"
     class="AH"
     id="path461"
     style="fill:url(#linearGradient825);stroke:#adadad;stroke-miterlimit:10;fill-opacity:1" /><path
     d="m 151.8,126.8 h -2.5 v -2.5"
     id="path463"
     style="fill:none;stroke:#adadad;stroke-miterlimit:10" /><path
     d="M 149.3,122.3 V 4"
     class="w"
     id="path465"
     style="fill:none;stroke:#adadad;stroke-miterlimit:10" /><path
     d="M 149.3,3 V 0.5 h 2.5"
     id="path467"
     style="fill:none;stroke:#adadad;stroke-miterlimit:10" /><path
     d="M 153.7,0.5 H 387.8"
     class="AH"
     id="path469"
     style="fill:none;stroke:#adadad;stroke-miterlimit:10" /><path
     d="m 388.8,0.5 h 2.5 V 3"
     id="path471"
     style="fill:none;stroke:#adadad;stroke-miterlimit:10" /><path
     d="M 391.3,5 V 123.3"
     class="w"
     id="path473"
     style="fill:none;stroke:#adadad;stroke-miterlimit:10" /><text
     xml:space="preserve"
     style="font-style:normal;font-weight:normal;font-size:17.3333px;line-height:1.25;font-family:sans-serif;fill:#000000;fill-opacity:1;stroke:none"
     x="849.05817"
     y="580.50305"
     id="text10206"><tspan
       sodipodi:role="line"
       id="tspan10204"
       x="849.05817"
       y="580.50305"
       style="font-style:normal;font-variant:normal;font-weight:500;font-stretch:normal;font-size:17.3333px;font-family:Poppins;-inkscape-font-specification:'Poppins Medium'">Public Cloud Storage</tspan></text><text
     xml:space="preserve"
     style="font-style:normal;font-weight:normal;font-size:17.3333px;line-height:1.25;font-family:sans-serif;fill:#000000;fill-opacity:1;stroke:none"
     x="841.98767"
     y="421.30649"
     id="text33724"><tspan
       sodipodi:role="line"
       id="tspan33722"
       x="841.98767"
       y="421.30649"
       style="font-style:normal;font-variant:normal;font-weight:500;font-stretch:normal;font-size:17.3333px;font-family:Poppins;-inkscape-font-specification:'Poppins Medium'">Direct PV NVMe</tspan></text><text
     xml:space="preserve"
     style="font-style:normal;font-weight:normal;font-size:17.3333px;line-height:1.25;font-family:sans-serif;fill:#000000;fill-opacity:1;stroke:none"
     x="844.9353"
     y="496.81754"
     id="text44234"><tspan
       sodipodi:role="line"
       id="tspan44232"
       x="844.9353"
       y="496.81754"
       style="font-style:normal;font-variant:normal;font-weight:500;font-stretch:normal;font-size:17.3333px;font-family:Poppins;-inkscape-font-specification:'Poppins Medium'">Direct PV HDD</tspan></text><text
     xml:space="preserve"
     style="font-size:16px;line-height:1.25;font-family:sans-serif"
     x="772.75146"
     y="423.02988"
     id="text180871"><tspan
       sodipodi:role="line"
       id="tspan180869"
       x="772.75146"
       y="423.02988"
       style="font-size:16px">HOT</tspan></text><text
     xml:space="preserve"
     style="font-size:16px;line-height:1.25;font-family:sans-serif"
     x="757.19537"
     y="496.20691"
     id="text189805"><tspan
       sodipodi:role="line"
       id="tspan189803"
       x="757.19537"
       y="496.20691"
       style="font-style:normal;font-variant:normal;font-weight:normal;font-stretch:normal;font-size:16px;font-family:Poppins;-inkscape-font-specification:Poppins">WARM</tspan></text><text
     xml:space="preserve"
     style="font-size:16px;line-height:1.25;font-family:sans-serif"
     x="766.19604"
     y="583.38593"
     id="text193607"><tspan
       sodipodi:role="line"
       id="tspan193605"
       x="766.19604"
       y="583.38593"
       style="font-style:normal;font-variant:normal;font-weight:normal;font-stretch:normal;font-size:16px;font-family:Poppins;-inkscape-font-specification:Poppins">COLD</tspan></text><path
     style="fill:none;stroke:#000000;stroke-width:1px;stroke-linecap:butt;stroke-linejoin:miter;stroke-opacity:1"
     d="m 266.57844,127.92025 3.39768,187.72412 c -1.22184,12.18234 3.686,17.89376 15.42083,16.39815 l 246.73605,2.32063"
     id="path956"
     sodipodi:nodetypes="cccc" /><g
     id="g3052"
     transform="matrix(0.05953855,0,0,0.05953855,579.52549,412.27823)"><path
       style="fill:#326ce5;fill-opacity:1;stroke:#ffffff;stroke-width:0;stroke-miterlimit:4;stroke-dasharray:none;stroke-opacity:1"
       d="m 365.3125,184.8125 a 46.724621,46.342246 0 0 0 -17.90625,4.53125 l -244.34375,116.75 a 46.724621,46.342246 0 0 0 -25.28125,31.4375 L 17.5,599.78125 A 46.724621,46.342246 0 0 0 23.84375,635.3125 46.724621,46.342246 0 0 0 26.5,639 l 169.125,210.28125 a 46.724621,46.342246 0 0 0 36.53125,17.4375 L 503.375,866.65625 A 46.724621,46.342246 0 0 0 539.90625,849.25 L 708.96875,638.9375 A 46.724621,46.342246 0 0 0 718,599.71875 l -60.375,-262.25 a 46.724621,46.342246 0 0 0 -25.28125,-31.4375 l -244.375,-116.6875 A 46.724621,46.342246 0 0 0 365.3125,184.8125 Z"
       id="path3055"
       inkscape:connector-curvature="0"
       inkscape:export-filename="new.png"
       inkscape:export-xdpi="250.55"
       inkscape:export-ydpi="250.55" /><path
       inkscape:connector-curvature="0"
       id="path3059"
       d="m 367.73366,274.05962 c -8.07696,8.2e-4 -14.62596,7.27591 -14.625,16.25 1e-5,0.13773 0.0282,0.26934 0.0312,0.40625 -0.0119,1.21936 -0.0708,2.68836 -0.0312,3.75 0.19262,5.176 1.3209,9.13749 2,13.90625 1.23028,10.20666 2.26117,18.66736 1.625,26.53125 -0.61869,2.9654 -2.80288,5.67741 -4.75,7.5625 l -0.34375,6.1875 c -8.77682,0.72717 -17.61235,2.05874 -26.4375,4.0625 -37.97461,8.62218 -70.67008,28.18307 -95.5625,54.59375 -1.61522,-1.10193 -4.44103,-3.12914 -5.2813,-3.75 -2.61117,0.35262 -5.25021,1.15829 -8.6875,-0.84375 -6.54491,-4.40563 -12.50587,-10.48693 -19.71875,-17.8125 -3.30498,-3.50419 -5.69832,-6.84101 -9.625,-10.21875 -0.89172,-0.76707 -2.25258,-1.80455 -3.25,-2.59375 -3.06988,-2.44757 -6.6907,-3.72402 -10.1875,-3.84375 -4.49589,-0.15394 -8.82394,1.60385 -11.65625,5.15625 -5.03521,6.31538 -3.42312,15.96805 3.59375,21.5625 0.0712,0.0567 0.14702,0.10078 0.21875,0.15625 0.96422,0.78162 2.14496,1.78313 3.03125,2.4375 4.16687,3.07655 7.9732,4.65145 12.125,7.09375 8.747,5.40181 15.99837,9.88086 21.75,15.28125 2.24602,2.39417 2.63858,6.61292 2.9375,8.4375 l 4.6875,4.1875 c -25.09342,37.76368 -36.70686,84.40946 -29.8437,131.9375 l -6.125,1.78125 c -1.6143,2.08461 -3.89541,5.36474 -6.2813,6.34375 -7.52513,2.37021 -15.99424,3.24059 -26.21875,4.3125 -4.80031,0.39915 -8.94218,0.16095 -14.03125,1.125 -1.12008,0.21218 -2.68072,0.61877 -3.90625,0.90625 -0.0426,0.009 -0.0824,0.0216 -0.125,0.0312 -0.0668,0.0155 -0.15456,0.0479 -0.21875,0.0625 -8.62014,2.08279 -14.15774,10.006 -12.375,17.8125 1.78316,7.80833 10.20314,12.55677 18.875,10.6875 0.0626,-0.0143 0.1535,-0.0167 0.21875,-0.0312 0.0979,-0.0224 0.18409,-0.0699 0.28125,-0.0937 1.20885,-0.26536 2.72377,-0.5606 3.78125,-0.84375 5.00334,-1.33963 8.62694,-3.30796 13.125,-5.03125 9.67694,-3.47077 17.69173,-6.37022 25.5,-7.5 3.26118,-0.25542 6.69711,2.01216 8.40625,2.96875 l 6.375,-1.09375 c 14.67018,45.48282 45.41416,82.24502 84.34375,105.3125 l -2.65625,6.375 c 0.95742,2.47542 2.01341,5.8247 1.30022,8.26932 -2.83868,7.3612 -7.70097,15.13097 -13.23772,23.79318 -2.68085,4.00192 -5.42453,7.10761 -7.84375,11.6875 -0.5789,1.09589 -1.31618,2.77932 -1.875,3.9375 -3.75884,8.04236 -1.00164,17.3052 6.21875,20.78125 7.26575,3.49788 16.28447,-0.19134 20.1875,-8.25 0.006,-0.0114 0.0257,-0.0198 0.0312,-0.0312 0.004,-0.009 -0.004,-0.0225 0,-0.0312 0.55593,-1.14255 1.34353,-2.64437 1.8125,-3.71875 2.07213,-4.74702 2.76161,-8.81506 4.21875,-13.40625 3.86962,-9.72014 5.99567,-19.91903 11.32258,-26.27411 1.45868,-1.74023 3.83681,-2.4095 6.30242,-3.06964 l 3.3125,-6 c 33.93824,13.0268 71.92666,16.52246 109.875,7.90625 8.65697,-1.96557 17.01444,-4.50945 25.09375,-7.5625 0.93098,1.65133 2.66113,4.8257 3.125,5.625 2.50559,0.81518 5.24044,1.23614 7.46875,4.53125 3.98539,6.80898 6.7109,14.86416 10.03125,24.59375 1.45738,4.59111 2.17762,8.65933 4.25,13.40625 0.47234,1.08195 1.256,2.60486 1.8125,3.75 3.89482,8.08484 12.94212,11.78667 20.21875,8.28125 7.2195,-3.4779 9.97974,-12.7399 6.21875,-20.78125 -0.55889,-1.15814 -1.3273,-2.84164 -1.90625,-3.9375 -2.41946,-4.57976 -5.1627,-7.65448 -7.84375,-11.65625 -5.53721,-8.66192 -10.12968,-15.8577 -12.96875,-23.21875 -1.18711,-3.79657 0.20028,-6.15774 1.125,-8.625 -0.55378,-0.63477 -1.73881,-4.22009 -2.4375,-5.90625 40.4574,-23.88816 70.29856,-62.02129 84.3125,-106.0625 1.8924,0.29742 5.18154,0.87936 6.25,1.09375 2.19954,-1.4507 4.22194,-3.34352 8.1875,-3.03125 7.80832,1.12937 15.82288,4.02973 25.5,7.5 4.49815,1.72306 8.1216,3.72313 13.125,5.0625 1.05749,0.28309 2.57238,0.5472 3.78125,0.8125 0.0972,0.0238 0.1833,0.0714 0.28125,0.0937 0.0653,0.0146 0.15615,0.0169 0.21875,0.0312 8.67236,1.86695 17.09384,-2.87871 18.875,-10.6875 1.78074,-7.80696 -3.7543,-15.73201 -12.375,-17.8125 -1.25393,-0.28513 -3.03225,-0.76938 -4.25,-1 -5.08912,-0.96378 -9.23092,-0.7261 -14.03125,-1.125 -10.22456,-1.07138 -18.6935,-1.94269 -26.21875,-4.3125 -3.06826,-1.19028 -5.25103,-4.84124 -6.31255,-6.34375 l -5.90625,-1.71875 c 3.06226,-22.15442 2.23655,-45.21134 -3.0625,-68.28125 -5.34839,-23.28471 -14.80037,-44.58084 -27.40625,-63.34375 1.51505,-1.37729 4.37619,-3.91091 5.1875,-4.65625 0.23716,-2.62417 0.0334,-5.37553 2.75,-8.28125 5.75134,-5.40069 13.00329,-9.87898 21.75,-15.28125 4.15167,-2.44252 7.98954,-4.01698 12.15625,-7.09375 0.94225,-0.69576 2.2289,-1.79759 3.21875,-2.59375 7.01538,-5.59633 8.63058,-15.24842 3.59375,-21.5625 -5.03683,-6.31408 -14.79712,-6.90883 -21.8125,-1.3125 -0.99856,0.79085 -2.35353,1.82252 -3.25,2.59375 -3.9265,3.37796 -6.35145,6.71439 -9.65625,10.21875 -7.21249,7.32595 -13.17407,13.43777 -19.71875,17.84375 -2.83601,1.65106 -6.98996,1.07978 -8.87505,0.96875 l -5.5625,3.96875 c -31.7188,-33.26057 -74.90466,-54.52546 -121.40605,-58.6563 -0.13006,-1.94872 -0.30045,-5.47117 -0.34375,-6.53125 -1.90371,-1.82165 -4.20342,-3.37686 -4.78125,-7.3125 -0.63617,-7.86389 0.42597,-16.32459 1.65625,-26.53125 0.6791,-4.76876 1.80738,-8.73025 2,-13.90625 0.0438,-1.17663 -0.0265,-2.88401 -0.0312,-4.15625 -9.6e-4,-8.97409 -6.54804,-16.25082 -14.625,-16.25 z m -18.3125,113.4375 -4.34375,76.71875 -0.3125,0.15625 c -0.29134,6.86335 -5.93996,12.34375 -12.875,12.34375 -2.84081,0 -5.46294,-0.91229 -7.59375,-2.46875 l -0.125,0.0625 -62.90625,-44.59375 c 19.33365,-19.01115 44.06291,-33.06039 72.5625,-39.53125 5.20599,-1.18203 10.40966,-2.0591 15.59375,-2.6875 z m 36.65625,0 c 33.27347,4.09232 64.04501,19.15882 87.625,42.25 l -62.5,44.3125 -0.21875,-0.0937 c -5.54745,4.05169 -13.36343,3.04639 -17.6875,-2.375 -1.77132,-2.22096 -2.70072,-4.83239 -2.8125,-7.46875 l -0.0625,-0.0312 z m -147.625,70.875 57.4375,51.375 -0.0625,0.3125 c 5.18437,4.50697 5.94888,12.32794 1.625,17.75 -1.7712,2.22105 -4.14208,3.71074 -6.6875,4.40625 l -0.0625,0.25 -73.625,21.25 c -3.74728,-34.26517 4.32855,-67.57364 21.375,-95.34375 z m 258.15625,0.0312 c 8.5341,13.83256 14.99655,29.28214 18.84375,46.03125 3.80106,16.54828 4.75499,33.06697 3.1875,49.03125 l -74,-21.3125 -0.0625,-0.3125 c -6.6265,-1.81104 -10.69893,-8.55162 -9.15625,-15.3125 0.63203,-2.76962 2.10222,-5.11264 4.09375,-6.84375 l -0.0312,-0.15625 57.125,-51.125 z m -140.65625,55.3125 h 23.53125 l 14.625,18.28125 -5.25,22.8125 -21.125,10.15625 -21.1875,-10.1875 -5.25,-22.8125 z m 75.4375,62.5625 c 0.99997,-0.0505 1.99558,0.0396 2.96875,0.21875 l 0.125,-0.15625 76.15625,12.875 c -11.1455,31.3131 -32.47281,58.44018 -60.96875,76.59375 l -29.5625,-71.40625 0.0937,-0.125 c -2.71561,-6.30999 0.002,-13.70956 6.25,-16.71875 1.59965,-0.77041 3.27089,-1.19701 4.9375,-1.28125 z m -127.90625,0.3125 c 5.81174,0.0815 11.02462,4.11525 12.375,10.03125 0.63219,2.76958 0.3245,5.51375 -0.71875,7.9375 l 0.21875,0.28125 -29.25,70.6875 c -27.34716,-17.5486 -49.12927,-43.82403 -60.78125,-76.06245 l 75.5,-12.8125 0.125,0.15625 c 0.84451,-0.15541 1.701,-0.2304 2.53125,-0.21875 z m 63.78125,30.9688 c 2.02445,-0.0744 4.07865,0.34098 6.03125,1.28125 2.55951,1.23253 4.53673,3.17319 5.78125,5.5 h 0.28125 l 37.21875,67.25 c -4.83029,1.61923 -9.79609,3.00308 -14.875,4.15625 -28.46453,6.4629 -56.83862,4.50467 -82.53125,-4.25 l 37.125,-67.125 h 0.0625 c 2.22767,-4.16441 6.45247,-6.64887 10.90625,-6.8125 z"
       style="color:#000000;font-style:normal;font-variant:normal;font-weight:normal;font-stretch:normal;font-size:medium;line-height:normal;font-family:Sans;-inkscape-font-specification:Sans;text-indent:0;text-align:start;text-decoration:none;text-decoration-line:none;letter-spacing:normal;word-spacing:normal;text-transform:none;writing-mode:lr-tb;direction:ltr;baseline-shift:baseline;text-anchor:start;display:inline;overflow:visible;visibility:visible;fill:#ffffff;fill-opacity:1;stroke:#ffffff;stroke-width:0.25;stroke-miterlimit:4;stroke-dasharray:none;stroke-opacity:1;marker:none;enable-background:accumulate"
       sodipodi:nodetypes="ccccccccsccccscssccsccccccccscccsccccccccccccccscccscsccsccccscscsccccccccscccscsccccsccccscscscccccccccccccccscccsccccccccccccscccccscccccccccccccccccccccccscccscccccccccscccscccc"
       inkscape:export-filename="./path3059.png"
       inkscape:export-xdpi="250.55"
       inkscape:export-ydpi="250.55" /></g><g
     id="g518"
     transform="translate(248.32685,45.950367)"><text
       xml:space="preserve"
       style="font-size:17.3333px;line-height:1.25;font-family:sans-serif"
       x="334.60263"
       y="443.81958"
       id="text508"><tspan
         sodipodi:role="line"
         id="tspan506"
         x="334.60263"
         y="443.81958"
         style="font-style:normal;font-variant:normal;font-weight:normal;font-stretch:normal;font-family:Poppins;-inkscape-font-specification:Poppins">Any</tspan></text><text
       xml:space="preserve"
       style="font-size:17.3333px;line-height:1.25;font-family:sans-serif"
       x="306.05344"
       y="466.78613"
       id="text512"><tspan
         sodipodi:role="line"
         id="tspan510"
         x="306.05344"
         y="466.78613"
         style="font-style:normal;font-variant:normal;font-weight:normal;font-stretch:normal;font-size:17.3333px;font-family:Poppins;-inkscape-font-specification:Poppins">Kubernetes</tspan></text></g></svg>
