<?xml version="1.0" standalone="no"?>
<!DOCTYPE svg PUBLIC "-//W3C//DTD SVG 20010904//EN"
 "http://www.w3.org/TR/2001/REC-SVG-20010904/DTD/svg10.dtd">
<svg version="1.0" xmlns="http://www.w3.org/2000/svg"
 width="576.000000pt" height="96.000000pt" viewBox="0 0 576.000000 96.000000"
 preserveAspectRatio="xMidYMid meet">
<metadata>
Created by potrace 1.16, written by Peter Selinger 2001-2019
</metadata>
<g transform="translate(0.000000,96.000000) scale(0.100000,-0.100000)"
fill="#000000" stroke="none">
<path d="M0 480 l0 -480 2878 2 2877 3 3 478 2 477 -2880 0 -2880 0 0 -480z
m5750 0 l0 -470 -2870 0 -2870 0 0 470 0 470 2870 0 2870 0 0 -470z"/>
<path d="M2570 485 c0 -50 4 -85 10 -85 6 0 10 16 10 35 l0 35 51 0 c31 0 48
4 44 10 -3 6 -26 10 -51 10 -42 0 -44 1 -44 30 0 29 1 30 50 30 28 0 50 5 50
10 0 6 -27 10 -60 10 l-60 0 0 -85z"/>
<path d="M2720 560 c0 -5 5 -10 10 -10 6 0 10 5 10 10 0 6 -4 10 -10 10 -5 0
-10 -4 -10 -10z"/>
<path d="M2890 486 c0 -51 4 -86 10 -86 6 0 10 30 11 68 l0 67 23 -63 c13 -35
27 -66 30 -69 10 -10 17 2 42 69 l23 63 0 -67 c1 -38 5 -68 11 -68 6 0 10 35
10 85 0 67 -3 85 -14 85 -13 0 -56 -94 -56 -122 0 -22 -17 6 -38 62 -11 31
-27 56 -36 58 -14 3 -16 -9 -16 -82z"/>
<path d="M2720 465 c0 -37 4 -65 10 -65 6 0 10 28 10 65 0 37 -4 65 -10 65 -6
0 -10 -28 -10 -65z"/>
<path d="M2760 523 c0 -5 9 -19 19 -33 19 -24 19 -25 -1 -53 -25 -35 -14 -51
13 -17 l19 25 19 -25 c27 -34 38 -18 12 18 l-21 30 21 26 c12 15 18 30 14 34
-4 4 -16 -4 -27 -18 l-20 -25 -15 23 c-15 21 -33 30 -33 15z"/>
<path d="M3097 512 c-22 -25 -21 -75 1 -95 23 -21 66 -22 83 -1 11 14 9 15
-25 8 -28 -5 -41 -3 -47 7 -15 25 -10 29 36 29 38 0 45 3 45 19 0 46 -62 67
-93 33z m71 -19 c2 -9 -8 -13 -32 -13 -28 0 -34 3 -29 16 7 18 54 16 61 -3z"/>
</g>
</svg>
