<?xml version="1.0" encoding="UTF-8" standalone="no"?>
<svg
   version="1.1"
   x="0"
   y="0"
   width="1400"
   height="400"
   viewBox="0 0 1400 400"
   id="svg9"
   sodipodi:docname="SUSE-Lenovo.svg"
   inkscape:version="1.2.2 (b0a8486541, 2022-12-01)"
   xml:space="preserve"
   xmlns:inkscape="http://www.inkscape.org/namespaces/inkscape"
   xmlns:sodipodi="http://sodipodi.sourceforge.net/DTD/sodipodi-0.dtd"
   xmlns="http://www.w3.org/2000/svg"
   xmlns:svg="http://www.w3.org/2000/svg"><defs
     id="defs13"><style
       id="style1584">
      .f04ca906-1e69-4f27-8621-a7ab0851ca11 {
        fill: #55565b;
      }

      .e330b834-161b-487c-bb13-8bca561e66de {
        fill: #00abc7;
      }
    </style></defs><sodipodi:namedview
     id="namedview11"
     pagecolor="#ffffff"
     bordercolor="#666666"
     borderopacity="1.0"
     inkscape:pageshadow="2"
     inkscape:pageopacity="0.0"
     inkscape:pagecheckerboard="0"
     showgrid="true"
     scale-x="1"
     viewbox-width="1280"
     viewbox-height="600"
     width="2000px"
     height="400px"
     inkscape:zoom="1.0054285"
     inkscape:cx="734.5127"
     inkscape:cy="200.41206"
     inkscape:window-width="1527"
     inkscape:window-height="749"
     inkscape:window-x="50"
     inkscape:window-y="118"
     inkscape:window-maximized="0"
     inkscape:current-layer="svg9"
     inkscape:showpageshadow="2"
     inkscape:deskcolor="#d1d1d1"><inkscape:grid
       type="xygrid"
       id="grid38"
       originx="0"
       originy="0" /></sodipodi:namedview><path
     style="fill:none;stroke:#c0c0c0;stroke-width:8.34111;stroke-linecap:butt;stroke-linejoin:miter;stroke-miterlimit:4;stroke-dasharray:none;stroke-opacity:1"
     d="M 501.18725,338.60194 V 60.303671"
     id="path73" /><g
     id="g1038"
     transform="matrix(2.541,0,0,2.541,35.745953,-10.237047)"><path
       d="m 148.462,130.726 h -13.556 c -1.044,0 -1.896,-0.849 -1.896,-1.895 v -6.849 h 13.083 c 1.124,0 2.037,-0.911 2.037,-2.036 0,-1.125 -0.913,-2.036 -2.037,-2.036 H 133.01 v -6.739 c 0,-1.046 0.852,-1.898 1.896,-1.898 h 13.556 c 1.18,0 2.138,-0.955 2.138,-2.135 0,-1.18 -0.958,-2.138 -2.138,-2.138 h -13.556 c -3.399,0 -6.168,2.768 -6.168,6.171 v 17.66 c 0,3.401 2.769,6.169 6.168,6.169 h 13.556 c 1.18,0 2.138,-0.956 2.138,-2.136 0,-1.181 -0.958,-2.138 -2.138,-2.138 m -39.861,-12.761 c -2.865,-0.514 -4.858,-1.123 -5.974,-1.832 -1.116,-0.709 -1.675,-1.667 -1.675,-2.874 0,-1.296 0.573,-2.36 1.72,-3.19 1.147,-0.829 2.76,-1.244 4.844,-1.244 2.111,0 3.801,0.406 5.069,1.222 0.681,0.438 1.303,1.022 1.863,1.75 0.826,1.071 2.384,1.212 3.389,0.308 0.946,-0.854 1.029,-2.319 0.177,-3.268 -1.027,-1.149 -2.197,-2.059 -3.507,-2.728 -1.946,-0.995 -4.292,-1.493 -7.036,-1.493 -2.355,0 -4.414,0.408 -6.177,1.222 -1.765,0.813 -3.118,1.916 -4.051,3.303 -0.937,1.387 -1.404,2.927 -1.404,4.616 0,1.6 0.368,2.958 1.11,4.073 0.737,1.117 1.923,2.052 3.552,2.806 1.628,0.755 3.815,1.388 6.562,1.901 2.746,0.513 4.668,1.101 5.769,1.764 1.102,0.665 1.653,1.539 1.653,2.624 0,1.359 -0.611,2.408 -1.835,3.146 -1.219,0.74 -2.902,1.109 -5.044,1.109 -2.263,0 -4.156,-0.422 -5.68,-1.267 -0.87,-0.483 -1.649,-1.123 -2.34,-1.92 -0.868,-1.008 -2.424,-1.031 -3.364,-0.091 l -0.009,0.009 c -0.86,0.859 -0.926,2.251 -0.114,3.155 2.582,2.883 6.434,4.322 11.551,4.322 2.354,0 4.428,-0.354 6.224,-1.063 1.795,-0.708 3.189,-1.726 4.185,-3.054 0.997,-1.328 1.494,-2.867 1.494,-4.617 0,-1.629 -0.362,-2.993 -1.086,-4.095 -0.725,-1.1 -1.877,-2.021 -3.462,-2.76 -1.583,-0.74 -3.719,-1.35 -6.404,-1.834 m -66.83,0.01 c -2.866,-0.516 -4.858,-1.123 -5.975,-1.832 -1.116,-0.711 -1.674,-1.668 -1.674,-2.876 0,-1.296 0.574,-2.36 1.72,-3.19 1.147,-0.828 2.76,-1.244 4.843,-1.244 2.11,0 3.8,0.407 5.068,1.222 0.683,0.438 1.304,1.022 1.864,1.752 0.825,1.07 2.384,1.21 3.39,0.307 0.946,-0.856 1.028,-2.319 0.176,-3.269 -1.027,-1.148 -2.198,-2.057 -3.507,-2.728 -1.946,-0.995 -4.293,-1.492 -7.037,-1.492 -2.354,0 -4.412,0.407 -6.177,1.221 -1.765,0.815 -3.116,1.917 -4.051,3.303 -0.935,1.389 -1.402,2.927 -1.402,4.617 0,1.599 0.368,2.958 1.108,4.072 0.739,1.118 1.924,2.053 3.553,2.807 1.629,0.754 3.816,1.387 6.561,1.901 2.746,0.513 4.669,1.101 5.771,1.765 1.1,0.662 1.652,1.538 1.652,2.623 0,1.358 -0.612,2.407 -1.833,3.146 -1.222,0.74 -2.904,1.109 -5.045,1.109 -2.264,0 -4.157,-0.422 -5.68,-1.268 -0.871,-0.483 -1.65,-1.123 -2.339,-1.92 -0.868,-1.007 -2.427,-1.031 -3.367,-0.09 l -0.008,0.009 c -0.86,0.858 -0.925,2.251 -0.115,3.155 2.583,2.882 6.434,4.322 11.553,4.322 2.353,0 4.427,-0.355 6.222,-1.064 1.796,-0.708 3.19,-1.727 4.186,-3.054 0.997,-1.326 1.494,-2.867 1.494,-4.617 0,-1.628 -0.362,-2.993 -1.087,-4.094 -0.724,-1.101 -1.876,-2.021 -3.462,-2.76 -1.583,-0.741 -3.717,-1.351 -6.402,-1.833 M 86.342,107.06 v 16.427 c 0,3.922 -1.04,6.886 -3.121,8.893 -2.083,2.006 -5.114,3.008 -9.096,3.008 -3.983,0 -7.016,-1.002 -9.097,-3.008 -2.081,-2.007 -3.122,-4.971 -3.122,-8.893 V 107.06 c 0,-1.35 1.094,-2.444 2.443,-2.444 1.348,0 2.445,1.094 2.445,2.444 v 15.839 c 0,2.836 0.595,4.925 1.787,6.267 1.192,1.342 3.038,2.014 5.544,2.014 2.504,0 4.351,-0.672 5.543,-2.014 1.192,-1.342 1.787,-3.431 1.787,-6.267 V 107.06 c 0,-1.35 1.095,-2.444 2.445,-2.444 1.348,0 2.442,1.094 2.442,2.444"
       fill="#0c322c"
       id="path1034" /><path
       d="m 144.609,50.569 c -0.657,0.436 -1.538,0.437 -2.195,0 -1.079,-0.716 -1.182,-2.211 -0.312,-3.079 0.772,-0.8 2.046,-0.8 2.819,-0.001 0.868,0.868 0.763,2.364 -0.312,3.08 m 3.14,-4.361 c 1.252,5.329 -3.537,10.121 -8.866,8.869 -2.712,-0.637 -4.868,-2.79 -5.502,-5.503 -1.251,-5.326 3.536,-10.114 8.864,-8.865 2.711,0.633 4.865,2.786 5.504,5.499 m -35.882,28.659 c 0.612,0.876 1.116,1.721 1.402,2.566 0.2,0.602 0.456,1.393 1.05,1.711 0.034,0.018 0.062,0.033 0.097,0.044 1.087,0.396 3.884,0.329 3.884,0.329 h 5.142 c 0.439,0.007 4.301,-0.004 4.205,-0.437 -0.463,-2.066 -2.855,-2.434 -4.671,-3.515 -1.679,-1 -3.266,-2.133 -3.99,-4.082 -0.374,-1.006 -0.152,-3.327 0.496,-4.173 0.473,-0.61 1.165,-1.016 1.916,-1.18 0.827,-0.177 1.687,-0.024 2.518,0.06 1.021,0.104 2.032,0.289 3.049,0.416 1.969,0.256 3.953,0.359 5.936,0.305 3.274,-0.091 6.555,-0.613 9.658,-1.67 2.165,-0.728 4.299,-1.711 6.141,-3.078 2.094,-1.557 1.546,-1.41 -0.577,-1.193 -2.542,0.261 -5.108,0.297 -7.656,0.147 -2.379,-0.138 -4.724,-0.418 -6.877,-1.524 -1.696,-0.874 -3.151,-1.75 -4.492,-3.105 -0.201,-0.204 -0.327,-0.802 0.041,-1.183 0.356,-0.371 1.113,-0.155 1.346,0.041 2.344,1.96 5.837,3.572 9.457,3.748 1.955,0.097 3.861,0.135 5.819,0.047 0.977,-0.044 2.457,-0.037 3.435,-0.047 0.508,-0.006 1.889,0.139 2.147,-0.397 0.077,-0.157 0.071,-0.338 0.065,-0.513 -0.288,-7.829 -0.867,-16.663 -9.061,-20.406 -6.114,-2.796 -15.281,-7.127 -19.152,-8.924 -0.9,-0.425 -1.95,0.249 -1.95,1.248 0,2.616 0.135,6.374 0.135,9.794 -1.854,-1.89 -4.978,-3.081 -7.359,-4.174 -2.702,-1.241 -5.495,-2.29 -8.332,-3.175 -5.72,-1.771 -11.636,-2.861 -17.586,-3.454 -6.746,-0.672 -13.608,-0.35 -20.257,1.022 -10.942,2.27 -21.698,7.534 -29.864,15.229 -5.013,4.724 -8.946,11.436 -9.213,18.25 -0.379,9.643 2.322,14.823 7.289,20.16 7.919,8.506 24.962,9.696 31.864,-0.39 3.103,-4.542 3.78,-10.701 1.525,-15.718 -2.252,-5.017 -7.433,-8.643 -12.927,-8.827 -4.264,-0.14 -8.805,2.027 -10.438,5.969 -1.247,3.009 -0.537,6.728 1.732,9.066 0.884,0.913 2.081,1.657 3.391,1.365 0.769,-0.17 1.414,-0.75 1.531,-1.532 0.172,-1.154 -0.839,-1.902 -1.459,-2.788 -1.121,-1.599 -0.894,-3.997 0.51,-5.356 1.184,-1.147 2.938,-1.486 4.587,-1.483 1.534,0.003 3.104,0.279 4.429,1.053 1.861,1.094 3.099,3.099 3.524,5.22 1.279,6.333 -3.869,11.479 -10.851,11.884 -3.571,0.212 -7.207,-0.728 -9.995,-2.972 -7.06,-5.679 -8.79,-17.288 -0.718,-23.486 7.659,-5.882 17.331,-4.366 23.03,-1.309 4.565,2.445 7.966,6.447 10.543,10.871 1.292,2.224 2.394,4.548 3.417,6.911 0.984,2.27 1.902,4.558 3.871,6.222 1.304,1.103 2.911,1.063 4.619,1.063 h 9.746 c 1.322,0 1.002,-0.882 0.428,-1.467 -1.292,-1.32 -3.148,-1.619 -4.868,-2.092 -3.926,-1.08 -3.526,-6.279 -2.44,-6.279 3.513,0 3.624,0.104 6.7,0.063 4.442,-0.06 5.783,-0.318 9.254,0.967 1.858,0.687 3.642,2.502 4.804,4.158"
       fill="#30ba78"
       id="path1036" /></g></svg>
