<?xml version="1.0" encoding="UTF-8" standalone="no"?>
<svg
   version="1.1"
   x="0"
   y="0"
   width="1500"
   height="450"
   viewBox="0 0 1500 450"
   id="svg9"
   sodipodi:docname="logo-lockup_suse-aws_vert_dark.svg"
   inkscape:version="1.2.1 (9c6d41e410, 2022-07-14)"
   xml:space="preserve"
   xmlns:inkscape="http://www.inkscape.org/namespaces/inkscape"
   xmlns:sodipodi="http://sodipodi.sourceforge.net/DTD/sodipodi-0.dtd"
   xmlns="http://www.w3.org/2000/svg"
   xmlns:svg="http://www.w3.org/2000/svg"><defs
     id="defs13"><style
       id="style1584">
      .f04ca906-1e69-4f27-8621-a7ab0851ca11 {
        fill: #55565b;
      }

      .e330b834-161b-487c-bb13-8bca561e66de {
        fill: #00abc7;
      }
    </style></defs><sodipodi:namedview
     id="namedview11"
     pagecolor="#ffffff"
     bordercolor="#666666"
     borderopacity="1.0"
     inkscape:pageshadow="2"
     inkscape:pageopacity="0.0"
     inkscape:pagecheckerboard="0"
     showgrid="true"
     scale-x="1"
     viewbox-width="1280"
     viewbox-height="600"
     width="2000px"
     height="400px"
     inkscape:zoom="0.71"
     inkscape:cx="897.1831"
     inkscape:cy="418.30986"
     inkscape:window-width="1920"
     inkscape:window-height="1051"
     inkscape:window-x="2015"
     inkscape:window-y="0"
     inkscape:window-maximized="1"
     inkscape:current-layer="svg9"
     inkscape:showpageshadow="2"
     inkscape:deskcolor="#d1d1d1"><inkscape:grid
       type="xygrid"
       id="grid38"
       originx="0"
       originy="0" /></sodipodi:namedview><path
     style="fill:none;stroke:#c0c0c0;stroke-width:8.34111;stroke-linecap:butt;stroke-linejoin:miter;stroke-miterlimit:4;stroke-dasharray:none;stroke-opacity:1"
     d="M 559.39639,362.41382 V 84.115549"
     id="path73" /><g
     id="g1038"
     transform="matrix(2.541,0,0,2.541,75.142341,13.878502)"><path
       d="m 148.462,130.726 h -13.556 c -1.044,0 -1.896,-0.849 -1.896,-1.895 v -6.849 h 13.083 c 1.124,0 2.037,-0.911 2.037,-2.036 0,-1.125 -0.913,-2.036 -2.037,-2.036 H 133.01 v -6.739 c 0,-1.046 0.852,-1.898 1.896,-1.898 h 13.556 c 1.18,0 2.138,-0.955 2.138,-2.135 0,-1.18 -0.958,-2.138 -2.138,-2.138 h -13.556 c -3.399,0 -6.168,2.768 -6.168,6.171 v 17.66 c 0,3.401 2.769,6.169 6.168,6.169 h 13.556 c 1.18,0 2.138,-0.956 2.138,-2.136 0,-1.181 -0.958,-2.138 -2.138,-2.138 m -39.861,-12.761 c -2.865,-0.514 -4.858,-1.123 -5.974,-1.832 -1.116,-0.709 -1.675,-1.667 -1.675,-2.874 0,-1.296 0.573,-2.36 1.72,-3.19 1.147,-0.829 2.76,-1.244 4.844,-1.244 2.111,0 3.801,0.406 5.069,1.222 0.681,0.438 1.303,1.022 1.863,1.75 0.826,1.071 2.384,1.212 3.389,0.308 0.946,-0.854 1.029,-2.319 0.177,-3.268 -1.027,-1.149 -2.197,-2.059 -3.507,-2.728 -1.946,-0.995 -4.292,-1.493 -7.036,-1.493 -2.355,0 -4.414,0.408 -6.177,1.222 -1.765,0.813 -3.118,1.916 -4.051,3.303 -0.937,1.387 -1.404,2.927 -1.404,4.616 0,1.6 0.368,2.958 1.11,4.073 0.737,1.117 1.923,2.052 3.552,2.806 1.628,0.755 3.815,1.388 6.562,1.901 2.746,0.513 4.668,1.101 5.769,1.764 1.102,0.665 1.653,1.539 1.653,2.624 0,1.359 -0.611,2.408 -1.835,3.146 -1.219,0.74 -2.902,1.109 -5.044,1.109 -2.263,0 -4.156,-0.422 -5.68,-1.267 -0.87,-0.483 -1.649,-1.123 -2.34,-1.92 -0.868,-1.008 -2.424,-1.031 -3.364,-0.091 l -0.009,0.009 c -0.86,0.859 -0.926,2.251 -0.114,3.155 2.582,2.883 6.434,4.322 11.551,4.322 2.354,0 4.428,-0.354 6.224,-1.063 1.795,-0.708 3.189,-1.726 4.185,-3.054 0.997,-1.328 1.494,-2.867 1.494,-4.617 0,-1.629 -0.362,-2.993 -1.086,-4.095 -0.725,-1.1 -1.877,-2.021 -3.462,-2.76 -1.583,-0.74 -3.719,-1.35 -6.404,-1.834 m -66.83,0.01 c -2.866,-0.516 -4.858,-1.123 -5.975,-1.832 -1.116,-0.711 -1.674,-1.668 -1.674,-2.876 0,-1.296 0.574,-2.36 1.72,-3.19 1.147,-0.828 2.76,-1.244 4.843,-1.244 2.11,0 3.8,0.407 5.068,1.222 0.683,0.438 1.304,1.022 1.864,1.752 0.825,1.07 2.384,1.21 3.39,0.307 0.946,-0.856 1.028,-2.319 0.176,-3.269 -1.027,-1.148 -2.198,-2.057 -3.507,-2.728 -1.946,-0.995 -4.293,-1.492 -7.037,-1.492 -2.354,0 -4.412,0.407 -6.177,1.221 -1.765,0.815 -3.116,1.917 -4.051,3.303 -0.935,1.389 -1.402,2.927 -1.402,4.617 0,1.599 0.368,2.958 1.108,4.072 0.739,1.118 1.924,2.053 3.553,2.807 1.629,0.754 3.816,1.387 6.561,1.901 2.746,0.513 4.669,1.101 5.771,1.765 1.1,0.662 1.652,1.538 1.652,2.623 0,1.358 -0.612,2.407 -1.833,3.146 -1.222,0.74 -2.904,1.109 -5.045,1.109 -2.264,0 -4.157,-0.422 -5.68,-1.268 -0.871,-0.483 -1.65,-1.123 -2.339,-1.92 -0.868,-1.007 -2.427,-1.031 -3.367,-0.09 l -0.008,0.009 c -0.86,0.858 -0.925,2.251 -0.115,3.155 2.583,2.882 6.434,4.322 11.553,4.322 2.353,0 4.427,-0.355 6.222,-1.064 1.796,-0.708 3.19,-1.727 4.186,-3.054 0.997,-1.326 1.494,-2.867 1.494,-4.617 0,-1.628 -0.362,-2.993 -1.087,-4.094 -0.724,-1.101 -1.876,-2.021 -3.462,-2.76 -1.583,-0.741 -3.717,-1.351 -6.402,-1.833 M 86.342,107.06 v 16.427 c 0,3.922 -1.04,6.886 -3.121,8.893 -2.083,2.006 -5.114,3.008 -9.096,3.008 -3.983,0 -7.016,-1.002 -9.097,-3.008 -2.081,-2.007 -3.122,-4.971 -3.122,-8.893 V 107.06 c 0,-1.35 1.094,-2.444 2.443,-2.444 1.348,0 2.445,1.094 2.445,2.444 v 15.839 c 0,2.836 0.595,4.925 1.787,6.267 1.192,1.342 3.038,2.014 5.544,2.014 2.504,0 4.351,-0.672 5.543,-2.014 1.192,-1.342 1.787,-3.431 1.787,-6.267 V 107.06 c 0,-1.35 1.095,-2.444 2.445,-2.444 1.348,0 2.442,1.094 2.442,2.444"
       fill="#0c322c"
       id="path1034" /><path
       d="m 144.609,50.569 c -0.657,0.436 -1.538,0.437 -2.195,0 -1.079,-0.716 -1.182,-2.211 -0.312,-3.079 0.772,-0.8 2.046,-0.8 2.819,-0.001 0.868,0.868 0.763,2.364 -0.312,3.08 m 3.14,-4.361 c 1.252,5.329 -3.537,10.121 -8.866,8.869 -2.712,-0.637 -4.868,-2.79 -5.502,-5.503 -1.251,-5.326 3.536,-10.114 8.864,-8.865 2.711,0.633 4.865,2.786 5.504,5.499 m -35.882,28.659 c 0.612,0.876 1.116,1.721 1.402,2.566 0.2,0.602 0.456,1.393 1.05,1.711 0.034,0.018 0.062,0.033 0.097,0.044 1.087,0.396 3.884,0.329 3.884,0.329 h 5.142 c 0.439,0.007 4.301,-0.004 4.205,-0.437 -0.463,-2.066 -2.855,-2.434 -4.671,-3.515 -1.679,-1 -3.266,-2.133 -3.99,-4.082 -0.374,-1.006 -0.152,-3.327 0.496,-4.173 0.473,-0.61 1.165,-1.016 1.916,-1.18 0.827,-0.177 1.687,-0.024 2.518,0.06 1.021,0.104 2.032,0.289 3.049,0.416 1.969,0.256 3.953,0.359 5.936,0.305 3.274,-0.091 6.555,-0.613 9.658,-1.67 2.165,-0.728 4.299,-1.711 6.141,-3.078 2.094,-1.557 1.546,-1.41 -0.577,-1.193 -2.542,0.261 -5.108,0.297 -7.656,0.147 -2.379,-0.138 -4.724,-0.418 -6.877,-1.524 -1.696,-0.874 -3.151,-1.75 -4.492,-3.105 -0.201,-0.204 -0.327,-0.802 0.041,-1.183 0.356,-0.371 1.113,-0.155 1.346,0.041 2.344,1.96 5.837,3.572 9.457,3.748 1.955,0.097 3.861,0.135 5.819,0.047 0.977,-0.044 2.457,-0.037 3.435,-0.047 0.508,-0.006 1.889,0.139 2.147,-0.397 0.077,-0.157 0.071,-0.338 0.065,-0.513 -0.288,-7.829 -0.867,-16.663 -9.061,-20.406 -6.114,-2.796 -15.281,-7.127 -19.152,-8.924 -0.9,-0.425 -1.95,0.249 -1.95,1.248 0,2.616 0.135,6.374 0.135,9.794 -1.854,-1.89 -4.978,-3.081 -7.359,-4.174 -2.702,-1.241 -5.495,-2.29 -8.332,-3.175 -5.72,-1.771 -11.636,-2.861 -17.586,-3.454 -6.746,-0.672 -13.608,-0.35 -20.257,1.022 -10.942,2.27 -21.698,7.534 -29.864,15.229 -5.013,4.724 -8.946,11.436 -9.213,18.25 -0.379,9.643 2.322,14.823 7.289,20.16 7.919,8.506 24.962,9.696 31.864,-0.39 3.103,-4.542 3.78,-10.701 1.525,-15.718 -2.252,-5.017 -7.433,-8.643 -12.927,-8.827 -4.264,-0.14 -8.805,2.027 -10.438,5.969 -1.247,3.009 -0.537,6.728 1.732,9.066 0.884,0.913 2.081,1.657 3.391,1.365 0.769,-0.17 1.414,-0.75 1.531,-1.532 0.172,-1.154 -0.839,-1.902 -1.459,-2.788 -1.121,-1.599 -0.894,-3.997 0.51,-5.356 1.184,-1.147 2.938,-1.486 4.587,-1.483 1.534,0.003 3.104,0.279 4.429,1.053 1.861,1.094 3.099,3.099 3.524,5.22 1.279,6.333 -3.869,11.479 -10.851,11.884 -3.571,0.212 -7.207,-0.728 -9.995,-2.972 -7.06,-5.679 -8.79,-17.288 -0.718,-23.486 7.659,-5.882 17.331,-4.366 23.03,-1.309 4.565,2.445 7.966,6.447 10.543,10.871 1.292,2.224 2.394,4.548 3.417,6.911 0.984,2.27 1.902,4.558 3.871,6.222 1.304,1.103 2.911,1.063 4.619,1.063 h 9.746 c 1.322,0 1.002,-0.882 0.428,-1.467 -1.292,-1.32 -3.148,-1.619 -4.868,-2.092 -3.926,-1.08 -3.526,-6.279 -2.44,-6.279 3.513,0 3.624,0.104 6.7,0.063 4.442,-0.06 5.783,-0.318 9.254,0.967 1.858,0.687 3.642,2.502 4.804,4.158"
       fill="#30ba78"
       id="path1036" /></g><g
     id="g281"
     transform="matrix(5.7524749,0,0,5.7524749,670.55265,82.461349)"><path
       d="m 39.328,18.156 c -2.287,0 -4.84,0.881 -5.375,3.781 -0.057,0.308 0.147,0.455 0.344,0.5 l 2.344,0.281 c 0.217,-0.011 0.364,-0.247 0.406,-0.469 0.2,-0.998 1.021,-1.469 1.938,-1.469 0.495,0 1.051,0.17 1.344,0.625 0.336,0.507 0.312,1.196 0.312,1.781 v 0.344 c -1.393,0.16 -3.227,0.257 -4.531,0.844 -1.505,0.669 -2.562,2.03 -2.562,4.031 0,2.564 1.571,3.844 3.594,3.844 1.708,0 2.652,-0.401 3.969,-1.781 0.437,0.65 0.577,0.945 1.375,1.625 a 0.481,0.481 0 0 0 0.562,-0.062 v 0.031 c 0.48,-0.438 1.353,-1.234 1.844,-1.656 0.196,-0.164 0.153,-0.434 0,-0.656 -0.439,-0.622 -0.906,-1.124 -0.906,-2.281 v -3.844 c 0,-1.628 0.138,-3.129 -1.031,-4.25 -0.923,-0.907 -2.459,-1.219 -3.627,-1.219 z m 31.5,0 c -2.288,0 -4.839,0.881 -5.375,3.781 -0.057,0.308 0.146,0.455 0.344,0.5 l 2.344,0.281 c 0.217,-0.011 0.365,-0.247 0.406,-0.469 0.201,-0.998 1.021,-1.469 1.938,-1.469 0.496,0 1.051,0.17 1.344,0.625 0.335,0.507 0.281,1.196 0.281,1.781 v 0.344 c -1.393,0.16 -3.195,0.257 -4.5,0.844 -1.506,0.669 -2.562,2.03 -2.562,4.031 0,2.564 1.572,3.844 3.594,3.844 1.706,0 2.65,-0.401 3.969,-1.781 0.436,0.65 0.577,0.945 1.375,1.625 0.18,0.096 0.403,0.086 0.562,-0.062 v 0.031 c 0.48,-0.438 1.353,-1.234 1.844,-1.656 0.195,-0.164 0.15,-0.434 0,-0.656 -0.439,-0.622 -0.906,-1.124 -0.906,-2.281 v -3.844 c 0,-1.628 0.105,-3.129 -1.062,-4.25 -0.924,-0.907 -2.428,-1.219 -3.596,-1.219 z m -17.719,0.125 c -1.478,0 -2.574,0.746 -3.156,2.344 h -0.031 v -1.656 a 0.472,0.472 0 0 0 -0.438,-0.438 h -2.25 A 0.476,0.476 0 0 0 46.765,19 v 12.656 a 0.486,0.486 0 0 0 0.438,0.438 h 2.406 a 0.474,0.474 0 0 0 0.469,-0.469 v -6.719 c 0,-1.465 -0.071,-3.469 1.656,-3.469 1.705,0 1.469,2.059 1.469,3.469 v 6.719 c 0,0.239 0.195,0.453 0.438,0.469 h 2.406 a 0.474,0.474 0 0 0 0.469,-0.469 v -6.719 c 0,-0.719 -0.029,-1.766 0.219,-2.406 0.247,-0.64 0.854,-1.062 1.438,-1.062 0.696,0 1.227,0.243 1.406,1.094 0.112,0.506 0.062,1.843 0.062,2.375 v 6.719 c 0,0.239 0.195,0.453 0.438,0.469 h 2.406 a 0.474,0.474 0 0 0 0.469,-0.469 v -8 c 0,-1.359 0.137,-2.902 -0.625,-3.969 -0.673,-0.958 -1.773,-1.375 -2.781,-1.375 -1.414,0 -2.729,0.746 -3.312,2.344 -0.674,-1.598 -1.624,-2.345 -3.127,-2.345 z m 40.907,0 c -3.477,0 -5.406,3.057 -5.406,7 0,3.916 1.908,7.062 5.406,7.062 3.365,0 5.5,-3.074 5.5,-6.938 0,-3.993 -1.934,-7.124 -5.5,-7.124 z m 13.718,0 c -1.661,0 -2.61,0.831 -3.281,2.562 h -0.031 v -1.938 c -0.043,-0.196 -0.228,-0.332 -0.438,-0.344 h -2.219 a 0.462,0.462 0 0 0 -0.469,0.406 v 12.656 a 0.48,0.48 0 0 0 0.438,0.469 h 2.375 a 0.476,0.476 0 0 0 0.469,-0.469 v -6.812 c 0,-0.854 0.072,-1.633 0.406,-2.406 0.27,-0.613 0.791,-1 1.375,-1 1.658,0 1.5,2.021 1.5,3.406 v 6.875 a 0.474,0.474 0 0 0 0.438,0.406 h 2.406 c 0.236,0 0.441,-0.18 0.469,-0.406 v -7.969 c 0,-1.225 0.003,-2.927 -0.625,-3.938 -0.673,-1.091 -1.738,-1.498 -2.813,-1.498 z M 78.859,18.5 c -0.244,0 -0.437,0.194 -0.438,0.469 v 1.812 c 10e-4,0.271 0.188,0.467 0.438,0.469 h 4.125 l -4.719,6.969 c -0.288,0.449 -0.312,0.958 -0.312,1.25 v 1.844 c 0,0.266 0.289,0.555 0.562,0.406 2.689,-1.468 5.912,-1.338 8.344,-0.031 0.295,0.161 0.594,-0.141 0.594,-0.406 v -1.938 a 0.822,0.822 0 0 0 -0.438,-0.688 c -1.38,-0.794 -2.982,-1.037 -4.5,-1 l 4.094,-6 c 0.379,-0.539 0.591,-0.864 0.594,-1.125 V 18.969 C 87.203,18.7 87.019,18.5 86.765,18.5 Z m 15.157,2.375 c 0.762,0 1.324,0.34 1.594,1.219 0.312,1.013 0.344,2.278 0.344,3.344 0,1.624 -0.076,4.312 -1.938,4.312 -1.883,0 -1.875,-3.328 -1.875,-4.875 0,-1.543 0.103,-4 1.875,-4 z M 40.609,25.5 v 0.531 c 0,0.961 0.035,1.77 -0.438,2.625 -0.382,0.695 -0.982,1.125 -1.656,1.125 -0.92,0 -1.469,-0.746 -1.469,-1.812 10e-4,-2.102 1.827,-2.469 3.563,-2.469 z m 31.5,0 v 0.531 c 0,0.961 0.035,1.77 -0.438,2.625 -0.382,0.695 -0.979,1.125 -1.656,1.125 -0.921,0 -1.469,-0.746 -1.469,-1.812 10e-4,-2.102 1.825,-2.469 3.563,-2.469 z"
       fill="#201c1d"
       id="path266" /><path
       d="m 87.703,32.5 v 1.812 h 1.219 V 32.5 Z m -35.344,0.312 v 12.906 h 1.125 v -1.156 c 0.24,0.458 0.513,0.801 0.844,1.031 0.33,0.23 0.709,0.344 1.125,0.344 0.826,0 1.539,-0.422 2.156,-1.281 0.617,-0.859 0.938,-2.104 0.938,-3.688 0,-1.037 -0.133,-1.896 -0.406,-2.625 -0.273,-0.727 -0.638,-1.268 -1.094,-1.625 -0.456,-0.357 -0.974,-0.562 -1.531,-0.562 a 2,2 0 0 0 -1.094,0.312 c -0.325,0.208 -0.588,0.547 -0.844,0.969 v -4.625 z m 11.563,3.032 c -0.848,0 -1.521,0.251 -2,0.75 -0.479,0.498 -0.719,1.141 -0.719,1.938 0,0.463 0.104,0.854 0.281,1.219 0.177,0.365 0.432,0.658 0.75,0.875 0.32,0.217 0.958,0.502 1.906,0.812 0.656,0.211 1.048,0.391 1.219,0.531 0.248,0.205 0.375,0.474 0.375,0.844 0,0.428 -0.148,0.785 -0.438,1.062 -0.289,0.279 -0.691,0.406 -1.219,0.406 -0.528,0 -0.963,-0.148 -1.281,-0.469 -0.318,-0.321 -0.49,-0.809 -0.562,-1.469 l -1.219,0.25 c 0.275,2.005 1.275,3.001 3,3 0.92,0 1.624,-0.261 2.156,-0.812 0.532,-0.551 0.812,-1.295 0.812,-2.188 0,-0.482 -0.085,-0.9 -0.25,-1.25 -0.165,-0.35 -0.392,-0.609 -0.688,-0.812 -0.297,-0.202 -0.959,-0.472 -1.969,-0.812 -0.734,-0.257 -1.164,-0.445 -1.312,-0.562 -0.249,-0.198 -0.375,-0.468 -0.375,-0.812 0,-0.352 0.116,-0.65 0.375,-0.875 0.259,-0.225 0.658,-0.344 1.188,-0.344 0.932,0 1.453,0.512 1.562,1.531 l 1.188,-0.188 c -0.082,-0.645 -0.223,-1.154 -0.438,-1.5 -0.215,-0.346 -0.533,-0.638 -0.938,-0.844 -0.404,-0.205 -0.869,-0.281 -1.404,-0.281 z m 7.469,0 c -0.977,0 -1.801,0.402 -2.438,1.25 -0.637,0.848 -0.938,2.076 -0.938,3.688 0,1.553 0.307,2.77 0.938,3.594 0.631,0.823 1.449,1.219 2.469,1.219 0.811,0 1.483,-0.243 2.031,-0.75 0.549,-0.507 0.947,-1.253 1.156,-2.25 l -1.25,-0.219 c -0.359,1.277 -1.021,1.904 -1.938,1.906 -0.584,0 -1.061,-0.248 -1.469,-0.781 -0.408,-0.534 -0.639,-1.326 -0.688,-2.375 h 5.375 v -0.438 c 0,-1.577 -0.314,-2.761 -0.938,-3.594 -0.622,-0.833 -1.379,-1.25 -2.31,-1.25 z m 7.406,0 c -0.292,0 -0.547,0.099 -0.781,0.312 -0.234,0.213 -0.5,0.655 -0.781,1.312 V 36.03 h -1.094 v 9.344 H 77.36 V 40.5 c 0,-0.68 0.064,-1.334 0.219,-1.938 0.088,-0.346 0.254,-0.619 0.469,-0.812 0.215,-0.193 0.46,-0.281 0.719,-0.281 0.287,0 0.572,0.115 0.875,0.344 l 0.406,-1.469 c -0.426,-0.34 -0.843,-0.5 -1.251,-0.5 z m 14.937,0 c -0.965,0 -1.76,0.406 -2.375,1.219 -0.613,0.812 -0.938,2.032 -0.938,3.656 0,1.611 0.328,2.832 0.938,3.656 0.609,0.823 1.371,1.219 2.312,1.219 0.777,0 1.445,-0.289 2,-0.875 0.555,-0.586 0.893,-1.448 1.031,-2.562 l -1.188,-0.188 c -0.088,0.797 -0.296,1.37 -0.625,1.75 -0.329,0.378 -0.725,0.562 -1.188,0.562 -0.59,0 -1.092,-0.275 -1.469,-0.844 -0.377,-0.569 -0.562,-1.479 -0.562,-2.75 0,-1.232 0.199,-2.121 0.594,-2.688 0.395,-0.567 0.898,-0.875 1.5,-0.875 0.402,0 0.745,0.156 1.031,0.469 0.288,0.312 0.479,0.808 0.594,1.438 l 1.188,-0.25 c -0.143,-0.984 -0.459,-1.727 -0.969,-2.219 -0.51,-0.493 -1.129,-0.718 -1.874,-0.718 z m 6.969,0 c -0.977,0 -1.801,0.402 -2.438,1.25 -0.637,0.848 -0.938,2.076 -0.938,3.688 0,1.553 0.307,2.77 0.938,3.594 0.632,0.823 1.449,1.219 2.469,1.219 0.809,0 1.482,-0.243 2.031,-0.75 0.548,-0.507 0.946,-1.253 1.156,-2.25 l -1.25,-0.219 c -0.359,1.277 -0.992,1.904 -1.906,1.906 -0.584,0 -1.092,-0.248 -1.5,-0.781 -0.408,-0.534 -0.638,-1.326 -0.688,-2.375 h 5.375 v -0.438 c 0,-1.577 -0.314,-2.761 -0.938,-3.594 -0.62,-0.833 -1.379,-1.25 -2.311,-1.25 z m 7.219,0 c -0.85,0 -1.521,0.251 -2,0.75 -0.48,0.498 -0.719,1.141 -0.719,1.938 0,0.463 0.073,0.854 0.25,1.219 0.176,0.364 0.43,0.658 0.75,0.875 0.318,0.217 0.959,0.502 1.906,0.812 0.654,0.211 1.079,0.391 1.25,0.531 0.248,0.205 0.375,0.474 0.375,0.844 0,0.428 -0.148,0.785 -0.438,1.062 -0.288,0.279 -0.691,0.406 -1.219,0.406 -0.529,0 -0.963,-0.148 -1.281,-0.469 -0.318,-0.321 -0.523,-0.809 -0.594,-1.469 l -1.219,0.25 c 0.275,2.005 1.273,3.001 3,3 0.921,0 1.655,-0.261 2.188,-0.812 0.533,-0.551 0.812,-1.295 0.812,-2.188 0,-0.482 -0.085,-0.9 -0.25,-1.25 -0.165,-0.35 -0.422,-0.609 -0.719,-0.812 -0.296,-0.202 -0.928,-0.472 -1.938,-0.812 -0.734,-0.257 -1.195,-0.445 -1.344,-0.562 -0.249,-0.198 -0.375,-0.468 -0.375,-0.812 0,-0.352 0.147,-0.65 0.406,-0.875 0.259,-0.225 0.66,-0.344 1.188,-0.344 0.932,0 1.453,0.512 1.562,1.531 l 1.188,-0.188 c -0.083,-0.645 -0.222,-1.154 -0.438,-1.5 a 2.338,2.338 0 0 0 -0.938,-0.844 c -0.401,-0.205 -0.869,-0.281 -1.403,-0.281 z m -27.875,0.187 2.719,9.344 h 1.156 l 2.719,-9.344 h -1.25 l -1.594,5.719 c -0.193,0.691 -0.363,1.288 -0.469,1.781 -0.133,-0.621 -0.26,-1.273 -0.438,-1.906 l -1.562,-5.594 z m 7.656,0 v 9.344 h 1.219 v -9.344 z m -40.062,0.125 c -0.967,0 -1.745,0.434 -2.375,1.281 -0.631,0.848 -0.969,2.076 -0.969,3.688 0,1.553 0.312,2.739 0.938,3.562 0.626,0.823 1.459,1.25 2.469,1.25 0.802,0 1.457,-0.274 2,-0.781 0.542,-0.507 0.917,-1.253 1.125,-2.25 L 49.61,42.718 c -0.355,1.277 -1,1.904 -1.906,1.906 -0.579,0 -1.065,-0.248 -1.469,-0.781 -0.404,-0.534 -0.639,-1.326 -0.688,-2.375 h 5.312 L 50.89,41.03 c 0,-1.577 -0.32,-2.792 -0.938,-3.625 -0.618,-0.833 -1.39,-1.249 -2.311,-1.249 z m -13.719,0.219 2.188,9.344 h 1.281 l 1.438,-7.188 0.25,1.594 1.156,5.594 h 1.25 l 2.219,-9.344 h -1.156 l -1.219,5.406 -0.406,1.812 -0.375,-1.812 -1.062,-5.406 h -1.25 l -1.125,5.469 -0.375,1.938 -0.438,-2 -1.125,-5.406 h -1.251 z m 77.781,0.094 v 0.438 h 1.188 v 3.125 h 0.469 v -3.125 h 1.188 v -0.438 z m 3.313,0 v 3.562 h 0.438 V 37 l 1.031,3.031 h 0.438 l 1.031,-2.969 v 2.969 h 0.469 v -3.562 h -0.656 l -0.844,2.5 c -0.085,0.25 -0.146,0.431 -0.188,0.562 L 116.547,39 115.703,36.469 Z m -43.657,0.656 c 0.607,0 1.107,0.294 1.5,0.875 0.27,0.398 0.445,1.004 0.5,1.812 h -4.031 c 0.038,-0.82 0.27,-1.453 0.656,-1.938 0.386,-0.485 0.83,-0.749 1.375,-0.749 z m 29.313,0 c 0.605,0 1.107,0.294 1.5,0.875 0.27,0.398 0.445,1.004 0.5,1.812 h -4.031 c 0.038,-0.82 0.27,-1.453 0.656,-1.938 0.385,-0.483 0.829,-0.749 1.375,-0.749 z m -53.031,0.344 c 0.6,0 1.082,0.294 1.469,0.875 0.267,0.398 0.445,1.004 0.5,1.812 h -3.969 c 0.038,-0.82 0.241,-1.484 0.625,-1.969 0.381,-0.484 0.834,-0.718 1.375,-0.718 z m 7.75,0 c 0.542,0 1.003,0.301 1.375,0.875 0.372,0.575 0.531,1.461 0.531,2.688 0,1.195 -0.176,2.086 -0.562,2.688 -0.386,0.602 -0.846,0.906 -1.344,0.906 -0.366,0 -0.699,-0.123 -1,-0.375 -0.302,-0.252 -0.523,-0.613 -0.688,-1.094 -0.165,-0.481 -0.25,-1.221 -0.25,-2.188 0,-1.139 0.203,-1.992 0.594,-2.594 0.391,-0.602 0.846,-0.906 1.344,-0.906 z"
       id="path268" /><path
       d="m 16.406,27.562 -4.656,2 4.312,1.844 5,-1.844 z m -7,2.5 -0.156,9 6.812,3 v -9.344 z m 14,0 -6.156,2.344 v 8.812 l 6.156,-2.5 z m 7.344,-28 -4.688,2 4.344,1.844 5,-1.844 z m -6.5,2.657 v 9 l 5.812,1.688 0.188,-8.188 z m 13,0.5 -5.5,2.344 v 8.844 l 5.5,-2.5 z m -28.516,9.51 -4.656,2 4.312,1.844 5,-1.844 z m -7,2.5 -0.156,9 6.812,3 v -9.344 z m 14,0 -6.156,2.344 v 8.812 l 6.156,-2.5 z m 8,-2.832 -4.656,2 4.312,1.844 5,-1.844 z m -7,2.5 -0.156,9 6.812,3 v -9.343 z m 14,0 -6.156,2.344 v 8.812 l 6.156,-2.5 z m 14.667,-14.835 -4.656,2 4.312,1.844 5,-1.844 z m -7,2.5 -0.156,9 6.812,3 V 7.219 Z m 14,0 -6.156,2.344 v 8.812 l 6.156,-2.5 z"
       fill="#f7a80d"
       id="path270" /></g></svg>
