<?xml version="1.0" encoding="UTF-8" standalone="no"?>
<!-- Created with Inkscape (http://www.inkscape.org/) -->

<svg
   version="1.1"
   id="svg2"
   width="1400"
   height="300"
   viewBox="0 0 1399.9999 300"
   sodipodi:docname="logo-lockup_suse-aws_positive.svg"
   inkscape:version="1.2.1 (9c6d41e410, 2022-07-14)"
   xmlns:inkscape="http://www.inkscape.org/namespaces/inkscape"
   xmlns:sodipodi="http://sodipodi.sourceforge.net/DTD/sodipodi-0.dtd"
   xmlns="http://www.w3.org/2000/svg"
   xmlns:svg="http://www.w3.org/2000/svg">
  <defs
     id="defs6">
    <clipPath
       clipPathUnits="userSpaceOnUse"
       id="clipPath18">
      <path
         d="M 0,190 H 914 V 0 H 0 Z"
         id="path16" />
    </clipPath>
  </defs>
  <sodipodi:namedview
     id="namedview4"
     pagecolor="#ffffff"
     bordercolor="#666666"
     borderopacity="1.0"
     inkscape:showpageshadow="2"
     inkscape:pageopacity="0.0"
     inkscape:pagecheckerboard="0"
     inkscape:deskcolor="#d1d1d1"
     showgrid="false"
     inkscape:zoom="0.83972969"
     inkscape:cx="716.89736"
     inkscape:cy="126.2311"
     inkscape:window-width="1920"
     inkscape:window-height="1051"
     inkscape:window-x="2015"
     inkscape:window-y="0"
     inkscape:window-maximized="1"
     inkscape:current-layer="g10">
    <inkscape:page
       x="0"
       y="0"
       id="page8"
       width="1399.9999"
       height="300" />
  </sodipodi:namedview>
  <g
     id="g10"
     inkscape:groupmode="layer"
     inkscape:label="Page 1"
     transform="matrix(1.3333333,0,0,-1.3333333,0,253.33333)">
    <g
       id="g12"
       transform="translate(56.219482,-16.950613)">
      <g
         id="g14"
         clip-path="url(#clipPath18)">
        <g
           id="g20"
           transform="translate(359.715,131.41)">
          <path
             d="m 0,0 v -38.135 c 0,-9.102 -2.417,-15.983 -7.247,-20.642 -4.833,-4.659 -11.872,-6.985 -21.113,-6.985 -9.248,0 -16.287,2.326 -21.12,6.985 -4.831,4.659 -7.245,11.54 -7.245,20.642 V 0 c 0,3.134 2.535,5.671 5.669,5.671 3.131,0 5.676,-2.537 5.676,-5.671 v -36.768 c 0,-6.586 1.381,-11.435 4.148,-14.55 2.767,-3.116 7.055,-4.676 12.872,-4.676 5.813,0 10.098,1.56 12.865,4.676 2.767,3.115 4.15,7.964 4.15,14.55 V 0 c 0,3.134 2.542,5.671 5.672,5.671 C -2.54,5.671 0,3.134 0,0 m -103.47,-25.338 c -6.653,1.196 -11.275,2.61 -13.866,4.255 -2.593,1.646 -3.886,3.87 -3.886,6.674 0,3.009 1.33,5.479 3.991,7.403 2.662,1.925 6.409,2.89 11.242,2.89 4.898,0 8.824,-0.947 11.765,-2.836 1.588,-1.02 3.029,-2.375 4.329,-4.068 1.913,-2.483 5.534,-2.811 7.865,-0.712 2.201,1.985 2.391,5.383 0.413,7.586 -2.386,2.667 -5.102,4.777 -8.141,6.333 -4.517,2.309 -9.966,3.466 -16.338,3.466 -5.462,0 -10.242,-0.945 -14.336,-2.835 -4.1,-1.889 -7.234,-4.45 -9.404,-7.672 -2.171,-3.22 -3.257,-6.79 -3.257,-10.713 0,-3.712 0.854,-6.867 2.574,-9.453 1.716,-2.593 4.467,-4.768 8.246,-6.516 3.781,-1.752 8.86,-3.222 15.233,-4.413 6.372,-1.191 10.836,-2.558 13.394,-4.097 2.556,-1.539 3.835,-3.57 3.835,-6.091 0,-3.153 -1.419,-5.585 -4.253,-7.301 -2.839,-1.718 -6.744,-2.574 -11.714,-2.574 -5.255,0 -9.652,0.979 -13.187,2.943 -2.018,1.119 -3.828,2.605 -5.425,4.455 -2.015,2.34 -5.634,2.393 -7.819,0.209 l -0.016,-0.019 c -1.996,-1.991 -2.15,-5.225 -0.267,-7.324 5.994,-6.692 14.933,-10.033 26.819,-10.033 5.462,0 10.276,0.822 14.443,2.468 4.167,1.644 7.406,4.011 9.718,7.092 2.312,3.078 3.465,6.655 3.465,10.715 0,3.782 -0.84,6.948 -2.521,9.506 -1.683,2.558 -4.357,4.692 -8.039,6.407 -3.674,1.718 -8.628,3.134 -14.863,4.255 m 155.141,0.021 c -6.653,1.196 -11.279,2.607 -13.868,4.255 -2.593,1.646 -3.888,3.868 -3.888,6.67 0,3.008 1.33,5.48 3.991,7.407 2.662,1.922 6.409,2.888 11.244,2.888 4.903,0 8.824,-0.943 11.767,-2.837 1.583,-1.019 3.025,-2.372 4.325,-4.067 1.917,-2.479 5.536,-2.809 7.867,-0.71 2.198,1.982 2.391,5.381 0.413,7.586 -2.386,2.665 -5.1,4.775 -8.141,6.33 -4.519,2.312 -9.965,3.466 -16.335,3.466 -5.465,0 -10.244,-0.942 -14.339,-2.834 -4.097,-1.89 -7.236,-4.448 -9.404,-7.668 -2.173,-3.224 -3.257,-6.794 -3.257,-10.718 0,-3.711 0.854,-6.861 2.574,-9.452 1.714,-2.595 4.467,-4.764 8.248,-6.514 3.779,-1.752 8.856,-3.222 15.231,-4.413 6.374,-1.193 10.838,-2.556 13.394,-4.097 2.558,-1.541 3.835,-3.57 3.835,-6.089 0,-3.155 -1.416,-5.59 -4.258,-7.305 -2.832,-1.716 -6.738,-2.575 -11.711,-2.575 -5.253,0 -9.647,0.98 -13.185,2.944 -2.02,1.121 -3.828,2.607 -5.43,4.457 -2.015,2.337 -5.631,2.393 -7.811,0.211 l -0.019,-0.023 c -1.996,-1.992 -2.149,-5.225 -0.267,-7.324 5.994,-6.69 14.936,-10.033 26.817,-10.033 5.462,0 10.279,0.824 14.448,2.47 4.167,1.644 7.4,4.007 9.712,7.087 2.315,3.083 3.471,6.655 3.471,10.72 0,3.779 -0.84,6.948 -2.521,9.504 -1.683,2.556 -4.36,4.694 -8.039,6.407 -3.675,1.718 -8.631,3.136 -14.864,4.257 m 92.53,-29.623 h -31.466 c -2.426,0 -4.402,1.973 -4.402,4.402 v 15.896 h 30.373 c 2.609,0 4.727,2.115 4.727,4.727 0,2.611 -2.118,4.728 -4.727,4.728 h -30.373 v 15.644 c 0,2.428 1.976,4.404 4.402,4.404 h 31.466 c 2.739,0 4.963,2.216 4.963,4.958 0,2.739 -2.224,4.961 -4.963,4.961 h -31.466 c -7.893,0 -14.321,-6.424 -14.321,-14.323 v -40.995 c 0,-7.898 6.428,-14.321 14.321,-14.321 h 31.466 c 2.739,0 4.963,2.217 4.963,4.956 0,2.742 -2.224,4.963 -4.963,4.963"
             style="fill:#0c322c;fill-opacity:1;fill-rule:nonzero;stroke:none"
             id="path22" />
        </g>
        <g
           id="g24"
           transform="translate(138.9276,73.1994)">
          <path
             d="M 0,0 C 0.871,-1.251 1.595,-2.461 2.001,-3.67 2.289,-4.529 2.658,-5.662 3.505,-6.117 3.552,-6.142 3.593,-6.166 3.645,-6.179 5.2,-6.746 9.2,-6.651 9.2,-6.651 h 7.356 c 0.629,-0.009 6.156,0.007 6.017,0.625 -0.666,2.955 -4.083,3.484 -6.686,5.03 -2.398,1.43 -4.672,3.05 -5.703,5.838 -0.539,1.44 -0.221,4.759 0.706,5.969 0.675,0.875 1.671,1.455 2.741,1.69 1.186,0.253 2.417,0.034 3.603,-0.086 1.462,-0.149 2.906,-0.414 4.364,-0.595 2.813,-0.366 5.655,-0.513 8.492,-0.436 4.682,0.13 9.376,0.875 13.814,2.389 3.099,1.04 6.152,2.446 8.786,4.403 2.995,2.226 2.208,2.018 -0.828,1.706 -3.636,-0.371 -7.303,-0.427 -10.95,-0.211 -3.403,0.198 -6.76,0.599 -9.838,2.18 -2.424,1.251 -4.506,2.505 -6.428,4.443 -0.288,0.293 -0.467,1.147 0.06,1.692 0.511,0.53 1.593,0.223 1.925,-0.06 3.352,-2.802 8.352,-5.109 13.529,-5.36 2.799,-0.139 5.522,-0.19 8.324,-0.07 1.4,0.065 3.512,0.056 4.917,0.07 0.724,0.009 2.699,-0.2 3.069,0.569 0.111,0.223 0.102,0.48 0.092,0.731 -0.41,11.203 -1.239,23.838 -12.962,29.193 -8.747,4 -21.86,10.196 -27.399,12.766 -1.284,0.61 -2.786,-0.356 -2.786,-1.785 0,-3.743 0.191,-9.119 0.193,-14.012 -2.653,2.702 -7.122,4.408 -10.528,5.973 -3.867,1.773 -7.86,3.277 -11.922,4.543 -8.178,2.532 -16.642,4.092 -25.154,4.937 -9.655,0.963 -19.472,0.501 -28.978,-1.462 -15.655,-3.246 -31.044,-10.774 -42.725,-21.784 -7.17,-6.755 -12.797,-16.359 -13.178,-26.106 -0.543,-13.796 3.322,-21.203 10.425,-28.838 11.328,-12.169 35.71,-13.873 45.585,0.557 4.443,6.495 5.406,15.304 2.182,22.484 -3.225,7.176 -10.637,12.362 -18.494,12.626 -6.099,0.202 -12.596,-2.899 -14.934,-8.538 -1.783,-4.306 -0.768,-9.626 2.479,-12.969 1.266,-1.305 2.979,-2.373 4.85,-1.955 1.102,0.246 2.024,1.075 2.191,2.194 0.246,1.65 -1.198,2.721 -2.087,3.988 -1.604,2.287 -1.279,5.72 0.729,7.663 1.695,1.641 4.204,2.126 6.563,2.119 2.196,-0.004 4.44,-0.397 6.335,-1.504 2.662,-1.567 4.431,-4.436 5.044,-7.468 1.827,-9.06 -5.539,-16.421 -15.525,-16.999 -5.11,-0.302 -10.31,1.04 -14.298,4.25 -10.1,8.125 -12.574,24.732 -1.03,33.597 10.959,8.415 24.794,6.247 32.951,1.874 6.528,-3.499 11.394,-9.223 15.08,-15.551 1.85,-3.183 3.426,-6.509 4.889,-9.887 1.407,-3.247 2.723,-6.52 5.539,-8.9 1.864,-1.578 4.164,-1.523 6.606,-1.523 h 13.94 c 1.894,0 1.432,1.263 0.615,2.099 -1.848,1.889 -4.503,2.317 -6.962,2.992 -5.62,1.546 -5.046,8.986 -3.491,8.986 5.024,0 5.181,-0.151 9.583,-0.095 6.351,0.088 8.273,0.457 13.241,-1.379 C -4.216,4.968 -1.664,2.372 0,0 m 51.33,41 c 1.792,-7.623 -5.061,-14.478 -12.684,-12.686 -3.881,0.91 -6.962,3.99 -7.874,7.869 -1.787,7.619 5.063,14.469 12.684,12.684 3.879,-0.908 6.962,-3.986 7.874,-7.867 m -4.494,-6.238 c -0.94,-0.624 -2.198,-0.624 -3.141,0 -1.541,1.024 -1.69,3.164 -0.446,4.402 1.105,1.144 2.928,1.144 4.033,0.002 1.241,-1.24 1.091,-3.38 -0.446,-4.404"
             style="fill:#34b677;fill-opacity:1;fill-rule:nonzero;stroke:none"
             id="path26" />
        </g>
        <g
           id="g28"
           transform="translate(582.3903,21.1352)">
          <path
             d="m 0,0 c -1.12,0 -2.027,0.907 -2.027,2.027 v 143.676 c 0,1.12 0.907,2.027 2.027,2.027 1.12,0 2.027,-0.907 2.027,-2.027 V 2.027 C 2.027,0.907 1.12,0 0,0"
             style="fill:#dededd;fill-opacity:1;fill-rule:nonzero;stroke:none"
             id="path30" />
        </g>
        <g
           id="g32"
           transform="translate(856.2075,91.7542)">
          <path
             d="m 0,0 c -4.117,0 -8.233,0.475 -12.191,1.425 -3.959,0.95 -7.046,1.979 -9.104,3.167 -1.267,0.712 -2.138,1.504 -2.455,2.216 -0.316,0.713 -0.474,1.504 -0.474,2.217 v 4.037 c 0,1.663 0.633,2.454 1.82,2.454 0.475,0 0.95,-0.079 1.425,-0.237 0.475,-0.159 1.188,-0.475 1.979,-0.792 2.692,-1.187 5.621,-2.137 8.709,-2.771 3.166,-0.633 6.254,-0.95 9.42,-0.95 4.988,0 8.867,0.871 11.558,2.613 2.692,1.741 4.117,4.275 4.117,7.521 0,2.216 -0.713,4.037 -2.138,5.541 -1.425,1.504 -4.116,2.85 -7.995,4.117 L -6.808,34.12 c -5.779,1.821 -10.054,4.512 -12.667,8.075 -2.612,3.483 -3.958,7.362 -3.958,11.479 0,3.325 0.713,6.254 2.138,8.787 1.425,2.533 3.325,4.75 5.699,6.492 2.375,1.82 5.067,3.166 8.234,4.116 3.166,0.95 6.491,1.346 9.974,1.346 1.742,0 3.563,-0.079 5.304,-0.317 1.821,-0.237 3.484,-0.554 5.146,-0.87 1.584,-0.396 3.088,-0.792 4.513,-1.267 1.425,-0.475 2.533,-0.95 3.325,-1.425 1.108,-0.633 1.9,-1.267 2.375,-1.979 0.475,-0.633 0.712,-1.504 0.712,-2.613 v -3.72 c 0,-1.663 -0.633,-2.534 -1.821,-2.534 -0.633,0 -1.662,0.317 -3.008,0.95 -4.512,2.059 -9.579,3.088 -15.2,3.088 -4.512,0 -8.075,-0.713 -10.529,-2.217 -2.454,-1.504 -3.72,-3.8 -3.72,-7.046 0,-2.216 0.791,-4.116 2.375,-5.62 1.583,-1.504 4.512,-3.008 8.708,-4.354 l 11.241,-3.563 c 5.7,-1.821 9.817,-4.354 12.271,-7.6 2.454,-3.245 3.641,-6.966 3.641,-11.083 0,-3.404 -0.712,-6.491 -2.058,-9.183 C 24.462,10.371 22.562,7.996 20.108,6.096 17.654,4.117 14.725,2.692 11.321,1.662 7.758,0.554 4.037,0 0,0 m -101.727,2.137 c -1.425,0 -2.375,0.238 -3.008,0.792 -0.634,0.475 -1.188,1.583 -1.663,3.088 l -18.603,61.194 c -0.475,1.583 -0.713,2.612 -0.713,3.167 0,1.266 0.633,1.979 1.9,1.979 h 7.758 c 1.504,0 2.533,-0.238 3.088,-0.792 0.633,-0.475 1.108,-1.583 1.583,-3.087 l 13.3,-52.408 12.349,52.408 c 0.396,1.583 0.871,2.612 1.504,3.087 0.634,0.475 1.742,0.792 3.167,0.792 h 6.333 c 1.504,0 2.534,-0.238 3.167,-0.792 0.633,-0.475 1.187,-1.583 1.504,-3.087 l 12.508,-53.041 13.696,53.041 c 0.475,1.583 1.029,2.612 1.583,3.087 0.633,0.475 1.662,0.792 3.087,0.792 h 7.363 c 1.266,0 1.979,-0.634 1.979,-1.979 0,-0.396 -0.079,-0.792 -0.159,-1.267 -0.079,-0.475 -0.237,-1.108 -0.554,-1.979 L -49.636,5.937 c -0.475,-1.583 -1.03,-2.612 -1.663,-3.087 -0.633,-0.475 -1.662,-0.792 -3.008,-0.792 h -6.808 c -1.505,0 -2.534,0.238 -3.167,0.792 -0.633,0.554 -1.187,1.583 -1.504,3.167 L -78.057,57.078 -90.248,6.096 c -0.396,-1.584 -0.871,-2.613 -1.504,-3.167 -0.633,-0.554 -1.742,-0.792 -3.167,-0.792 z m -63.569,8.55 c 2.612,0 5.304,0.475 8.154,1.425 2.85,0.95 5.383,2.692 7.52,5.067 1.267,1.504 2.217,3.166 2.692,5.066 0.475,1.9 0.792,4.196 0.792,6.888 v 3.325 c -2.296,0.554 -4.75,1.029 -7.284,1.345 -2.533,0.317 -4.987,0.475 -7.441,0.475 -5.304,0 -9.183,-1.029 -11.796,-3.166 -2.612,-2.138 -3.879,-5.146 -3.879,-9.104 0,-3.721 0.95,-6.492 2.929,-8.392 1.9,-1.979 4.671,-2.929 8.313,-2.929 m 32.141,12.033 c 0,-2.929 0.316,-5.304 0.87,-7.045 0.634,-1.742 1.425,-3.642 2.534,-5.7 0.395,-0.634 0.554,-1.267 0.554,-1.821 0,-0.792 -0.475,-1.583 -1.504,-2.375 l -4.988,-3.325 c -0.712,-0.475 -1.425,-0.712 -2.058,-0.712 -0.792,0 -1.583,0.395 -2.375,1.108 -1.108,1.187 -2.058,2.454 -2.85,3.721 -0.792,1.345 -1.583,2.85 -2.454,4.67 -6.175,-7.283 -13.933,-10.924 -23.275,-10.924 -6.649,0 -11.953,1.9 -15.833,5.7 -3.879,3.799 -5.858,8.866 -5.858,15.199 0,6.729 2.375,12.192 7.204,16.308 4.829,4.117 11.242,6.175 19.396,6.175 2.691,0 5.462,-0.237 8.391,-0.633 2.929,-0.396 5.938,-1.029 9.104,-1.742 v 5.779 c 0,6.017 -1.266,10.212 -3.721,12.667 -2.533,2.454 -6.808,3.641 -12.903,3.641 -2.771,0 -5.621,-0.317 -8.55,-1.029 -2.929,-0.713 -5.779,-1.583 -8.55,-2.692 -1.267,-0.554 -2.217,-0.87 -2.771,-1.029 -0.554,-0.158 -0.95,-0.237 -1.267,-0.237 -1.108,0 -1.662,0.791 -1.662,2.454 v 3.879 c 0,1.267 0.158,2.217 0.554,2.771 0.396,0.554 1.108,1.108 2.217,1.662 2.771,1.425 6.096,2.613 9.975,3.563 3.879,1.029 7.995,1.504 12.349,1.504 9.421,0 16.308,-2.138 20.742,-6.413 4.354,-4.275 6.57,-10.766 6.57,-19.474 V 22.72 Z"
             style="fill:#252f3e;fill-opacity:1;fill-rule:nonzero;stroke:none"
             id="path34" />
        </g>
        <g
           id="g36"
           transform="translate(882.0153,65.6298)">
          <path
             d="m 0,0 c -3.325,4.275 -22.008,2.058 -30.479,1.029 -2.533,-0.317 -2.929,1.9 -0.633,3.563 14.883,10.449 39.345,7.441 42.195,3.958 2.85,-3.563 -0.792,-28.025 -14.725,-39.741 -2.137,-1.821 -4.195,-0.871 -3.245,1.504 C -3.721,-21.85 3.325,-4.196 0,0 m -10.846,-12.35 c -26.045,-19.237 -63.886,-29.449 -96.422,-29.449 -45.599,0 -86.686,16.862 -117.719,44.886 -2.454,2.217 -0.237,5.225 2.692,3.484 33.566,-19.475 74.969,-31.27 117.797,-31.27 28.895,0 60.641,6.016 89.852,18.366 4.355,1.979 8.075,-2.85 3.8,-6.017"
             style="fill:#ff9900;fill-opacity:1;fill-rule:nonzero;stroke:none"
             id="path38" />
        </g>
      </g>
    </g>
  </g>
</svg>
