<?xml version="1.0" encoding="utf-8"?>
<!-- Generator: Adobe Illustrator 26.5.0, SVG Export Plug-In . SVG Version: 6.00 Build 0)  -->
<svg version="1.1" id="Layer_1" xmlns="http://www.w3.org/2000/svg" xmlns:xlink="http://www.w3.org/1999/xlink" x="0px" y="0px"
	 viewBox="0 0 250 100.67" style="enable-background:new 0 0 250 100.67;" xml:space="preserve">
<style type="text/css">
	.st0{fill:#2453FF;}
</style>
<g>
	<g>
		<path d="M84.18,24.31h9.97c4.73,0,7.92,2.29,7.92,6.74c0,3.62-2.47,5.81-4.88,6.56c0.72,0.61,1.25,1.43,1.68,2.3
			c1,2.04,1.69,4.3,3.8,4.3c0.54,0,0.97-0.18,0.97-0.18l-0.47,4.27c0,0-1.29,0.32-2.4,0.32c-2.87,0-4.52-1.11-6.2-4.95
			c-0.72-1.72-1.72-4.73-3.05-4.73h-1.36v9.57h-5.99V24.31 M90.17,28.65v5.95h2.15c1.72,0,3.73-0.54,3.73-3.12
			c0-2.12-1.36-2.83-3.01-2.83H90.17z"/>
		<path d="M110.17,24.31h6.06l8.18,24.2h-6.06l-1.51-4.59h-8.1l-1.47,4.59h-5.23L110.17,24.31 M110.17,39.48h5.2l-1.65-5.09
			c-0.57-1.72-0.82-4.16-0.82-4.16h-0.14c0,0-0.36,2.47-0.9,4.12L110.17,39.48z"/>
		<path d="M124.66,24.31h6.42l6.35,12.01c0.54,1.04,1.25,2.87,1.83,4.3h0.14c-0.07-1.36-0.25-3.3-0.25-4.7V24.31h4.91v24.2h-6.27
			l-6.6-11.98c-0.61-1.08-1.26-2.65-1.76-3.94h-0.14c0.11,1.36,0.29,2.98,0.29,4.3v11.62h-4.91V24.31"/>
		<path d="M145.34,36.25c0-8.75,4.34-12.37,11.04-12.37c7.06,0,9.9,3.87,9.11,9.11l-5.59,0.5c0.61-3.84-0.9-5.38-3.62-5.38
			c-2.62,0-4.73,1.94-4.73,8.18c0,6.6,2.29,8.28,4.91,8.28c2.47,0,4.48-1.54,4.05-4.7l5.24,0.54c0.39,4.91-3.16,8.53-9.61,8.53
			C149.57,48.95,145.34,45.07,145.34,36.25"/>
		<polyline points="166.96,24.31 172.95,24.31 172.95,33.46 180.3,33.46 180.3,24.31 186.29,24.31 186.29,48.51 180.3,48.51 
			180.3,38.26 172.95,38.26 172.95,48.51 166.96,48.51 166.96,24.31 		"/>
		<polyline points="188.69,24.31 204.72,24.31 204.72,28.76 194.68,28.76 194.68,33.96 203.1,33.96 203.1,38.4 194.68,38.4 
			194.68,44.07 205.07,44.07 205.07,48.51 188.69,48.51 188.69,24.31 		"/>
		<path d="M206.22,24.31h9.97c4.73,0,7.92,2.29,7.92,6.74c0,3.62-2.47,5.81-4.88,6.56c0.72,0.61,1.26,1.43,1.69,2.3
			c1,2.04,1.69,4.3,3.8,4.3c0.54,0,0.97-0.18,0.97-0.18l-0.47,4.27c0,0-1.29,0.32-2.4,0.32c-2.87,0-4.52-1.11-6.2-4.95
			c-0.72-1.72-1.72-4.73-3.05-4.73h-1.36v9.57h-5.99V24.31 M212.21,28.65v5.95h2.15c1.72,0,3.73-0.54,3.73-3.12
			c0-2.12-1.36-2.83-3.01-2.83H212.21z"/>
	</g>
	<g>
		<path d="M84.36,53.73h9.49c4.46,0,7.68,2.25,7.68,6.77c0,4.93-3.12,7.78-7.68,7.78h-3.89v8.08h-5.6V53.73z M89.96,57.78v6.44h2.61
			c1.75,0,3.32-0.94,3.32-3.39c0-2.31-1.58-3.05-3.32-3.05H89.96z"/>
		<path d="M102.41,53.73h9.32c4.43,0,7.41,2.15,7.41,6.3c0,3.39-2.31,5.43-4.56,6.14c0.67,0.57,1.17,1.34,1.58,2.15
			c0.94,1.91,1.58,4.02,3.56,4.02c0.5,0,0.9-0.17,0.9-0.17l-0.44,3.99c0,0-1.21,0.3-2.25,0.3c-2.68,0-4.23-1.04-5.8-4.63
			c-0.67-1.61-1.61-4.43-2.85-4.43h-1.28v8.95h-5.6V53.73z M108.01,57.78v5.57h2.01c1.61,0,3.49-0.5,3.49-2.92
			c0-1.98-1.27-2.65-2.82-2.65H108.01z"/>
		<path d="M120.28,53.73h11.67v3.96h-3.05V72.4h3.05v3.96h-11.67V72.4h3.02V57.68h-3.02V53.73z"/>
		<path d="M133.33,53.73h6.94l3.69,10.09c0.57,1.61,0.97,3.25,0.97,3.25h0.13c0,0,0.4-1.71,0.97-3.25l3.59-10.09h6.61v22.63H151
			V64.93c0-1.34,0.37-4.49,0.37-4.49h-0.13c0,0-0.67,3.19-1.11,4.33l-4.36,11.6h-2.51l-4.39-11.6c-0.47-1.21-1.04-4.12-1.04-4.12
			h-0.13c0,0,0.24,2.95,0.24,4.29v11.43h-4.59V53.73z"/>
		<path d="M158.66,53.73h14.99v4.16h-9.39v4.86h7.88v4.16h-7.88v5.3h9.73v4.16h-15.32V53.73z"/>
	</g>
	<path class="st0" d="M24.31,24.31v52.15h52.15V24.31H24.31z M73.04,34.01l-6.74,8.37c-0.36,0.44-0.89,0.7-1.46,0.7h-2.85v11.99
		c0,1.71-1.4,3.1-3.1,3.1h-8.36c-1.71,0-3.1-1.4-3.1-3.1v-6.34c-0.75,0.57-1.25,1.47-1.25,2.48v5.31c0,1.71,1.4,3.1,3.1,3.1h5.43
		v8.26c0,1.05-0.85,1.89-1.89,1.89H42.6c-1.05,0-1.89-0.85-1.89-1.89V60.2c0-1.05-0.85-1.89-1.89-1.89h-4.85
		c-2.4,0-4.34-1.94-4.34-4.34V35.85h5.67c1.17,0,2.06,1.05,1.87,2.2l-0.73,4.39c-0.19,1.15,0.7,2.2,1.87,2.2h7.23
		c0.93,0,1.7-0.67,1.86-1.54c-0.44,0.15-0.94,0.23-1.47,0.23h-5.16c-1.71,0-2.87-1.38-2.59-3.06l0.87-5.24
		c0.28-1.68,0.94-3.06,1.46-3.06c0.52,0,0.95,1.4,0.95,3.1v0.8c0.1-0.01,0.2-0.03,0.3-0.03h8.58c0.07,0,0.13-0.01,0.21-0.01h8.36
		c1.71,0,3.1,1.4,3.1,3.1v4.14l4.93-9.52c0.42-0.82,1.27-1.33,2.19-1.33h3.07C73.11,32.23,73.62,33.3,73.04,34.01z"/>
</g>
</svg>
