<?xml version="1.0" encoding="UTF-8" standalone="no"?>
<svg
   version="1.1"
   x="0"
   y="0"
   width="1200"
   height="300"
   viewBox="0 0 1200 300"
   id="svg9"
   sodipodi:docname="logo-lockup_suse-rancher_veeam-kasten_hor_dark_new.svg"
   inkscape:version="1.1.2 (0a00cf5339, 2022-02-04)"
   xmlns:inkscape="http://www.inkscape.org/namespaces/inkscape"
   xmlns:sodipodi="http://sodipodi.sourceforge.net/DTD/sodipodi-0.dtd"
   xmlns="http://www.w3.org/2000/svg"
   xmlns:svg="http://www.w3.org/2000/svg">
  <defs
     id="defs13">
    <style
       id="style1584">
      .f04ca906-1e69-4f27-8621-a7ab0851ca11 {
        fill: #55565b;
      }

      .e330b834-161b-487c-bb13-8bca561e66de {
        fill: #00abc7;
      }
    </style>
  </defs>
  <sodipodi:namedview
     id="namedview11"
     pagecolor="#ffffff"
     bordercolor="#666666"
     borderopacity="1.0"
     inkscape:pageshadow="2"
     inkscape:pageopacity="0.0"
     inkscape:pagecheckerboard="0"
     showgrid="true"
     scale-x="1"
     viewbox-width="1280"
     viewbox-height="600"
     width="2000px"
     height="400px"
     inkscape:zoom="0.71"
     inkscape:cx="461.26761"
     inkscape:cy="416.90141"
     inkscape:window-width="1920"
     inkscape:window-height="1051"
     inkscape:window-x="1920"
     inkscape:window-y="0"
     inkscape:window-maximized="1"
     inkscape:current-layer="svg9">
    <inkscape:grid
       type="xygrid"
       id="grid38" />
  </sodipodi:namedview>
  <path
     style="fill:none;stroke:#c0c0c0;stroke-width:6.13149;stroke-linecap:butt;stroke-linejoin:miter;stroke-miterlimit:4;stroke-dasharray:none;stroke-opacity:1"
     d="M 700,220 V 69.618721"
     id="path73" />
  <style
     type="text/css"
     id="style1185">
	.st0{fill:#446CA9;}
	.st1{fill:none;}
	.st2{fill:#46A8C6;}
	.st3{fill:#939598;}
</style>
  <rect
     style="opacity:0;fill:#ffffff;stroke-width:4.485;stroke-linecap:round;stroke-linejoin:bevel"
     id="rect1287"
     width="80"
     height="20"
     x="-80"
     y="-20" />
  <g
     id="g1029"
     transform="matrix(1.3400956,0,0,1.3400956,69.970323,64.176877)">
    <path
       d="m 323.198,69.111 h -0.043 c -1.331,0 -2.412,1.079 -2.412,2.412 V 81.741 H 306.038 V 71.523 c 0,-1.331 -1.077,-2.412 -2.41,-2.412 -1.332,0 -2.412,1.079 -2.412,2.412 v 24.944 c 0,1.33 1.078,2.412 2.412,2.412 1.331,0 2.41,-1.08 2.41,-2.412 V 85.89 h 14.705 v 10.577 c 0,1.33 1.076,2.412 2.412,2.412 h 0.043 c 1.332,0 2.414,-1.08 2.414,-2.412 V 71.523 c 0,-1.331 -1.082,-2.412 -2.414,-2.412 m -30.966,24.484 c 0.779,-1.288 0.117,-2.971 -1.312,-3.449 -1.101,-0.368 -2.297,0.118 -2.85,1.138 -0.536,0.985 -1.221,1.786 -2.062,2.403 -1.305,0.964 -2.925,1.443 -4.849,1.443 -2.828,0 -5.036,-0.978 -6.63,-2.931 -1.592,-1.954 -2.389,-4.692 -2.389,-8.21 0,-3.491 0.834,-6.218 2.503,-8.188 1.671,-1.967 3.904,-2.953 6.699,-2.953 1.836,0 3.323,0.412 4.467,1.241 0.683,0.494 1.27,1.162 1.762,1.999 0.611,1.041 1.936,1.419 3.04,0.927 l 0.086,-0.036 c 1.349,-0.605 1.837,-2.287 1.008,-3.511 -0.825,-1.212 -1.866,-2.202 -3.124,-2.965 -2.03,-1.233 -4.533,-1.85 -7.509,-1.85 -2.83,0 -5.299,0.617 -7.401,1.85 -2.105,1.236 -3.728,3.008 -4.872,5.324 -1.141,2.316 -1.713,5.037 -1.713,8.165 0,3.128 0.572,5.849 1.713,8.163 1.144,2.318 2.767,4.093 4.872,5.325 2.107,1.236 4.586,1.851 7.444,1.851 2.947,0 5.511,-0.72 7.692,-2.163 1.407,-0.934 2.547,-2.122 3.425,-3.573 m -38.026,5.286 c 1.998,0 3.619,-1.619 3.619,-3.622 V 71.335 c 0,-1.228 -0.995,-2.224 -2.225,-2.224 -1.235,0 -2.232,1.005 -2.223,2.24 l 0.111,20.382 c 0,0.455 -0.6,0.623 -0.833,0.231 L 240.157,70.886 c -0.65,-1.101 -1.836,-1.775 -3.112,-1.775 -2.004,0 -3.625,1.623 -3.625,3.623 v 23.937 c 0,1.223 0.991,2.21 2.212,2.21 1.22,0 2.21,-0.987 2.21,-2.21 l -0.165,-20.406 c -0.006,-0.458 0.597,-0.623 0.831,-0.233 l 12.539,21.074 c 0.651,1.101 1.836,1.775 3.113,1.775 h 0.046 m -36.771,-11.727 -4.48,-12.645 c -0.141,-0.4 -0.705,-0.397 -0.842,0.002 l -4.371,12.643 z m 1.446,3.925 h -12.54 l -2.314,6.348 c -0.317,0.874 -1.15,1.454 -2.077,1.454 h -0.22 c -1.545,0 -2.615,-1.544 -2.069,-2.99 l 9.082,-24.08 c 0.612,-1.624 2.169,-2.7 3.907,-2.7 1.737,0 3.292,1.076 3.905,2.7 l 9.082,24.08 c 0.546,1.446 -0.523,2.99 -2.069,2.99 h -0.345 c -0.932,0 -1.765,-0.586 -2.081,-1.465 z M 371.815,82.96 h 6.945 c 1.956,0 3.413,-0.4 4.376,-1.197 0.963,-0.797 1.444,-2.022 1.444,-3.676 0,-1.653 -0.481,-2.88 -1.444,-3.675 -0.963,-0.799 -2.42,-1.195 -4.376,-1.195 h -5.048 c -1.048,0 -1.897,0.85 -1.897,1.897 z m 6.403,4.014 h -6.403 v 9.586 c 0,1.283 -1.04,2.321 -2.323,2.321 h -0.139 c -1.282,0 -2.321,-1.038 -2.321,-2.321 V 75.363 c 0,-3.452 2.8,-6.252 6.253,-6.252 h 5.882 c 3.219,0 5.759,0.789 7.623,2.367 1.865,1.578 2.796,3.765 2.796,6.561 0,2.137 -0.55,3.918 -1.643,5.346 -1.098,1.43 -2.654,2.443 -4.669,3.044 l 5.745,8.864 c 1.005,1.544 -0.105,3.586 -1.946,3.586 -0.795,0 -1.536,-0.405 -1.962,-1.076 z M 175.119,82.96 h 6.946 c 1.953,0 3.412,-0.4 4.375,-1.197 0.963,-0.797 1.443,-2.022 1.443,-3.676 0,-1.653 -0.48,-2.88 -1.443,-3.675 -0.963,-0.799 -2.422,-1.195 -4.375,-1.195 h -5.049 c -1.047,0 -1.897,0.85 -1.897,1.897 z m 6.404,4.014 h -6.404 v 9.586 c 0,1.283 -1.04,2.321 -2.323,2.321 h -0.137 c -1.284,0 -2.323,-1.038 -2.323,-2.321 V 75.363 c 0,-3.452 2.799,-6.252 6.254,-6.252 h 5.881 c 3.218,0 5.759,0.789 7.624,2.367 1.864,1.578 2.796,3.765 2.796,6.561 0,2.137 -0.551,3.918 -1.644,5.346 -1.098,1.43 -2.655,2.443 -4.671,3.044 l 5.748,8.864 c 1.002,1.544 -0.106,3.586 -1.947,3.586 -0.795,0 -1.535,-0.405 -1.961,-1.076 z m 174.583,7.75 H 342.55 c -1.045,0 -1.894,-0.852 -1.894,-1.897 v -6.848 h 13.08 c 1.125,0 2.036,-0.912 2.036,-2.034 0,-1.127 -0.911,-2.04 -2.036,-2.04 h -13.08 v -6.738 c 0,-1.048 0.849,-1.898 1.894,-1.898 h 13.556 c 1.179,0 2.137,-0.955 2.137,-2.134 0,-1.179 -0.958,-2.136 -2.137,-2.136 H 342.55 c -3.4,0 -6.169,2.766 -6.169,6.17 V 92.83 c 0,3.401 2.769,6.17 6.169,6.17 h 13.556 c 1.179,0 2.137,-0.956 2.137,-2.137 0,-1.184 -0.958,-2.139 -2.137,-2.139 M 289.462,55.725 h -13.556 c -1.044,0 -1.896,-0.849 -1.896,-1.895 v -6.848 h 13.083 c 1.124,0 2.037,-0.912 2.037,-2.037 0,-1.125 -0.913,-2.036 -2.037,-2.036 H 274.01 V 36.17 c 0,-1.047 0.852,-1.897 1.896,-1.897 h 13.556 c 1.18,0 2.138,-0.957 2.138,-2.137 0,-1.18 -0.958,-2.136 -2.138,-2.136 h -13.556 c -3.4,0 -6.168,2.766 -6.168,6.17 v 17.66 c 0,3.4 2.768,6.169 6.168,6.169 h 13.556 c 1.18,0 2.138,-0.957 2.138,-2.137 0,-1.18 -0.958,-2.137 -2.138,-2.137 M 249.601,42.964 c -2.865,-0.514 -4.858,-1.124 -5.974,-1.832 -1.116,-0.709 -1.675,-1.667 -1.675,-2.874 0,-1.297 0.573,-2.36 1.72,-3.19 1.147,-0.83 2.76,-1.245 4.844,-1.245 2.11,0 3.801,0.407 5.069,1.223 0.681,0.438 1.303,1.021 1.863,1.75 0.826,1.07 2.384,1.211 3.389,0.307 0.946,-0.854 1.029,-2.318 0.178,-3.268 -1.028,-1.148 -2.198,-2.057 -3.509,-2.727 -1.945,-0.996 -4.291,-1.494 -7.035,-1.494 -2.355,0 -4.414,0.408 -6.177,1.222 -1.765,0.815 -3.118,1.916 -4.051,3.304 -0.937,1.387 -1.404,2.926 -1.404,4.616 0,1.599 0.368,2.957 1.11,4.073 0.737,1.116 1.923,2.052 3.551,2.805 1.629,0.755 3.816,1.389 6.563,1.901 2.746,0.514 4.667,1.101 5.769,1.764 1.102,0.665 1.654,1.539 1.654,2.625 0,1.359 -0.612,2.407 -1.836,3.145 -1.219,0.741 -2.902,1.109 -5.043,1.109 -2.264,0 -4.157,-0.421 -5.681,-1.266 -0.87,-0.483 -1.649,-1.124 -2.34,-1.92 -0.868,-1.009 -2.425,-1.031 -3.364,-0.091 l -0.009,0.008 c -0.86,0.86 -0.926,2.251 -0.114,3.156 2.582,2.882 6.433,4.322 11.552,4.322 2.353,0 4.427,-0.354 6.223,-1.063 1.795,-0.708 3.189,-1.727 4.185,-3.055 0.997,-1.328 1.494,-2.867 1.494,-4.616 0,-1.629 -0.362,-2.993 -1.086,-4.095 -0.725,-1.101 -1.877,-2.021 -3.462,-2.761 -1.583,-0.739 -3.719,-1.35 -6.404,-1.833 m -66.831,0.01 c -2.865,-0.516 -4.858,-1.124 -5.974,-1.833 -1.116,-0.711 -1.674,-1.667 -1.674,-2.875 0,-1.296 0.574,-2.36 1.719,-3.191 1.147,-0.828 2.762,-1.243 4.844,-1.243 2.11,0 3.8,0.406 5.068,1.221 0.683,0.439 1.304,1.022 1.864,1.753 0.825,1.069 2.384,1.209 3.39,0.306 0.946,-0.855 1.028,-2.318 0.177,-3.269 -1.028,-1.147 -2.199,-2.057 -3.508,-2.727 -1.946,-0.996 -4.293,-1.493 -7.037,-1.493 -2.353,0 -4.412,0.407 -6.176,1.222 -1.766,0.814 -3.117,1.916 -4.052,3.303 -0.935,1.388 -1.402,2.927 -1.402,4.617 0,1.598 0.368,2.957 1.108,4.072 0.74,1.117 1.925,2.052 3.553,2.806 1.629,0.754 3.816,1.388 6.562,1.901 2.745,0.513 4.668,1.101 5.77,1.765 1.1,0.663 1.652,1.538 1.652,2.624 0,1.358 -0.612,2.407 -1.833,3.145 -1.222,0.74 -2.904,1.109 -5.045,1.109 -2.264,0 -4.157,-0.421 -5.681,-1.267 -0.87,-0.482 -1.649,-1.124 -2.338,-1.921 -0.868,-1.007 -2.427,-1.03 -3.367,-0.09 l -0.008,0.009 c -0.86,0.859 -0.925,2.251 -0.114,3.156 2.582,2.882 6.433,4.322 11.553,4.322 2.352,0 4.426,-0.355 6.221,-1.064 1.796,-0.708 3.19,-1.727 4.187,-3.054 0.996,-1.327 1.493,-2.867 1.493,-4.616 0,-1.629 -0.362,-2.993 -1.087,-4.095 -0.724,-1.102 -1.876,-2.022 -3.462,-2.761 -1.583,-0.74 -3.718,-1.351 -6.403,-1.832 m 44.573,-10.916 v 16.429 c 0,3.921 -1.042,6.885 -3.121,8.891 -2.084,2.007 -5.115,3.009 -9.097,3.009 -3.984,0 -7.016,-1.002 -9.097,-3.009 -2.081,-2.006 -3.122,-4.97 -3.122,-8.891 V 32.058 c 0,-1.349 1.094,-2.444 2.443,-2.444 1.348,0 2.445,1.095 2.445,2.444 v 15.839 c 0,2.837 0.594,4.925 1.787,6.269 1.192,1.341 3.039,2.012 5.544,2.012 2.505,0 4.351,-0.671 5.543,-2.012 1.191,-1.344 1.787,-3.432 1.787,-6.269 V 32.058 c 0,-1.349 1.095,-2.444 2.445,-2.444 1.348,0 2.443,1.095 2.443,2.444"
       fill="#0c322c"
       id="path1025" />
    <path
       d="m 138.35831,44.128241 h -28.87007 c -0.1775,0 -0.35721,0 -0.47517,0.06064 v -1.36269 c 0,-2.847758 -0.71112,-5.21703 -1.59863,-5.21703 -0.88751,0 -1.95583,2.314147 -2.42991,5.15529 l -1.48286,8.83323 c -0.47408,2.847757 1.48286,5.160802 4.38795,5.160802 h 8.65573 c 0.88861,0 1.7199,-0.120172 2.48834,-0.35721 -0.29657,1.482863 -1.54019,2.609618 -3.13882,2.609618 h -12.15286 c -1.95804,0 -3.44089,-1.780538 -3.14322,-3.731963 l 1.24251,-7.412107 c 0.29658,-1.955835 -1.18518,-3.73527 -3.138808,-3.73527 H 38.110194 c -1.303155,0 -2.370375,0.772852 -2.903985,1.895197 l -11.38221,17.374298 c -0.177502,0.296572 -0.177502,0.651577 0.06064,0.945945 l 2.192872,2.608515 c 0.297675,0.35721 0.770648,0.35721 1.12455,0.117967 l 7.769318,-6.104542 v 37.11015 c 0,1.780537 1.421122,3.203859 3.198352,3.203859 h 17.192385 c 1.779435,0 3.200558,-1.423322 3.200558,-3.203859 v -12.92571 c 0,-1.780538 1.423327,-3.199455 3.202762,-3.199455 h 42.923624 c 1.77833,0 3.20276,1.418917 3.20276,3.199455 v 12.92571 c 0,1.780537 1.42002,3.203859 3.19725,3.203859 h 17.19349 c 1.77944,0 3.20056,-1.423322 3.20056,-3.203859 v -13.87386 h -9.1298 c -2.84556,0 -5.21483,-2.37258 -5.21483,-5.215928 v -8.955607 c 0,-1.714388 0.83018,-3.198353 2.07491,-4.148708 v 10.668893 c 0,2.846655 2.37147,5.218132 5.21482,5.218132 h 14.05136 c 2.84666,0 5.21483,-2.371477 5.21483,-5.218132 V 49.404806 c -0.11797,-2.96352 -2.42771,-5.276565 -5.3361,-5.276565 m 20.81189,7.469438 c 0.47187,2.788222 -1.47955,5.096857 -4.32952,5.096857 h -8.71305 -0.47408 v -6.34158 h 0.47408 2.31194 c 2.84665,0 5.21593,-2.370375 5.21593,-5.218132 v -2.308635 c 0,-2.845553 0.71001,-5.218133 1.59972,-5.218133 0.82688,0 1.95804,2.31525 2.43212,5.156393 l 1.48286,8.83323"
       fill="#30ba78"
       id="path1027"
       style="stroke-width:1.1025" />
  </g>
  <style
     type="text/css"
     id="style9679">
	.st0{fill:#446CA9;}
	.st1{fill:none;}
	.st2{fill:#46A8C6;}
	.st3{fill:#939598;}
</style>
  <style
     type="text/css"
     id="style1161">
	.st0{fill:#2600FF;}
	.st1{fill:#FFFFFF;}
</style>
  <g
     id="g1226"
     transform="matrix(1.2124675,0,0,1.2124674,796.20707,88.227642)">
    <g
       id="g1197">
      <path
         class="st0"
         d="M 235,91.7 H 9.8 C 4.4,91.7 0,87.3 0,81.9 V 9.9 C 0,4.4 4.4,0 9.8,0 H 235 c 5.4,0 9.8,4.4 9.8,9.8 v 72 c 0,5.5 -4.4,9.9 -9.8,9.9 z"
         id="path1163" />
      <g
         id="g1177">
        <path
           class="st1"
           d="m 72.1,61 c 2,0 3.4,0.5 4.3,1.5 0.9,1 1.3,2.8 1.3,5.3 0,2.5 -0.5,4.3 -1.5,5.3 -1,1 -2.8,1.5 -5.4,1.5 -0.5,0 -2.3,-0.1 -3.6,-0.2 -0.9,-0.1 -1.7,-0.8 -1.7,-1.8 V 58.4 c 0,-0.9 0.7,-1.5 1.5,-1.5 v 0 c 0.9,0 1.5,0.7 1.5,1.5 v 3.4 C 69.9,61.2 71.1,61 72.1,61 Z m -1.4,11 c 1.5,0 2.5,-0.3 3.1,-1 0.5,-0.7 0.8,-1.8 0.8,-3.3 0,-1.5 -0.2,-2.7 -0.6,-3.3 -0.4,-0.6 -1.1,-1 -2.1,-1 -0.9,0 -1.8,0.1 -2.8,0.4 l -0.5,0.1 v 7.9 c 1,0.2 1.7,0.2 2.1,0.2 z"
           id="path1165" />
        <path
           class="st1"
           d="m 81.4,61.3 v 0 c 0.7,0 1.2,0.4 1.4,1.1 l 2.7,9.3 c 0.1,0.4 0.8,0.4 0.9,0 l 2.7,-9.3 c 0.2,-0.6 0.8,-1.1 1.4,-1.1 v 0 c 1,0 1.7,0.9 1.4,1.9 l -4.6,15.7 c -0.2,0.6 -0.7,1 -1.4,1 v 0 c -1,0 -1.7,-1 -1.4,-1.9 l 1.1,-3.4 H 85 c -1.1,0 -2.1,-0.7 -2.4,-1.8 l -2.8,-9.7 c -0.1,-0.9 0.6,-1.8 1.6,-1.8 z"
           id="path1167" />
        <path
           class="st1"
           d="m 125.8,71.9 0.8,-0.1 v 0.6 c 0,0.9 -0.6,1.6 -1.5,1.7 -1.6,0.2 -3,0.4 -4.3,0.4 -2.1,0 -3.6,-0.5 -4.6,-1.6 -0.9,-1.1 -1.4,-2.8 -1.4,-5.1 0,-4.6 2.1,-6.9 6.2,-6.9 4,0 6,2 6,6 v 0 c -0.1,1.2 -1.1,2 -2.2,2 H 118 c 0,1.1 0.3,1.9 0.8,2.4 0.5,0.5 1.4,0.8 2.8,0.8 1.4,0 2.8,-0.1 4.2,-0.2 z m -1.7,-5.1 c 0,-1.3 -0.2,-2.2 -0.7,-2.7 -0.4,-0.5 -1.2,-0.8 -2.3,-0.8 -1.1,0 -1.8,0.3 -2.3,0.8 -0.5,0.5 -0.7,1.4 -0.8,2.7 z"
           id="path1169" />
        <path
           class="st1"
           d="m 141.4,71.9 v 0.7 c 0,0.8 -0.6,1.5 -1.4,1.6 -1.6,0.2 -3.1,0.4 -4.4,0.4 -2.1,0 -3.6,-0.5 -4.6,-1.6 -0.9,-1.1 -1.4,-2.8 -1.4,-5.1 0,-4.6 2.1,-6.9 6.2,-6.9 4,0 6,2 6,6 -0.1,1.2 -1.1,2 -2.2,2 h -6.8 c 0,1.1 0.3,1.9 0.8,2.4 0.5,0.5 1.4,0.8 2.8,0.8 0.4,0 5,-0.3 5,-0.3 z m -2.6,-5.1 c 0,-1.3 -0.2,-2.2 -0.7,-2.7 -0.4,-0.5 -1.2,-0.8 -2.3,-0.8 -1.1,0 -1.8,0.3 -2.3,0.8 -0.5,0.5 -0.7,1.4 -0.8,2.7 z"
           id="path1171" />
        <path
           class="st1"
           d="m 161.4,74.6 c -0.9,0 -1.6,-0.7 -1.6,-1.5 v -9.9 c 0,-1.1 0.5,-1.9 1.6,-1.9 1.1,0 1.5,0.8 1.5,0.8 1.4,-0.7 2.6,-1.1 3.7,-1.1 1.7,0 2.9,0.4 3.6,1.3 1.7,-0.9 3.5,-1.3 5.2,-1.3 1.7,0 2.9,0.5 3.6,1.4 0.7,1 1.1,2.6 1.1,4.9 v 5.8 c 0,0.9 -0.7,1.5 -1.5,1.5 -0.9,0 -1.5,-0.7 -1.5,-1.5 v -5.7 c 0,-1.4 -0.2,-2.4 -0.5,-3 -0.3,-0.6 -1,-0.9 -2,-0.9 -0.9,0 -1.8,0.2 -2.8,0.5 l -0.5,0.2 c 0.2,0.3 0.2,1.5 0.2,3.3 v 5.6 c 0,0.9 -0.6,1.5 -1.5,1.5 -0.9,0 -1.6,-0.7 -1.6,-1.5 v -5.5 c 0,-1.5 -0.2,-2.6 -0.5,-3.2 -0.3,-0.6 -1,-0.9 -2,-0.9 -1,0 -2,0.1 -3,0.6 V 73 c 0.1,0.9 -0.6,1.6 -1.5,1.6 z"
           id="path1173" />
        <path
           class="st1"
           d="m 101.2,58.7 c 0.8,-0.1 1.5,0.2 1.8,1.1 0.3,0.9 3.3,11.7 3.3,11.7 0.2,0.5 0.7,0.5 0.9,0 l 3.1,-11.8 c 0.2,-0.7 0.8,-1.1 1.5,-1.1 1,0 1.7,1 1.5,1.9 l -3.2,12.2 c -0.3,1.1 -1.3,1.8 -2.4,1.8 h -1.8 c -1.1,0 -2.1,-0.7 -2.4,-1.8 0,0 -3.2,-11 -3.5,-12.1 -0.3,-1 0.5,-1.7 1.2,-1.9 z"
           id="path1175" />
      </g>
      <g
         id="g1195">
        <path
           class="st1"
           d="m 102.1,42.7 c -1.4,0 -2.5,1.1 -2.5,2.6 0,0.8 0.3,1.5 0.7,2 0.5,0.5 1.1,0.7 1.7,0.7 h 13 c 4.9,0 8.5,-3.5 8.5,-8.3 0,-4.8 -3.7,-8.6 -8.4,-8.6 h -8 c -2.1,0 -3.5,-1.2 -3.5,-3 0,-1.9 1.4,-3.1 3.5,-3.1 H 120 c 1.6,0 2.5,-1.4 2.5,-2.7 0,-1.5 -1.1,-2.6 -2.5,-2.6 h -13 c -4.9,0 -8.5,3.6 -8.5,8.4 0,4.7 3.7,8.3 8.5,8.3 h 7.9 c 2.1,0 3.5,1.3 3.5,3.3 0,1.9 -1.3,3.1 -3.5,3.1 z"
           id="path1179" />
        <path
           class="st1"
           d="m 153.1,22.2 c 0,1.4 -1.3,2.6 -2.8,2.6 h -4.8 -3 v 20.4 c 0,1.5 -1.3,2.8 -2.8,2.8 -1.5,0 -2.8,-1.3 -2.8,-2.8 V 24.8 h -2.5 -5.3 c -1.5,0 -2.8,-1.2 -2.8,-2.6 0,-1.4 1.3,-2.6 2.8,-2.6 h 5.3 4.5 0.3 6.2 4.8 c 1.7,0 2.9,1.2 2.9,2.6 z"
           id="path1181" />
        <path
           class="st1"
           d="m 181.5,45.5 c 0,1.4 -1.3,2.6 -2.8,2.6 h -4.9 -4.7 -0.5 -3.4 -0.5 -1.3 c 0,0 -1.9,0 -2.6,-0.3 -0.5,-0.2 -0.9,-0.3 -1.3,-0.6 -1.4,-0.9 -2.3,-2.5 -2.4,-4.3 v 0 -0.2 -0.6 -1.1 -3.1 -1.7 0 0 c 0,-1.9 0.9,-3.5 2.4,-4.4 0.4,-0.3 0.9,-0.4 1.3,-0.6 0.7,-0.3 2.6,-0.2 2.6,-0.2 h 1.3 0.5 3.4 0.5 4.7 4.9 c 1.5,0 2.8,1.2 2.8,2.6 0,1.4 -1.3,2.6 -2.8,2.6 h -4.9 -4.7 -0.5 -3.4 -1 c -1,0 -1.8,0.3 -1.8,1.5 v 3.7 c 0,1 1,1.5 1.8,1.5 h 1 3.4 0.5 4.7 4.9 c 1.5,0 2.8,1.1 2.8,2.6 z m -2.9,-25.9 h -4.8 -4.7 -0.5 -3.4 -5.3 c -1.5,0 -2.8,1.2 -2.8,2.6 0,1.4 1.3,2.6 2.8,2.6 h 5.3 3.4 0.5 4.8 4.8 c 1.5,0 2.8,-1.2 2.8,-2.6 -0.1,-1.4 -1.3,-2.6 -2.9,-2.6 z"
           id="path1183" />
        <g
           id="g1189">
          <path
             class="st1"
             d="m 39.3,22.4 v 9.4 4 9.4 C 39.3,46.7 38,48 36.5,48 35,48 33.7,46.7 33.7,45.2 v -9.4 -4 -9.4 c 0,-1.5 1.3,-2.8 2.8,-2.8 1.5,0 2.8,1.3 2.8,2.8 z"
             id="path1185" />
          <path
             class="st1"
             d="m 48.7,33.8 10.7,-9.2 c 1,-0.9 1.4,-2.4 0.7,-3.6 -0.9,-1.6 -3,-1.9 -4.3,-0.8 L 41,33 c -0.5,0.4 -0.5,1.1 0,1.5 l 14.7,12.7 c 1,0.9 2.6,1 3.6,0.2 1.4,-1.1 1.4,-3.2 0.1,-4.3 z"
             id="path1187" />
        </g>
        <path
           class="st1"
           d="m 212,22.4 v 20.4 c 0,3.2 -1.5,5.3 -4.3,5.3 -3,0 -4.1,-1.8 -5.3,-3.5 l -11.3,-18 v 18.7 c 0,1.5 -1.3,2.7 -2.8,2.7 -1.5,0 -2.8,-1.2 -2.8,-2.8 V 24.9 c 0,-3 2.1,-5.3 4.8,-5.3 1.9,0 3.6,1.4 4.6,2.8 0.1,0.2 11.6,18.5 11.6,18.5 V 22.3 c 0,-1 1,-2.6 2.8,-2.6 1.4,0 2.7,1.2 2.7,2.7 z"
           id="path1191" />
        <path
           class="st1"
           d="M 95.2,43.6 85.6,23.4 c -0.9,-2.4 -2.7,-3.8 -5.5,-3.8 -2.3,0 -4.3,1.2 -5.4,3.8 l -9.5,19.8 c -1.9,3.5 1.3,4.8 2.2,4.7 v 0 c 1.1,0 2.1,-0.7 2.6,-1.8 0.4,-0.9 2.5,-5.3 2.5,-5.3 h 7.6 c 1.5,0 2.6,-1.3 2.6,-2.8 0,-1.5 -1.2,-2.8 -2.6,-2.8 h -5 l 4.4,-9 v -0.1 c 0.1,-0.3 0.3,-0.5 0.4,-0.6 0.1,0 0.3,0 0.4,0 0.2,0.1 0.4,0.4 0.5,0.7 l 9.5,19.9 c 0.4,0.8 2,2.6 4.3,1.2 1.1,-0.7 1.4,-2.3 0.6,-3.7 z"
           id="path1193" />
      </g>
    </g>
    <path
       class="st1"
       d="m 155.7,65.3 v 5.9 c 0,0.4 0.2,0.6 0.3,0.8 0.2,0.2 0.5,0.3 0.9,0.4 V 73 c 0,0.9 -0.9,1.4 -1.7,1.4 -0.6,0 -1.6,-0.4 -2.1,-0.8 -1.5,0.6 -3.1,1 -4.6,1 -2.8,0 -4.3,-1.4 -4.3,-4.1 0,-1.3 0.4,-2.3 1.2,-2.9 0.8,-0.6 2,-0.9 3.6,-1.1 l 3.7,-0.3 v -0.9 c 0,-0.7 -0.2,-1.2 -0.5,-1.5 -0.3,-0.3 -0.8,-0.4 -1.5,-0.4 -1,0 -2,0 -2.9,0.1 -0.2,0 -2.6,0.2 -2.6,0.2 v -0.8 c 0,-0.7 0.4,-1.3 1.1,-1.5 1.4,-0.4 3.1,-0.4 4.5,-0.4 1.7,0 3,0.3 3.8,1 0.7,0.7 1.1,1.8 1.1,3.3 z m -6.4,3.2 c -1.3,0.1 -2,0.8 -2,2 0,1.2 0.6,1.8 1.7,1.8 1,0 2.7,-0.3 3,-0.4 0.3,-0.1 0.5,-0.2 0.5,-0.2 v -3.5 z"
       id="path1199" />
  </g>
</svg>
